<?xml version="1.0" encoding="utf-8"?>
<!-- Uploaded to: SVG Repo, www.svgrepo.com, Generator: SVG Repo Mixer Tools -->
<svg width="800px" height="800px" viewBox="0 -62.66 444.751 444.751" xmlns="http://www.w3.org/2000/svg"><defs><style>.a{fill:#ffffff;}.b{fill:#211715;}.c{fill:#bce2ef;}.d{fill:#d3d1d0;}</style></defs><path class="a" d="M56.588,168.165C54.307,171.383,36.84,196,31.714,203.322a2.257,2.257,0,0,0,1.854,3.549H244.076a2.256,2.256,0,0,0,1.854-3.549c-5.126-7.323-22.593-31.939-24.874-35.157Z"/><path class="b" d="M27.236,138.138H250.19c3.089,0,3.094-4.8,0-4.8H27.236c-3.088,0-3.093,4.8,0,4.8Z"/><path class="a" d="M61.179,191.773c0-10.663.107-172.942.107-189.373h154.98c0,22.271.2,181.223.2,189.251"/><path class="c" d="M65.174,2.4H61.463c0,3.26-.005,12.263-.012,24.693H216.465c-.016-11.72-.023-20.56-.023-24.693Z"/><path class="b" d="M2.318,263.809H292.3c3.089,0,3.094-4.8,0-4.8H2.318c-3.088,0-3.093,4.8,0,4.8Z"/><path class="b" d="M63.579,191.773q0-10.715.011-21.43.012-21.438.025-42.877.016-25.417.031-50.835.015-22.82.027-45.637Q63.68,17.4,63.686,3.8V2.4l-2.4,2.4h154.98l-2.4-2.4q0,13.343.02,26.685.021,22.466.048,44.931.027,25.228.057,50.457.025,21.6.05,43.2.014,11.572.024,23.144v.839c0,3.089,4.8,3.094,4.8,0q0-9.975-.02-19.951-.022-20.745-.047-41.49-.03-25.134-.058-50.266-.025-23.126-.05-46.251-.013-14.724-.024-29.448V2.4a2.435,2.435,0,0,0-2.4-2.4H61.286a2.435,2.435,0,0,0-2.4,2.4q0,12.077-.01,24.153-.012,22.138-.026,44.275-.015,25.457-.031,50.912l-.027,44.4q-.008,12.317-.013,24.632v1c0,3.089,4.8,3.094,4.8,0Z"/><path class="b" d="M61.179,194.173q10.233,0,20.465-.012l36.6-.029,41.691-.035,36.085-.031q9.852-.007,19.705-.014h.745c3.089,0,3.094-4.8,0-4.8q-8.475,0-16.949.013l-34.788.029-41.59.035q-18.842.016-37.682.03-11.505.009-23.012.015H61.179c-3.089,0-3.094,4.8,0,4.8Z"/><path class="b" d="M54.516,166.954Q43,183.2,31.5,199.468a17.762,17.762,0,0,0-2.261,3.477,4.673,4.673,0,0,0,3.378,6.22,10.245,10.245,0,0,0,2.078.106H239.5c1.812,0,4.042.324,5.826-.166a4.713,4.713,0,0,0,2.84-6.724,34.772,34.772,0,0,0-2.141-3.085q-3.059-4.344-6.13-8.68-6.671-9.431-13.354-18.851l-3.412-4.811a2.467,2.467,0,0,0-3.284-.861,2.419,2.419,0,0,0-.861,3.283q11.334,15.99,22.649,31.991c.71,1.009,1.489,2,2.139,3.045.568.915-.075.008.3.059-.02,0-.063.011-.08,0-.314-.206-1.476,0-1.839,0H35.325c-.339,0-1.4-.191-1.7,0,.008,0-.116.017-.036,0s.18.217.111.245c-.255.106.156-.29.255-.435.728-1.075,1.493-2.127,2.241-3.189q3.1-4.393,6.2-8.78,6.478-9.158,12.969-18.305,1.644-2.317,3.287-4.636a2.419,2.419,0,0,0-.861-3.283,2.449,2.449,0,0,0-3.283.861Z"/><path class="b" d="M77.281,29.493H200.363c3.089,0,3.094-4.8,0-4.8H77.281c-3.089,0-3.094,4.8,0,4.8Z"/><path class="a" d="M127.1,60.665H92.944V94.82H127.1Z"/><path class="b" d="M127.1,57.865H92.944a2.84,2.84,0,0,0-2.8,2.8V94.82a2.841,2.841,0,0,0,2.8,2.8H127.1a2.841,2.841,0,0,0,2.8-2.8V60.665c0-3.6-5.6-3.609-5.6,0V94.82l2.8-2.8H92.944l2.8,2.8V60.665l-2.8,2.8H127.1C130.7,63.465,130.708,57.865,127.1,57.865Z"/><path class="b" d="M135.993,60.665V94.82c0,3.6,5.6,3.609,5.6,0V60.665c0-3.6-5.6-3.61-5.6,0Z"/><path class="b" d="M127.1,102.907H92.944c-3.6,0-3.61,5.6,0,5.6H127.1c3.6,0,3.609-5.6,0-5.6Z"/><path class="b" d="M183.5,102.907H164.78a2.8,2.8,0,1,0,0,5.6H183.5a2.8,2.8,0,1,0,0-5.6Z"/><path class="b" d="M138.275,108.507h16.571l-2.8-2.8v16.571a2.841,2.841,0,0,0,2.8,2.8h16.572l-2.8-2.8v16.6c0,3.6,5.6,3.609,5.6,0v-16.6a2.841,2.841,0,0,0-2.8-2.8H154.846l2.8,2.8V105.707a2.84,2.84,0,0,0-2.8-2.8H138.275c-3.6,0-3.609,5.6,0,5.6Z"/><path class="b" d="M136.052,116.894v34.155a2.841,2.841,0,0,0,2.8,2.8h11.284c3.6,0,3.609-5.6,0-5.6H138.852l2.8,2.8V116.894c0-3.6-5.6-3.609-5.6,0Z"/><path class="b" d="M160.843,153.849H183.5a2.841,2.841,0,0,0,2.8-2.8v-23.9c0-3.6-5.6-3.609-5.6,0v23.9l2.8-2.8H160.843c-3.6,0-3.609,5.6,0,5.6Z"/><path class="b" d="M114.8,72.961h-9.564v9.564H114.8Z"/><path class="b" d="M114.8,70.161h-9.564a2.841,2.841,0,0,0-2.8,2.8v9.564a2.841,2.841,0,0,0,2.8,2.8H114.8a2.841,2.841,0,0,0,2.8-2.8V72.961a2.8,2.8,0,0,0-5.6,0v9.563l2.8-2.8h-9.564l2.8,2.8V72.96l-2.8,2.8H114.8a2.8,2.8,0,1,0,0-5.6Z"/><path class="a" d="M184.7,60.665H150.546V94.82H184.7C184.7,80.882,184.7,66.9,184.7,60.665Z"/><path class="b" d="M184.7,57.865H150.546a2.84,2.84,0,0,0-2.8,2.8V94.82a2.841,2.841,0,0,0,2.8,2.8H184.7a2.841,2.841,0,0,0,2.8-2.8q0-17.077,0-34.155c0-3.6-5.6-3.609-5.6,0q0,17.077,0,34.155l2.8-2.8H150.546l2.8,2.8V60.665l-2.8,2.8H184.7C188.3,63.465,188.31,57.865,184.7,57.865Z"/><path class="b" d="M172.405,72.961h-9.564v9.564h9.564Z"/><path class="b" d="M172.405,70.161h-9.564a2.841,2.841,0,0,0-2.8,2.8v9.564a2.841,2.841,0,0,0,2.8,2.8h9.564a2.841,2.841,0,0,0,2.8-2.8V72.961a2.8,2.8,0,0,0-5.6,0v9.563l2.8-2.8h-9.564l2.8,2.8V72.96l-2.8,2.8h9.564a2.8,2.8,0,1,0,0-5.6Z"/><path class="b" d="M160.262,133.9h-9.07v4.079h9.07Z"/><path class="b" d="M160.262,131.1h-9.07a2.84,2.84,0,0,0-2.8,2.8v4.079a2.841,2.841,0,0,0,2.8,2.8h9.07a2.841,2.841,0,0,0,2.8-2.8V133.9a2.8,2.8,0,0,0-5.6,0v4.079l2.8-2.8h-9.07l2.8,2.8V133.9l-2.8,2.8h9.07a2.8,2.8,0,1,0,0-5.6Z"/><path class="b" d="M171.418,105.861v5.417"/><path class="b" d="M168.618,105.861v5.417a2.888,2.888,0,0,0,.82,1.98,2.8,2.8,0,0,0,3.96,0,2.911,2.911,0,0,0,.82-1.98v-5.417a2.893,2.893,0,0,0-.82-1.98,2.8,2.8,0,0,0-3.96,0,2.909,2.909,0,0,0-.82,1.98Z"/><path class="b" d="M183.5,105.861v11.066"/><path class="b" d="M180.7,105.861v11.066a2.8,2.8,0,0,0,5.6,0V105.861a2.8,2.8,0,0,0-5.6,0Z"/><path class="a" d="M127.1,116.894H92.944v34.155H127.1Z"/><path class="b" d="M127.1,114.094H92.944a2.841,2.841,0,0,0-2.8,2.8v34.155a2.841,2.841,0,0,0,2.8,2.8H127.1a2.841,2.841,0,0,0,2.8-2.8V116.894c0-3.6-5.6-3.609-5.6,0v34.155l2.8-2.8H92.944l2.8,2.8V116.894l-2.8,2.8H127.1C130.7,119.694,130.708,114.094,127.1,114.094Z"/><path class="b" d="M114.8,129.19h-9.564v9.563H114.8Z"/><path class="b" d="M114.8,126.39h-9.564a2.841,2.841,0,0,0-2.8,2.8v9.563a2.841,2.841,0,0,0,2.8,2.8H114.8a2.841,2.841,0,0,0,2.8-2.8V129.19a2.8,2.8,0,0,0-5.6,0v9.563l2.8-2.8h-9.564l2.8,2.8V129.19l-2.8,2.8H114.8a2.8,2.8,0,1,0,0-5.6Z"/><path class="a" d="M442.352,274.963a45.768,45.768,0,0,1-9.912-10.408c-2.924-4.14-6.054-8.412-6.858-13.415a35.138,35.138,0,0,1,.064-8.2c1.484-19.7,2.349-43.225-.285-49.64-4.164-10.14-6.5-30.594-7.434-41.332-.143-1.643-1.754-5.036-2.793-6.591q-.668-1.046-1.272-2.159c-3.794-6.968-5.837-15.716-7.4-23.334a28.555,28.555,0,0,0-2.082-7.41c-1.173-2.291-3.325-4.277-5.894-4.445-3.894-.255-6.793,3.51-8.413,7.06l-82.854,133.53c12.794,16.585,20.537,24.346,43.882,39.646,3.179,2.083,14.761,8.457,17.67,10.956,6.754,5.8,10.326,11.183,14.3,17.844"/><path class="a" d="M283.272,108.659a61.649,61.649,0,0,0-7.209-3.374,12.3,12.3,0,0,0-8.3.1c-3.566,1.233-6.389,7.27-5.645,10.969a19.879,19.879,0,0,0,4.909,9.89c6.625,7,16.686,12.208,21.418,14.25"/><path class="b" d="M284.483,106.587a60.981,60.981,0,0,0-7.782-3.616,13.967,13.967,0,0,0-8.251-.288c-4.481,1.068-7.4,5.045-8.459,9.386-1.159,4.751.843,10.032,3.671,13.85,3.046,4.113,7.408,7.348,11.644,10.145a78.331,78.331,0,0,0,11.928,6.5,2.48,2.48,0,0,0,3.284-.861,2.419,2.419,0,0,0-.861-3.284A67.16,67.16,0,0,1,270.4,126.209a19.919,19.919,0,0,1-4.087-5.058,16.884,16.884,0,0,1-1.164-2.718c-.168-.508-.316-1.022-.448-1.541-.067-.26-.12-.524-.185-.784l-.083-.4c.008.154.006.144-.007-.03-.285-2.712,1.35-6.606,3.815-7.9a9.859,9.859,0,0,1,2.87-.715,9.03,9.03,0,0,1,3.588.271,37.688,37.688,0,0,1,7.363,3.4c2.688,1.531,5.109-2.614,2.422-4.144Z"/><path class="a" d="M281.031,146.1a61.682,61.682,0,0,0-7.624-2.286,12.3,12.3,0,0,0-8.2,1.307c-3.348,1.739-4.717,7.745-3.441,11.3a18.124,18.124,0,0,0,6,8.651,75.234,75.234,0,0,0,23.026,11.767"/><path class="b" d="M281.669,143.789a50.164,50.164,0,0,0-8-2.373,14.049,14.049,0,0,0-8.03.9,9.423,9.423,0,0,0-5.022,4.243,14.456,14.456,0,0,0-1.71,6.377c-.186,4.554,2.4,9.264,5.551,12.408,3.543,3.538,8.259,6.183,12.674,8.464a67.225,67.225,0,0,0,13.024,5.349c2.985.81,4.259-3.819,1.276-4.629A66.192,66.192,0,0,1,270.9,164.436c-3.248-2.319-6.008-5.34-7.017-9.313-.6-2.344.147-6.375,2.186-7.723a9.481,9.481,0,0,1,6.323-1.355,42.4,42.4,0,0,1,8,2.372,2.417,2.417,0,0,0,2.952-1.676,2.456,2.456,0,0,0-1.676-2.952Z"/><path class="a" d="M300.952,33.938h71.123a17.737,17.737,0,0,1,17.737,17.737V229.307a17.735,17.735,0,0,1-17.735,17.735H300.952a17.737,17.737,0,0,1-17.737-17.737V51.675A17.737,17.737,0,0,1,300.952,33.938Z"/><path class="b" d="M372.075,244.642h-70.42a15.738,15.738,0,0,1-14.665-8.967c-2.035-4.35-1.375-10-1.375-14.7V52.479A15.972,15.972,0,0,1,290,40.952a15.468,15.468,0,0,1,10.957-4.614c.642-.006,1.284,0,1.926,0H367.76c3.305,0,6.545-.18,9.72.974a15.5,15.5,0,0,1,9.931,14.546c0,1.418,0,2.836,0,4.254v162.2c0,3.665.032,7.331,0,11a15.508,15.508,0,0,1-15.336,15.335c-3.087.031-3.095,4.831,0,4.8a20.362,20.362,0,0,0,19.97-17.7,38.917,38.917,0,0,0,.166-4.913V64.6c0-4.283.03-8.567,0-12.849A20.433,20.433,0,0,0,379.069,32.8c-3.573-1.372-7.261-1.263-11-1.263H302.624c-.733,0-1.468-.013-2.2.009a20.17,20.17,0,0,0-19.609,20.688V228.081a22.125,22.125,0,0,0,2.643,11.191,20.527,20.527,0,0,0,18.041,10.17h70.576C375.163,249.442,375.168,244.642,372.075,244.642Z"/><path class="b" d="M328.219,47.946q6.983,0,13.967-.007a2.4,2.4,0,1,0,0-4.8q-6.984,0-13.967.007a2.4,2.4,0,1,0,0,4.8Z"/><path class="b" d="M317.53,240.751q16.3,0,32.605-.007H355.5c3.089,0,3.094-4.8,0-4.8q-16.356,0-32.712.006H317.53c-3.089,0-3.094,4.8,0,4.8Z"/><path class="b" d="M350.293,48.346c3.6,0,3.61-5.6,0-5.6s-3.609,5.6,0,5.6Z"/><path class="a" d="M415.134,145.379q-.668-1.046-1.272-2.159c-3.794-6.968-5.837-15.716-7.4-23.334a28.555,28.555,0,0,0-2.082-7.41c-1.173-2.291-3.325-4.277-5.894-4.445-3.894-.255-6.793,3.51-8.413,7.06a43.47,43.47,0,0,0,2.087,39.484"/><path class="b" d="M417.206,144.168c-3.678-5.847-5.635-12.572-7.195-19.247-.765-3.275-1.268-6.631-2.133-9.88s-2.511-6.38-5.454-8.182a8.375,8.375,0,0,0-9.268.411,17.214,17.214,0,0,0-5.483,7.354,45.822,45.822,0,0,0,2.418,41.162c1.557,2.666,5.708.253,4.144-2.423a41.3,41.3,0,0,1-3.344-33.856c1.078-3.169,4.385-11.488,9.11-8.5,2.363,1.493,3.1,4.432,3.641,6.988.627,2.944,1.19,5.9,1.887,8.827,1.631,6.847,3.759,13.774,7.533,19.773,1.641,2.608,5.8.2,4.144-2.423Z"/><path class="b" d="M413.062,146.591a17.845,17.845,0,0,1,2.424,5.293c.124.5.06.217.041.086.032.214.038.436.057.651q.054.613.111,1.225.13,1.4.271,2.8.668,6.606,1.6,13.181c1.177,8.259,2.656,16.483,5.562,24.323a17.948,17.948,0,0,1,.826,3.431c.187,1.179.356,3.036.459,4.665.273,4.338.278,8.693.209,13.037-.083,5.2-.3,10.4-.585,15.594-.3,5.465-.936,10.947-1.07,16.417-.16,6.546,2.763,11.883,6.422,17.089a52.812,52.812,0,0,0,11.752,12.654,2.416,2.416,0,0,0,3.283-.861,2.454,2.454,0,0,0-.861-3.283,44.838,44.838,0,0,1-9.785-10.585c-3-4.256-5.974-8.652-6.02-14.048-.024-2.815.319-5.638.516-8.444q.278-3.933.5-7.87c.294-5.154.52-10.313.623-15.474.089-4.435.1-8.878-.134-13.308a42.559,42.559,0,0,0-1.229-9.435c-.385-1.339-.978-2.616-1.411-3.941-.628-1.923-1.151-3.881-1.621-5.848-1.037-4.352-1.817-8.765-2.487-13.187-.7-4.635-1.263-9.29-1.736-13.953a49.2,49.2,0,0,0-.667-6.19,21.186,21.186,0,0,0-2.909-6.44c-1.68-2.578-5.837-.176-4.144,2.423Z"/><path class="b" d="M385.143,315.855c-4.093-6.854-8.716-13.5-14.97-18.575-4.4-3.569-9.656-6.184-14.515-9.052A205.935,205.935,0,0,1,337.7,276.1a127.666,127.666,0,0,1-14.493-12.417,171.609,171.609,0,0,1-13.917-16.27,2.482,2.482,0,0,0-3.284-.862,2.417,2.417,0,0,0-.861,3.284,197.691,197.691,0,0,0,12.695,15.207A122.848,122.848,0,0,0,331.8,277.6a214.164,214.164,0,0,0,19.105,13.383c4.849,2.979,9.895,5.649,14.622,8.826q.375.252.745.511c.117.083.754.552.541.387-.248-.191.356.3.436.37.519.444,1.028.9,1.53,1.365a56.411,56.411,0,0,1,4.9,5.11A80.215,80.215,0,0,1,381,318.278c1.582,2.65,5.734.239,4.145-2.423Z"/><path class="a" d="M276,203.159l-3.4-2.106c-2.564-1.587-5.228-3.274-6.75-5.876-2.223-3.8-1.344-8.984,1.628-12.235s7.325-5.183,11.393-3.5c1.991.825,6.382,4.412,8.447,6.508a19.932,19.932,0,0,1,5.241,8.424,8.856,8.856,0,0,1-2.1,8.772c-2.323,2.366-6.034,2.879-9.251,2.076A36.219,36.219,0,0,1,276,203.159Z"/><path class="b" d="M277.212,201.087c-3.924-2.428-10.066-5.031-10.209-10.413-.121-4.56,3.8-9.271,8.506-9.448,2.041-.076,3.507.956,5.117,2.136a42.365,42.365,0,0,1,4.809,4.105c3.2,3.182,7.206,8.952,3.868,13.377-2.9,3.848-8.648,2.206-12.091.243-2.688-1.533-5.109,2.613-2.423,4.145,4.734,2.7,11.319,4.16,16.053.71a10.988,10.988,0,0,0,4.475-9.177,17.51,17.51,0,0,0-4.112-9.99,36.7,36.7,0,0,0-6.307-6.141c-2.277-1.8-4.615-3.65-7.575-4.071-6.75-.961-13.559,4.56-14.832,11.109a12.413,12.413,0,0,0,2.674,10.629c2.53,3,6.337,4.9,9.624,6.931C277.424,206.861,279.837,202.711,277.212,201.087Z"/><path class="a" d="M329.243,101.757h-21.18v21.181h21.18Z"/><path class="b" d="M329.243,99.357h-21.18a2.435,2.435,0,0,0-2.4,2.4v21.181a2.435,2.435,0,0,0,2.4,2.4h21.18a2.435,2.435,0,0,0,2.4-2.4v-21.18c0-3.089-4.8-3.094-4.8,0v21.18l2.4-2.4h-21.18l2.4,2.4V101.756l-2.4,2.4h21.18C332.332,104.157,332.337,99.357,329.243,99.357Z"/><path class="b" d="M334.1,101.756v21.181c0,3.089,4.8,3.094,4.8,0V101.756c0-3.088-4.8-3.093-4.8,0Z"/><path class="b" d="M329.243,127.288h-21.18c-3.089,0-3.094,4.8,0,4.8h21.18c3.089,0,3.094-4.8,0-4.8Z"/><path class="b" d="M364.219,127.288H352.61a2.4,2.4,0,0,0,0,4.8h11.609a2.4,2.4,0,1,0,0-4.8Z"/><path class="b" d="M336.174,132.088h10.277l-2.4-2.4v10.277a2.435,2.435,0,0,0,2.4,2.4h10.276l-2.4-2.4v10.3c0,3.089,4.8,3.094,4.8,0v-10.3a2.435,2.435,0,0,0-2.4-2.4H346.451l2.4,2.4V129.688a2.435,2.435,0,0,0-2.4-2.4H336.174c-3.089,0-3.094,4.8,0,4.8Z"/><path class="b" d="M334.132,136.626v21.181a2.435,2.435,0,0,0,2.4,2.4h7c3.089,0,3.094-4.8,0-4.8h-7l2.4,2.4V136.626c0-3.089-4.8-3.094-4.8,0Z"/><path class="b" d="M350.169,160.207h14.05a2.435,2.435,0,0,0,2.4-2.4V142.985a2.4,2.4,0,0,0-4.8,0v14.822l2.4-2.4h-14.05a2.4,2.4,0,1,0,0,4.8Z"/><path class="b" d="M321.618,109.381h-5.93v5.931h5.93Z"/><path class="b" d="M321.618,106.981h-5.93a2.435,2.435,0,0,0-2.4,2.4v5.931a2.435,2.435,0,0,0,2.4,2.4h5.93a2.435,2.435,0,0,0,2.4-2.4v-5.931a2.475,2.475,0,0,0-.7-1.7,2.4,2.4,0,0,0-4.1,1.7v5.931l2.4-2.4h-5.93l2.4,2.4v-5.931l-2.4,2.4h5.93a2.474,2.474,0,0,0,1.7-.7,2.4,2.4,0,0,0-1.7-4.1Z"/><path class="a" d="M364.964,101.757h-21.18v21.181h21.18Z"/><path class="b" d="M364.964,99.357h-21.18a2.435,2.435,0,0,0-2.4,2.4v21.181a2.435,2.435,0,0,0,2.4,2.4h21.18a2.435,2.435,0,0,0,2.4-2.4v-21.18c0-3.089-4.8-3.094-4.8,0v21.18l2.4-2.4h-21.18l2.4,2.4V101.756l-2.4,2.4h21.18C368.053,104.157,368.058,99.357,364.964,99.357Z"/><path class="b" d="M357.339,109.381h-5.931v5.931h5.931Z"/><path class="b" d="M357.339,106.981h-5.931a2.435,2.435,0,0,0-2.4,2.4v5.931a2.435,2.435,0,0,0,2.4,2.4h5.931a2.435,2.435,0,0,0,2.4-2.4v-5.931a2.479,2.479,0,0,0-.7-1.7,2.4,2.4,0,0,0-4.1,1.7v5.931l2.4-2.4h-5.931l2.4,2.4v-5.931l-2.4,2.4h5.931a2.476,2.476,0,0,0,1.7-.7,2.4,2.4,0,0,0-1.7-4.1Z"/><path class="b" d="M349.809,147.173h-5.625v2.53h5.625Z"/><path class="b" d="M349.809,144.773h-5.625a2.407,2.407,0,0,0-2.4,2.4v2.53a2.407,2.407,0,0,0,2.4,2.4h5.625a2.407,2.407,0,0,0,2.4-2.4v-2.53a2.473,2.473,0,0,0-.7-1.7,2.4,2.4,0,0,0-4.1,1.7v2.53l2.4-2.4h-5.625l2.4,2.4v-2.53l-2.4,2.4h5.625a2.475,2.475,0,0,0,1.7-.7,2.4,2.4,0,0,0-1.7-4.1Z"/><path class="b" d="M356.727,129.784v3.359"/><path class="b" d="M354.327,129.784v3.359a2.475,2.475,0,0,0,.7,1.7,2.672,2.672,0,0,0,1.7.7,2.427,2.427,0,0,0,1.7-.7,2.494,2.494,0,0,0,.7-1.7v-3.359a2.477,2.477,0,0,0-.7-1.7,2.672,2.672,0,0,0-1.7-.7,2.427,2.427,0,0,0-1.7.7,2.5,2.5,0,0,0-.7,1.7Z"/><path class="b" d="M364.219,129.784v6.863"/><path class="b" d="M361.819,129.784v6.863a2.4,2.4,0,0,0,4.8,0v-6.863a2.4,2.4,0,0,0-4.8,0Z"/><path class="a" d="M329.243,136.626h-21.18v21.181h21.18Z"/><path class="b" d="M329.243,134.226h-21.18a2.435,2.435,0,0,0-2.4,2.4v21.181a2.435,2.435,0,0,0,2.4,2.4h21.18a2.435,2.435,0,0,0,2.4-2.4V136.626c0-3.088-4.8-3.093-4.8,0v21.181l2.4-2.4h-21.18l2.4,2.4V136.626l-2.4,2.4h21.18C332.332,139.026,332.337,134.226,329.243,134.226Z"/><path class="b" d="M321.618,144.251h-5.93v5.931h5.93Z"/><path class="b" d="M321.618,141.851h-5.93a2.435,2.435,0,0,0-2.4,2.4v5.931a2.435,2.435,0,0,0,2.4,2.4h5.93a2.435,2.435,0,0,0,2.4-2.4v-5.931a2.473,2.473,0,0,0-.7-1.7,2.4,2.4,0,0,0-4.1,1.7v5.931l2.4-2.4h-5.93l2.4,2.4v-5.931l-2.4,2.4h5.93a2.475,2.475,0,0,0,1.7-.7,2.4,2.4,0,0,0-1.7-4.1Z"/><path class="d" d="M375.632,103.983V93.063a2.435,2.435,0,0,0-2.4-2.4H361.711a2.4,2.4,0,0,0,0,4.8h11.521l-2.4-2.4v10.92a2.4,2.4,0,1,0,4.8,0Z"/><path class="d" d="M302.2,103.983V93.063l-2.4,2.4h11.521a2.4,2.4,0,1,0,0-4.8H299.8a2.435,2.435,0,0,0-2.4,2.4v10.92a2.4,2.4,0,1,0,4.8,0Z"/><path class="d" d="M370.832,155.58V166.5l2.4-2.4H361.711a2.4,2.4,0,0,0,0,4.8h11.521a2.435,2.435,0,0,0,2.4-2.4V155.58a2.4,2.4,0,1,0-4.8,0Z"/><path class="d" d="M297.4,155.58V166.5a2.435,2.435,0,0,0,2.4,2.4h11.521a2.4,2.4,0,1,0,0-4.8H299.8l2.4,2.4V155.58a2.4,2.4,0,1,0-4.8,0Z"/></svg>