<svg xmlns="http://www.w3.org/2000/svg" viewBox="0 0 32 32"><title>download android app aplication phone</title><g id="download_android_app_aplication_phone" data-name="download android app aplication phone"><path d="M30.56,8.47a8,8,0,0,0-7-7,64.29,64.29,0,0,0-15.06,0,8,8,0,0,0-7,7,64.29,64.29,0,0,0,0,15.06,8,8,0,0,0,7,7,64.29,64.29,0,0,0,15.06,0,8,8,0,0,0,7-7A64.29,64.29,0,0,0,30.56,8.47Zm-2,14.83a6,6,0,0,1-5.28,5.28,63.65,63.65,0,0,1-14.6,0A6,6,0,0,1,3.42,23.3a63.65,63.65,0,0,1,0-14.6A6,6,0,0,1,8.7,3.42a63.65,63.65,0,0,1,14.6,0A6,6,0,0,1,28.58,8.7,63.65,63.65,0,0,1,28.58,23.3Z"/><path d="M24,21a1,1,0,0,0-1,1v1a1,1,0,0,1-1,1H10a1,1,0,0,1-1-1V22a1,1,0,0,0-2,0v1a3,3,0,0,0,3,3H22a3,3,0,0,0,3-3V22A1,1,0,0,0,24,21Z"/><path d="M15.23,21.64a1,1,0,0,0,1.54,0l5-6A1,1,0,0,0,21,14H19V8a2,2,0,0,0-2-2H15a2,2,0,0,0-2,2v6H11a1,1,0,0,0-.77,1.64ZM14,16a1,1,0,0,0,1-1V8h2v7a1,1,0,0,0,1,1h.86L16,19.44,13.14,16Z"/></g></svg>