<?xml version="1.0" encoding="iso-8859-1"?>
<!-- Uploaded to: SVG Repo, www.svgrepo.com, Generator: SVG Repo Mixer Tools -->
<svg height="800px" width="800px" version="1.1" id="Layer_1" xmlns="http://www.w3.org/2000/svg" xmlns:xlink="http://www.w3.org/1999/xlink" 
	 viewBox="0 0 512 512" xml:space="preserve">
<g>
	<path style="fill:#2D2D2D;" d="M127.988,159.008V40.96h256v118.016c5.776,3.288,10.944,7.504,15.36,12.424V15.36
		c0-8.448-6.912-15.36-15.36-15.36h-256c-8.448,0-15.36,6.912-15.36,15.36v155.96C117.02,166.448,122.188,162.288,127.988,159.008z
		 M304.54,15.52c2.832,0,5.128,2.296,5.128,5.128s-2.296,5.128-5.128,5.128s-5.128-2.296-5.128-5.128S301.708,15.52,304.54,15.52z
		 M286.916,15.52c2.832,0,5.128,2.296,5.128,5.128s-2.296,5.128-5.128,5.128s-5.128-2.296-5.128-5.128S284.084,15.52,286.916,15.52z
		 M207.428,15.52h45.44c2.816,0,5.12,2.304,5.12,5.12s-2.304,5.12-5.12,5.12h-45.44c-2.816,0-5.12-2.304-5.12-5.12
		S204.612,15.52,207.428,15.52z"/>
	<path style="fill:#2D2D2D;" d="M383.988,265.544V450.56h-256V265.544c-5.776-3.288-10.944-7.504-15.36-12.424v243.52
		c0,8.448,6.912,15.36,15.36,15.36h256c8.448,0,15.36-6.912,15.36-15.36V253.12C394.932,258.04,389.764,262.248,383.988,265.544z
		 M286.708,481.28h-61.44c-2.816,0-5.12-2.304-5.12-5.12s2.304-5.12,5.12-5.12h61.44c2.816,0,5.12,2.304,5.12,5.12
		S289.524,481.28,286.708,481.28z"/>
</g>
<g>
	<path style="fill:#C9C9C9;" d="M286.708,471.04h-61.44c-2.816,0-5.12,2.304-5.12,5.12s2.304,5.12,5.12,5.12h61.44
		c2.816,0,5.12-2.304,5.12-5.12S289.524,471.04,286.708,471.04z"/>
	<path style="fill:#C9C9C9;" d="M207.428,25.76h45.44c2.816,0,5.12-2.304,5.12-5.12s-2.304-5.12-5.12-5.12h-45.44
		c-2.816,0-5.12,2.304-5.12,5.12S204.612,25.76,207.428,25.76z"/>
	<circle style="fill:#C9C9C9;" cx="286.916" cy="20.648" r="5.128"/>
	<circle style="fill:#C9C9C9;" cx="304.548" cy="20.648" r="5.128"/>
</g>
<g>
	<path style="fill:#8AD5DD;" d="M127.988,40.96v118.048c5-2.824,10.424-5.024,16.232-6.384c-0.08-1.472-0.128-2.944-0.128-4.432
		c0-43.104,35.072-78.168,78.176-78.168c31.832,0,60.44,19.44,72.352,48.744c3.928-1.024,7.928-1.536,11.936-1.536
		c21.176,0,39.52,13.712,45.664,33.712h1.528c10.992,0,21.296,2.944,30.232,8.032V40.96H127.988z"/>
	<path style="fill:#8AD5DD;" d="M272.212,273.576v78.816l36.088-36.8l24.024,23.44l-76.952,78.456l-76.944-78.456l24.024-23.44
		l36.088,36.8v-78.816h-80.328c-10.992,0-21.296-2.944-30.232-8.032V450.56h256V265.544c-8.936,5.088-19.232,8.032-30.232,8.032
		L272.212,273.576L272.212,273.576z"/>
</g>
<path style="fill:#DB2B42;" d="M104.9,212.264c0,29.4,23.92,53.312,53.32,53.312h195.544c29.4,0,53.32-23.912,53.32-53.312
	s-23.92-53.32-53.32-53.32h-7.752l-0.728-3.08c-4.272-18.04-20.192-30.632-38.72-30.632c-4.392,0-8.776,0.752-13.04,2.232
	l-3.768,1.304l-1.32-3.768c-9.848-28.096-36.44-46.976-66.168-46.976c-38.696,0-70.176,31.48-70.176,70.168
	c0,2.448,0.128,4.856,0.368,7.24l0.376,3.704l-3.672,0.64C123.516,164.216,104.9,186.288,104.9,212.264z"/>
<path style="fill:#FFFFFF;" d="M127.988,265.544c8.936,5.088,19.232,8.032,30.232,8.032h80.328v78.816l-36.088-36.8l-24.024,23.44
	l76.944,78.456l76.952-78.456l-24.024-23.44l-36.088,36.8v-78.816h81.552c10.992,0,21.296-2.944,30.232-8.032
	c5.776-3.288,10.944-7.504,15.36-12.416c9.744-10.856,15.728-25.16,15.728-40.856c0-15.704-5.984-30.008-15.728-40.864
	c-4.416-4.92-9.584-9.128-15.36-12.424c-8.936-5.088-19.232-8.032-30.232-8.032h-1.544c-6.144-20-24.488-33.712-45.664-33.712
	c-4.008,0-8.008,0.512-11.936,1.536c-11.912-29.304-40.52-48.744-72.352-48.744c-43.104,0-78.176,35.072-78.176,78.168
	c0,1.488,0.04,2.96,0.128,4.432c-5.808,1.36-11.24,3.552-16.232,6.384c-5.8,3.28-10.968,7.44-15.36,12.312
	c-9.832,10.912-15.728,25.296-15.728,40.944c0,15.704,5.984,30,15.728,40.856C117.044,258.04,122.212,262.248,127.988,265.544z
	 M149.172,159.784l3.672-0.64l-0.376-3.704c-0.24-2.384-0.368-4.8-0.368-7.24c0-38.696,31.48-70.168,70.176-70.168
	c29.72,0,56.312,18.88,66.168,46.976l1.32,3.768l3.768-1.304c4.264-1.488,8.648-2.232,13.04-2.232
	c18.52,0,34.448,12.592,38.72,30.632l0.728,3.08h7.752c29.4,0,53.32,23.92,53.32,53.32s-23.92,53.312-53.32,53.312h-195.56
	c-29.4,0-53.32-23.912-53.32-53.312C104.9,186.288,123.516,164.216,149.172,159.784z"/>
</svg>