<?xml version="1.0" encoding="utf-8"?>
<!-- Uploaded to: SVG Repo, www.svgrepo.com, Generator: SVG Repo Mixer Tools -->
<svg width="800px" height="800px" viewBox="0 0 1024 1024" class="icon"  version="1.1" xmlns="http://www.w3.org/2000/svg"><path d="M845.228598 582.198602v205.721087c0 23.063017-14.826883 38.987505-37.8899 38.987505H220.287904c-23.063017 0-44.679284-15.925512-44.679284-38.987505V582.198602h259.042987v79.924488c0 3.774041 5.501336 4.034108 9.275377 4.034108h139.774681c3.774041 0 3.508855-0.261091 3.508855-4.034108v-79.924488h258.018078z" fill="#E0E0E0" /><path d="M863.24898 225.886509h-169.55541v-66.950838c0-19.26645-13.851121-37.485466-33.117571-37.485465h-18.076695V110.01443c0-19.26645-11.577071-36.686835-30.844545-36.686835H415.971843c-19.26645 0-37.633929 17.420385-37.633929 36.686835v11.435776h-11.286288c-19.26645 0-38.884093 18.217992-38.884093 37.485465v66.950838H164.377622c-53.950566 0-101.397411 46.827395-101.397412 100.777961v517.164477c0 53.950566 47.446846 95.705633 101.397412 95.705633h698.871358c53.950566 0 94.607004-41.755067 94.607004-95.705633v-517.164477c0-53.950566-40.656438-100.777961-94.607004-100.777961z m-246.346809-61.25394a6.989041 6.989041 0 0 1-6.989041 6.989041H412.970835a6.989041 6.989041 0 0 1-6.989041-6.989041V106.937655a6.989041 6.989041 0 0 1 6.989041-6.989041h196.943319a6.989041 6.989041 0 0 1 6.989041 6.989041v57.694914z m312.285024 679.197402c0 38.533924-27.405315 68.060729-65.938215 68.060729H164.377622c-38.533924 0-74.776393-29.526805-74.776393-68.060729V596.532996h316.380565v65.590094c0 19.288976 18.655191 32.702897 37.944166 32.702897h139.774682c19.288976 0 31.153759-13.414946 31.153758-32.702897v-65.590094h314.332795v247.296975z m-341.977698-199.174364v17.467483c0 3.774041 0.265186 4.034108-3.508855 4.034108H443.92596c-3.774041 0-9.275377-0.261091-9.275377-4.034108v-17.467483h152.558914z m-152.558914-26.621019v-67.731038c0-3.774041 5.501336-10.084247 9.275377-10.084247h139.774682c3.774041 0 3.508855 6.310205 3.508855 10.084247v67.731038h-152.558914z m494.536612-49.146495h-314.332795v-18.584543c0-19.288976-11.864783-36.705265-31.153758-36.705265H443.92596c-19.288976 0-37.944166 17.416289-37.944166 36.705265v18.584543h-316.380565V326.66447c0-38.533924 36.243493-71.085286 74.776393-71.085287h241.604172v-29.692674h-49.146496v-66.950838c0-3.787352 6.426928-10.864447 10.215304-10.864447h11.286288v17.852465c0 19.26645 18.367479 32.317916 37.633929 32.317916h195.68394c19.26645 0 30.844545-13.050442 30.844545-32.317916v-17.852465h18.076695c3.787352 0 3.424896 7.076071 3.424897 10.864447v66.950838h-153.582799v29.692674h352.830883c38.533924 0 65.938215 32.551362 65.938215 71.085287v242.223623z" fill="#262626" /><path d="M202.228614 483.905611h-26.621018v-87.353801c0-30.828163 27.829203-58.037916 58.657366-58.037916h86.73435v26.621019h-86.73435c-15.417665 0-32.036348 15.999232-32.036348 31.416897v87.353801zM405.981794 338.513894h104.436303v26.621019h-104.436303z" fill="#FF4C48" /></svg>