<?xml version="1.0" encoding="iso-8859-1"?>
<!-- Uploaded to: SVG Repo, www.svgrepo.com, Generator: SVG Repo Mixer Tools -->
<svg height="800px" width="800px" version="1.1" id="Capa_1" xmlns="http://www.w3.org/2000/svg" xmlns:xlink="http://www.w3.org/1999/xlink" 
	 viewBox="0 0 512 512" xml:space="preserve">
<g>
	<g>
		<g>
			<path style="fill:#5C546A;" d="M40.008,240c-2.445,0-4.859-1.117-6.43-3.227c-2.633-3.547-1.898-8.555,1.648-11.195l200-148.742
				c3.531-2.641,8.563-1.891,11.195,1.648c2.633,3.547,1.898,8.555-1.648,11.195l-200,148.742C43.344,239.484,41.664,240,40.008,240
				z"/>
		</g>
	</g>
	<g>
		<g>
			<path style="fill:#5C546A;" d="M471.992,240c-1.656,0-3.336-0.516-4.766-1.578l-200-148.742
				c-3.547-2.641-4.281-7.648-1.648-11.195c2.633-3.531,7.656-4.273,11.195-1.648l200,148.742c3.547,2.641,4.281,7.648,1.648,11.195
				C476.852,238.883,474.438,240,471.992,240z"/>
		</g>
	</g>
	<g>
		<path style="fill:#FF4F19;" d="M480,464H32c-17.673,0-32-14.327-32-32V256c0-17.673,14.327-32,32-32h448c17.673,0,32,14.327,32,32
			v176C512,449.673,497.673,464,480,464z"/>
	</g>
	<g>
		<circle style="fill:#8A8895;" cx="256" cy="72" r="24"/>
	</g>
	<g>
		<path style="fill:#FFD100;" d="M472,432H40c-4.418,0-8-3.582-8-8V264c0-4.418,3.582-8,8-8h432c4.418,0,8,3.582,8,8v160
			C480,428.418,476.418,432,472,432z"/>
	</g>
	<g>
		<g>
			<path style="fill:#5C546A;" d="M128,288c-26.469,0-48,25.125-48,56s21.531,56,48,56s48-25.125,48-56S154.469,288,128,288z
				 M128,384c-17.648,0-32-17.945-32-40s14.352-40,32-40s32,17.945,32,40S145.648,384,128,384z"/>
		</g>
		<g>
			<path style="fill:#5C546A;" d="M216,288h-24c-4.422,0-8,3.578-8,8v96c0,4.422,3.578,8,8,8s8-3.578,8-8v-16h16
				c22.055,0,40-19.742,40-44S238.055,288,216,288z M216,360h-16v-56h16c13.234,0,24,12.563,24,28S229.234,360,216,360z"/>
		</g>
		<g>
			<path style="fill:#5C546A;" d="M320,304c4.422,0,8-3.578,8-8s-3.578-8-8-8h-48c-4.422,0-8,3.578-8,8v96c0,4.422,3.578,8,8,8h48
				c4.422,0,8-3.578,8-8s-3.578-8-8-8h-40v-32h16c4.422,0,8-3.578,8-8s-3.578-8-8-8h-16v-32H320z"/>
		</g>
		<g>
			<path style="fill:#5C546A;" d="M407.805,392.968c0.042-0.332,0.195-0.625,0.195-0.968v-96c0-4.422-3.578-8-8-8s-8,3.578-8,8
				v66.402l-41.086-70.433c-0.17-0.291-0.446-0.461-0.646-0.722c-0.343-0.452-0.682-0.874-1.112-1.244
				c-0.371-0.317-0.764-0.554-1.18-0.795c-0.469-0.276-0.929-0.523-1.454-0.7c-0.49-0.164-0.979-0.232-1.491-0.3
				C344.678,288.161,344.366,288,344,288c-0.185,0-0.339,0.093-0.521,0.105c-0.51,0.032-0.991,0.17-1.494,0.301
				c-0.537,0.143-1.057,0.274-1.543,0.52c-0.153,0.076-0.323,0.073-0.473,0.16c-0.295,0.172-0.469,0.452-0.734,0.654
				c-0.442,0.337-0.857,0.667-1.22,1.087c-0.335,0.388-0.584,0.802-0.835,1.24c-0.258,0.446-0.494,0.879-0.663,1.375
				c-0.178,0.521-0.252,1.042-0.321,1.59C336.153,295.364,336,295.657,336,296v96c0,4.422,3.578,8,8,8s8-3.578,8-8v-66.402
				l41.086,70.433c0.326,0.557,0.73,1.036,1.158,1.481c0.049,0.052,0.081,0.118,0.131,0.168c0.655,0.648,1.423,1.125,2.235,1.506
				c0.211,0.1,0.421,0.178,0.642,0.259c0.88,0.324,1.792,0.548,2.734,0.551c0.005,0,0.009,0.003,0.014,0.003l0.003,0
				c0.001,0,0.003,0,0.003,0c0.925,0,1.844-0.224,2.744-0.555c0.23-0.085,0.446-0.171,0.666-0.276
				c0.203-0.096,0.418-0.141,0.615-0.255c0.295-0.172,0.47-0.452,0.735-0.655c0.441-0.336,0.856-0.666,1.218-1.085
				c0.335-0.389,0.586-0.803,0.837-1.242c0.258-0.446,0.494-0.879,0.663-1.375C407.662,394.036,407.737,393.515,407.805,392.968z"/>
		</g>
	</g>
</g>
</svg>