<?xml version="1.0" encoding="iso-8859-1"?>
<!-- Uploaded to: SVG Repo, www.svgrepo.com, Generator: SVG Repo Mixer Tools -->
<svg height="800px" width="800px" version="1.1" id="Layer_1" xmlns="http://www.w3.org/2000/svg" xmlns:xlink="http://www.w3.org/1999/xlink" 
	 viewBox="0 0 512 512" xml:space="preserve">
<g transform="translate(1 1)">
	<polygon style="fill:#FFDD09;" points="11.8,502.467 301.933,502.467 301.933,468.333 11.8,468.333 	"/>
	<polygon style="fill:#FFFFFF;" points="11.8,502.467 37.4,502.467 37.4,468.333 11.8,468.333 	"/>
	<polygon style="fill:#FD9808;" points="276.333,502.467 301.933,502.467 301.933,468.333 276.333,468.333 	"/>
	<g>
		<path style="fill:#FFDD09;" d="M378.733,102.253L378.733,102.253c0,4.267,2.56,7.68,6.827,8.533
			c27.307,7.68,61.44,58.027,61.44,84.48V398.36c0,22.187-16.213,41.813-38.4,44.373c-25.6,2.56-46.933-17.92-46.933-42.667V237.933
			c0-42.667-34.133-76.8-76.8-76.8v34.133c23.893,0,42.667,18.773,42.667,42.667v159.573c0,40.96,30.72,76.8,71.68,79.36
			c44.373,3.413,81.92-32.427,81.92-76.8v-204.8H498.2c0-43.52-64-94.72-109.227-101.547
			C383.853,92.867,378.733,97.133,378.733,102.253"/>
		<polygon style="fill:#FFDD09;" points="28.867,468.333 284.867,468.333 284.867,7.533 28.867,7.533 		"/>
	</g>
	<polygon style="fill:#FD9808;" points="259.267,468.333 284.867,468.333 284.867,7.533 259.267,7.533 	"/>
	<polygon style="fill:#FFFFFF;" points="28.867,468.333 54.467,468.333 54.467,7.533 28.867,7.533 	"/>
	<g>
		<polygon style="fill:#1CD759;" points="71.533,408.6 242.2,408.6 242.2,237.933 71.533,237.933 		"/>
		<polygon style="fill:#1CD759;" points="216.6,408.6 242.2,408.6 242.2,237.933 216.6,237.933 		"/>
	</g>
	<polygon style="fill:#54C9FD;" points="71.533,169.667 242.2,169.667 242.2,50.2 71.533,50.2 	"/>
	<polygon style="fill:#33A9F8;" points="216.6,169.667 242.2,169.667 242.2,50.2 216.6,50.2 	"/>
	<path d="M301.933,511H11.8c-5.12,0-8.533-3.413-8.533-8.533v-34.133c0-5.12,3.413-8.533,8.533-8.533h290.133
		c5.12,0,8.533,3.413,8.533,8.533v34.133C310.467,507.587,307.053,511,301.933,511z M20.333,493.933H293.4v-17.067H20.333V493.933z"
		/>
	<path d="M284.867,476.867h-256c-5.12,0-8.533-3.413-8.533-8.533V7.533c0-5.12,3.413-8.533,8.533-8.533h256
		c5.12,0,8.533,3.413,8.533,8.533v460.8C293.4,473.453,289.987,476.867,284.867,476.867z M37.4,459.8h238.933V16.067H37.4V459.8z"/>
	<path d="M242.2,178.2H71.533c-5.12,0-8.533-3.413-8.533-8.533V50.2c0-5.12,3.413-8.533,8.533-8.533H242.2
		c5.12,0,8.533,3.413,8.533,8.533v119.467C250.733,174.787,247.32,178.2,242.2,178.2z M80.067,161.133h153.6v-102.4h-153.6V161.133z
		"/>
	<path d="M242.2,417.133H71.533c-5.12,0-8.533-3.413-8.533-8.533V237.933c0-5.12,3.413-8.533,8.533-8.533H242.2
		c5.12,0,8.533,3.413,8.533,8.533V408.6C250.733,413.72,247.32,417.133,242.2,417.133z M80.067,400.067h153.6v-153.6h-153.6V400.067
		z"/>
	<path d="M404.333,485.4c-1.707,0-4.267,0-5.973,0c-44.373-3.413-79.36-41.813-79.36-87.893V237.933
		c0-18.773-15.36-34.133-34.133-34.133c-5.12,0-8.533-3.413-8.533-8.533v-34.133c0-5.12,3.413-8.533,8.533-8.533
		c46.933,0,85.333,38.4,85.333,85.333v162.133c0,9.387,4.267,18.773,11.093,25.6s16.213,9.387,26.453,8.533
		c17.067-1.707,30.72-17.067,30.72-35.84V195.267c0-22.187-31.573-69.12-55.467-75.947c-7.68-2.56-12.8-8.533-12.8-17.067
		c0-5.12,2.56-10.24,5.973-13.653c3.413-3.413,8.533-5.12,13.653-4.267c51.2,8.533,116.907,63.147,116.907,110.933
		c0,5.12-3.413,8.533-8.533,8.533h-8.533v196.267c0,23.893-10.24,46.08-27.307,62.293C447,477.72,426.52,485.4,404.333,485.4z
		 M293.4,187.587c23.893,4.267,42.667,24.747,42.667,50.347v159.573c0,37.547,28.16,68.267,64,70.827
		c19.627,1.707,37.547-5.12,51.2-17.92c13.653-12.8,21.333-30.72,21.333-49.493V195.267c0-5.12,3.413-8.533,8.533-8.533h7.68
		c-7.68-36.693-61.44-78.507-101.547-84.48l0,0h-8.533h8.533c31.573,9.387,68.267,64,68.267,93.013V398.36
		c0,27.307-20.48,50.347-46.08,52.907c-14.507,1.707-29.013-3.413-39.253-12.8c-11.093-9.387-17.067-23.893-17.067-37.547V237.933
		c0-34.987-26.453-63.147-59.733-67.413V187.587z"/>
	<path d="M199.533,289.133H114.2c-5.12,0-8.533-3.413-8.533-8.533c0-5.12,3.413-8.533,8.533-8.533h85.333
		c5.12,0,8.533,3.413,8.533,8.533S204.653,289.133,199.533,289.133z"/>
	<path d="M199.533,331.8H114.2c-5.12,0-8.533-3.413-8.533-8.533c0-5.12,3.413-8.533,8.533-8.533h85.333
		c5.12,0,8.533,3.413,8.533,8.533C208.067,328.387,204.653,331.8,199.533,331.8z"/>
	<path d="M199.533,374.467H114.2c-5.12,0-8.533-3.413-8.533-8.533s3.413-8.533,8.533-8.533h85.333c5.12,0,8.533,3.413,8.533,8.533
		S204.653,374.467,199.533,374.467z"/>
</g>
</svg>