<?xml version="1.0" encoding="iso-8859-1"?>
<!-- Uploaded to: SVG Repo, www.svgrepo.com, Generator: SVG Repo Mixer Tools -->
<svg height="800px" width="800px" version="1.1" id="Layer_1" xmlns="http://www.w3.org/2000/svg" xmlns:xlink="http://www.w3.org/1999/xlink" 
	 viewBox="0 0 512 512" xml:space="preserve">
<g transform="translate(1 1)">
	<path style="fill:#FDCC00;" d="M319.35,502.467H96.826c-13.952,0-25.267-11.315-25.267-25.276V32.809
		c0-13.96,11.315-25.276,25.267-25.276H319.35c13.961,0,25.276,11.315,25.276,25.276v444.382
		C344.626,491.152,333.31,502.467,319.35,502.467"/>
	<polygon style="fill:#FFE100;" points="71.533,434.132 344.6,434.132 344.6,58.665 71.533,58.665 	"/>
	<path style="fill:#FFA800;" d="M319.401,7.533h-25.6c13.961,0,25.276,11.315,25.276,25.276v444.382
		c0,13.96-11.315,25.276-25.276,25.276h25.6c13.961,0,25.276-11.315,25.276-25.276V32.809
		C344.677,18.848,333.362,7.533,319.401,7.533"/>
	<polygon style="fill:#00DA6C;" points="447,272.067 302.198,272.067 285.131,314.733 268.065,272.067 242.2,272.067 242.2,101.4 
		447,101.4 	"/>
	<g>
		<polygon style="fill:#63D3FD;" points="284.867,229.4 404.333,229.4 404.333,144.067 284.867,144.067 		"/>
		<polyline style="fill:#63D3FD;" points="404.333,144.067 344.6,186.733 284.867,144.067 		"/>
	</g>
	<polygon style="fill:#00AD55;" points="421.4,272.067 447,272.067 447,101.4 421.4,101.4 	"/>
	<path style="fill:#FFE100;" d="M233.871,468.333c0,14.14-11.46,25.6-25.6,25.6s-25.6-11.46-25.6-25.6c0-14.14,11.46-25.6,25.6-25.6
		S233.871,454.194,233.871,468.333"/>
	<path style="fill:#FFFFFF;" d="M96.852,7.533h25.6c-13.96,0-25.276,11.315-25.276,25.276v444.382
		c0,13.96,11.315,25.276,25.276,25.276h-25.6c-13.96,0-25.276-11.315-25.276-25.276V32.809C71.576,18.848,82.9,7.533,96.852,7.533"
		/>
	<path d="M242.2,41.667h-42.667c-4.71,0-8.533-3.823-8.533-8.533s3.823-8.533,8.533-8.533H242.2c4.71,0,8.533,3.823,8.533,8.533
		S246.91,41.667,242.2,41.667z"/>
	<path d="M173.933,41.667H165.4c-4.71,0-8.533-3.823-8.533-8.533S160.69,24.6,165.4,24.6h8.533c4.71,0,8.533,3.823,8.533,8.533
		S178.644,41.667,173.933,41.667z"/>
	<path d="M63,101.4c-4.71,0-8.533-3.823-8.533-8.533v-8.533c0-4.71,3.823-8.533,8.533-8.533s8.533,3.823,8.533,8.533v8.533
		C71.533,97.577,67.71,101.4,63,101.4z"/>
	<path d="M63,135.533c-4.71,0-8.533-3.823-8.533-8.533v-8.533c0-4.71,3.823-8.533,8.533-8.533s8.533,3.823,8.533,8.533V127
		C71.533,131.71,67.71,135.533,63,135.533z"/>
	<path d="M63,169.667c-4.71,0-8.533-3.823-8.533-8.533V152.6c0-4.71,3.823-8.533,8.533-8.533s8.533,3.823,8.533,8.533v8.533
		C71.533,165.844,67.71,169.667,63,169.667z"/>
	<path d="M208.067,502.467c-18.824,0-34.133-15.309-34.133-34.133c0-18.824,15.309-34.133,34.133-34.133
		s34.133,15.309,34.133,34.133C242.2,487.158,226.891,502.467,208.067,502.467z M208.067,451.267
		c-9.412,0-17.067,7.654-17.067,17.067c0,9.412,7.654,17.067,17.067,17.067c9.412,0,17.067-7.654,17.067-17.067
		C225.133,458.921,217.479,451.267,208.067,451.267z"/>
	<path d="M285.131,323.267c-3.49,0-6.622-2.125-7.927-5.367L262.288,280.6H242.2c-4.71,0-8.533-3.814-8.533-8.533V101.4
		c0-4.71,3.823-8.533,8.533-8.533H447c4.719,0,8.533,3.823,8.533,8.533v170.667c0,4.719-3.814,8.533-8.533,8.533H307.975
		l-14.916,37.299C291.762,321.142,288.621,323.267,285.131,323.267z M250.733,263.533h17.331c3.49,0,6.622,2.125,7.927,5.367
		l9.139,22.861l9.139-22.861c1.297-3.243,4.437-5.367,7.927-5.367h136.269v-153.6H250.733V263.533z"/>
	<path d="M319.324,511H96.809C78.164,511,63,495.836,63,477.191V32.809C63,14.164,78.164-1,96.809-1h222.515
		c18.645,0,33.809,15.164,33.809,33.809V101.4c0,4.71-3.814,8.533-8.533,8.533h-93.867v153.6h17.331c3.49,0,6.622,2.125,7.927,5.367
		l9.139,22.861l9.139-22.861c1.297-3.243,4.437-5.367,7.927-5.367H344.6c4.719,0,8.533,3.814,8.533,8.533v205.124
		C353.133,495.836,337.97,511,319.324,511z M96.809,16.067c-9.233,0-16.742,7.509-16.742,16.742v444.382
		c0,9.233,7.509,16.742,16.742,16.742h222.515c9.233,0,16.742-7.509,16.742-16.742V280.6h-28.092l-14.916,37.299
		c-1.297,3.243-4.437,5.367-7.927,5.367c-3.49,0-6.622-2.125-7.927-5.367L262.288,280.6H242.2c-4.71,0-8.533-3.814-8.533-8.533
		V101.4c0-4.71,3.823-8.533,8.533-8.533h93.867V32.809c0-9.233-7.509-16.742-16.742-16.742H96.809z"/>
	<path d="M344.6,442.733H71.533c-4.71,0-8.533-3.814-8.533-8.533V58.733c0-4.71,3.823-8.533,8.533-8.533H344.6
		c4.719,0,8.533,3.823,8.533,8.533V101.4c0,4.71-3.814,8.533-8.533,8.533h-93.867v153.6h17.331c3.49,0,6.622,2.125,7.927,5.367
		l9.139,22.861l9.139-22.861c1.297-3.243,4.437-5.367,7.927-5.367H344.6c4.719,0,8.533,3.814,8.533,8.533V434.2
		C353.133,438.919,349.319,442.733,344.6,442.733z M80.067,425.667h256V280.6h-28.092l-14.916,37.299
		c-1.297,3.243-4.437,5.367-7.927,5.367c-3.49,0-6.622-2.125-7.927-5.367L262.288,280.6H242.2c-4.71,0-8.533-3.814-8.533-8.533
		V101.4c0-4.71,3.823-8.533,8.533-8.533h93.867v-25.6h-256V425.667z"/>
	<path d="M404.333,237.933H284.867c-4.719,0-8.533-3.823-8.533-8.533v-85.333c0-4.71,3.814-8.533,8.533-8.533h119.467
		c4.719,0,8.533,3.823,8.533,8.533V229.4C412.867,234.11,409.052,237.933,404.333,237.933z M293.4,220.867h102.4V152.6H293.4
		V220.867z"/>
	<path d="M344.6,195.267c-1.741,0-3.473-0.529-4.958-1.587l-59.733-42.667c-3.832-2.739-4.727-8.073-1.98-11.904
		c2.739-3.84,8.073-4.719,11.904-1.988l54.776,39.125l54.776-39.125c3.823-2.739,9.165-1.852,11.904,1.988
		c2.739,3.832,1.852,9.165-1.98,11.904l-59.733,42.667C348.073,194.738,346.341,195.267,344.6,195.267z"/>
</g>
</svg>