<?xml version="1.0" encoding="utf-8"?>
<!-- Uploaded to: SVG Repo, www.svgrepo.com, Generator: SVG Repo Mixer Tools -->
<svg width="800px" height="800px" viewBox="-7.05 0 315.361 315.361" xmlns="http://www.w3.org/2000/svg"><defs><style>.a{fill:#ffffff;}.b{fill:#b5886a;}.c{fill:#211715;}.d{fill:#ffda71;}.e{fill:#f4b467;}</style></defs><path class="a" d="M113.95,186.176c-10.294-1.46-19.747-8.015-27.549-17.353a56.391,56.391,0,0,1-10.908-21.7l-.615.154c-3.282.82-5.866-.831-7.695-2.291a20.9,20.9,0,0,1-5.409-7.1,32.91,32.91,0,0,1-3.356-17.445,10.971,10.971,0,0,1,1.15-4.418,7.767,7.767,0,0,1,5.585-3.714,8.229,8.229,0,0,1,6.582,1.926S76.056,71.2,126.13,71.2s56.01,43.035,56.01,43.035a8.229,8.229,0,0,1,6.582-1.926,7.767,7.767,0,0,1,5.585,3.714,10.971,10.971,0,0,1,1.15,4.418A32.91,32.91,0,0,1,192.1,137.89a20.917,20.917,0,0,1-5.409,7.1c-1.787,1.426-4.92,1.425-7.283,1.765-.576,2.452-1.342,4.586-1.686,5.631-2.125,5.767-15.341,28.209-31,31.689Z"/><path class="b" d="M55.839,141.914q.228-.7.525-1.376a12.4,12.4,0,0,1,4.267-5.211q.516,1.3,1.143,2.563a20.9,20.9,0,0,0,5.409,7.1c1.829,1.46,4.413,3.111,7.695,2.291l.614-.157a56.4,56.4,0,0,0,10.909,21.7q1.746,2.09,3.6,3.985c-2.035,5.775-7.226,11.336-12.5,14.507-4.122,2.477-8.365,4.115-13.512,3.5-.931-.111-1.909-.169-2.343-1-.626-1.2,1.34-3.4,2.458-5.554,1.327-2.552.529-6.68-.417-9.4a60.654,60.654,0,0,0-3.843-7.715,44.578,44.578,0,0,1-4.658-15.2A23.585,23.585,0,0,1,55.839,141.914Z"/><path class="b" d="M191.642,82.3c1.428,9.758,2.233,23.436-1.555,32.174a6.91,6.91,0,0,0-1.365-.343,8.132,8.132,0,0,0-7.038,2.378c-8.189-2.6-17-14.693-20.179-20.128-2.345-4.015-5.536-13.2-7.468-20-9.162,11.518-24.316,18.9-40.127,22.563-3.787.918-.781-8.012.065-13.262-9.841,8.462-29.864,21.332-40.988,30.11a7.834,7.834,0,0,0-7.661-3.5c-.933-4.564-1.922-9.405-1.922-9.405C62,96.8,61.809,83.751,63.359,76.127c5.721-28.272,33.976-50.713,63.607-49.073,29.63-1.64,57.885,20.8,63.606,49.073C190.928,77.883,191.3,79.979,191.642,82.3Z"/><path class="c" d="M57.361,134.926c-5.23,5.315-5.347,13-4.166,19.92a46.548,46.548,0,0,0,3.21,10.626c1.362,3.154,3.333,6.013,4.647,9.183.947,2.285,1.956,5.616,1.1,8.064-.888,2.541-3.834,4.752-2.824,7.735,1.164,3.436,6.422,3.081,9.266,2.718a25.109,25.109,0,0,0,9.051-3.167A32.419,32.419,0,0,0,92.262,173.6a2.42,2.42,0,0,0-1.676-2.952,2.452,2.452,0,0,0-2.953,1.676c-1.919,5.13-6.113,9.592-10.679,12.509a24.292,24.292,0,0,1-7.232,3.285,15,15,0,0,1-3.794.429,14.17,14.17,0,0,1-1.942-.127c.05.007-.767-.093-.72-.144a.913.913,0,0,1,.615.971q-.028.548.081,0a33.109,33.109,0,0,0,1.812-3.053,10.059,10.059,0,0,0,1.365-4.18A18.565,18.565,0,0,0,66,174.228a65.62,65.62,0,0,0-4.086-8.288,41.89,41.89,0,0,1-3.327-8.8c-1.544-6-2.608-13.967,2.169-18.822,2.169-2.2-1.223-5.6-3.394-3.4Z"/><path class="c" d="M183.837,115.936c2.466-2.106,6.779-1.634,8.4,1.3.886,1.607.907,3.653.937,5.443a29.547,29.547,0,0,1-.589,6.487,28.205,28.205,0,0,1-4.858,11.329c-.977,1.282-2.171,2.723-3.773,3.178a40.534,40.534,0,0,1-5.348.789,2.417,2.417,0,0,0-1.677,2.953,2.464,2.464,0,0,0,2.953,1.676c1.666-.24,3.363-.295,5-.7a10.164,10.164,0,0,0,4.884-2.962A28.566,28.566,0,0,0,196,134.777a34.869,34.869,0,0,0,1.957-12.544c-.127-4.222-1.04-8.259-4.757-10.728a10.682,10.682,0,0,0-12.761,1.037,2.42,2.42,0,0,0,0,3.394,2.448,2.448,0,0,0,3.394,0Z"/><path class="c" d="M177.758,141.554a28.388,28.388,0,0,1-1.412,7.325c-.255.835-.53,1.664-.811,2.49-.068.2-.138.4-.208.595-.254.721.119-.225-.092.229A64.532,64.532,0,0,1,171.544,159a67.464,67.464,0,0,1-14.677,17.223,27.06,27.06,0,0,1-10.783,5.536c-3.009.692-1.736,5.321,1.276,4.629,8.213-1.887,15.043-7.907,20.4-14.135a74.159,74.159,0,0,0,11.462-17.293,36.084,36.084,0,0,0,3.333-13.407c.1-3.089-4.7-3.086-4.8,0Z"/><path class="c" d="M73.432,112.542A10.757,10.757,0,0,0,61.8,110.878c-4.046,1.884-5.5,5.823-5.815,10.013-.62,8.357,1.955,17.833,7.7,24.095,3.057,3.334,7.234,5.619,11.835,4.608,3.016-.663,1.74-5.291-1.276-4.629-3.259.717-6.273-2.083-8.09-4.467a28.32,28.32,0,0,1-4.9-11.55,29.542,29.542,0,0,1-.545-6.267c.03-1.839.059-3.97,1.027-5.594,1.678-2.818,5.9-3.212,8.308-1.151a2.462,2.462,0,0,0,3.394,0,2.421,2.421,0,0,0,0-3.394Z"/><path class="c" d="M70.806,134.847a78.038,78.038,0,0,0,6.365,23.859,58.211,58.211,0,0,0,20.859,23.82,38.889,38.889,0,0,0,15.282,5.964,2.48,2.48,0,0,0,2.953-1.676,2.419,2.419,0,0,0-1.677-2.953c-9.324-1.378-17.261-6.792-23.635-13.523a55.293,55.293,0,0,1-13.335-24.569q-.778-3.029-1.308-6.112-.243-1.393-.441-2.8c-.1-.678-.144-1.04-.263-2.014a2.475,2.475,0,0,0-2.4-2.4,2.414,2.414,0,0,0-2.4,2.4Z"/><path class="c" d="M65.72,102.241a51.623,51.623,0,0,1-1.01-9.911,87.721,87.721,0,0,1,.42-12.053A52.086,52.086,0,0,1,72.141,59.91,62.781,62.781,0,0,1,106.475,32.2a56.2,56.2,0,0,1,10.812-2.442c3.891-.458,7.762-.3,11.664-.38a57.168,57.168,0,0,1,22.181,4.149,62.66,62.66,0,0,1,32.5,29.779,64.639,64.639,0,0,1,5.776,20.172c1.083,7.653,1.667,15.782.331,23.438a34.4,34.4,0,0,1-1.354,5.327c-1.011,2.926,3.624,4.183,4.628,1.276,2.72-7.872,2.542-16.718,1.786-24.906-.692-7.505-1.832-15.138-4.576-22.194a66.845,66.845,0,0,0-32.057-34.949,63.934,63.934,0,0,0-23.3-6.694,56.375,56.375,0,0,0-6.1-.2c-2.045.047-4.084-.046-6.129,0A60.921,60.921,0,0,0,110.508,26.1,67.593,67.593,0,0,0,71.052,52.763a60.287,60.287,0,0,0-9.791,21.7A75.191,75.191,0,0,0,60.3,98.431a44.06,44.06,0,0,0,.788,5.086c.68,3.012,5.309,1.737,4.628-1.276Z"/><path class="c" d="M151.958,77.836c1.161,3.972,2.453,7.912,3.925,11.781a52.141,52.141,0,0,0,4.111,8.905A64.892,64.892,0,0,0,172.5,113.637c2.8,2.411,6,4.664,9.662,5.483,3.009.673,4.294-3.954,1.276-4.629-5.7-1.274-10.418-6.612-14.038-11.025a52.316,52.316,0,0,1-8.539-14.212c-1.625-4.159-3.024-8.41-4.277-12.694-.865-2.959-5.5-1.7-4.628,1.276Z"/><path class="c" d="M152.5,74.474a56.979,56.979,0,0,1-19.607,15.281,83.261,83.261,0,0,1-12.076,4.813q-3.24,1.019-6.543,1.816c-.266.065-.537.117-.8.191-.529.147.208.1-.006.023a2.146,2.146,0,0,1,.949.561c-.006-.008.222.387.091.151a1.391,1.391,0,0,1-.078-.348c.116.579.013-.06.016-.179.083-3.369,1.259-6.94,1.845-10.471a2.422,2.422,0,0,0-4.011-2.335C107.335,88.213,102,91.985,96.692,95.752c-6.044,4.294-12.149,8.5-18.145,12.864-2.95,2.147-5.877,4.331-8.708,6.635a2.417,2.417,0,0,0,0,3.394,2.456,2.456,0,0,0,3.394,0C84.056,109.837,96,102.38,107.2,94.044c2.883-2.146,5.744-4.334,8.474-6.673l-4.011-2.335c-.622,3.744-1.907,7.469-2.013,11.285a5.28,5.28,0,0,0,1.377,4.176c1.743,1.585,4.144.628,6.122.116a84.019,84.019,0,0,0,27.02-11.929,54.955,54.955,0,0,0,11.726-10.815,2.476,2.476,0,0,0,0-3.395,2.417,2.417,0,0,0-3.394,0Z"/><path class="a" d="M251.022,88.3l.043-.811a7,7,0,0,0,3.028.056,6.406,6.406,0,0,0,3.641-2.827c.937-1.409,2.11-3.393,1.839-4.837l-.725-1.549c-8.045-1.806-18.448-6.395-23.105-8.984l-2.332.068c-1.887.8-2.66,5.234-2.368,7.263a4.8,4.8,0,0,0,1.755,3.05L230.515,81.5c-1.46.639-2.028,4.248-1.787,5.9.34,2.33,2.376,3.167,3.491,3.993-3.98,4.071-1.833,8.344,1.237,9.859,2.627,1.3,7.161,1.229,8.954-2.526,0,0,.53-1.109,1.213-2.541a6.421,6.421,0,0,0,3.095.242,4.887,4.887,0,0,0,2.808-2.277c.718-1.141,1.615-2.751,1.394-3.93Z"/><path class="d" d="M254.67,25.545c-.8.068-1.631.175-2.484.331a23.873,23.873,0,0,0-19.016,16,29.812,29.812,0,0,0-1.74,11.767,33.808,33.808,0,0,0,1.371,8.914,32.1,32.1,0,0,0,2.942,6.788c4.657,2.589,15.06,7.178,23.105,8.984,5.193.042,12.32-4.813,15.278-8.3a33.583,33.583,0,0,0,5.486-8.319,28.51,28.51,0,0,0,2.3-10.762,24.484,24.484,0,0,0-3.676-14.1,25.2,25.2,0,0,0-7.622-7.328,24.979,24.979,0,0,0-4.8-2.5A25.674,25.674,0,0,0,254.67,25.545Z"/><path class="c" d="M228.6,92.31a8.062,8.062,0,0,0-.571,6.119,8.813,8.813,0,0,0,3.6,4.549,9.773,9.773,0,0,0,8.494.859,8.069,8.069,0,0,0,4.363-3.894,2.4,2.4,0,1,0-4.145-2.423c-.094.192-.193.38-.3.562-.054.088-.11.175-.168.259q-.225.314.1-.124c-.11.008-.614.633-.709.72-.3.279.472-.313-.077.039-.115.075-.235.145-.356.21-.08.044-.161.086-.244.125q-.345.159.2-.077a4.955,4.955,0,0,0-.513.179c-.3.091-.626.117-.926.207.688-.208.214-.029-.034-.015-.134.008-.269.013-.4.014-.179,0-.357,0-.535-.015-.209-.012-.791-.15-.02.019-.294-.064-.593-.1-.886-.177s-.553-.168-.827-.265c-.39-.14.575.294.031,0-.186-.1-.372-.2-.552-.309-.093-.058-.363-.177-.4-.269q.408.321.108.074-.123-.1-.24-.216c-.157-.15-.3-.313-.447-.47-.322-.341.244.4-.022-.03-.114-.187-.237-.365-.341-.558-.052-.1-.1-.194-.147-.293q.195.484.053.117c-.048-.158-.106-.313-.148-.474-.028-.108-.053-.216-.074-.325-.046-.266-.042-.221.012.137-.074-.069-.025-.5-.023-.6,0-.088.005-.176.011-.263q.039-.406-.022.1a2.005,2.005,0,0,1,.175-.725c.038-.124.081-.247.127-.368-.116.265-.116.271,0,.018A2.4,2.4,0,0,0,228.6,92.31Z"/><path class="c" d="M254.67,23.145a28.469,28.469,0,0,0-15.379,5.911A27.977,27.977,0,0,0,230,43.927a37.054,37.054,0,0,0,.088,17.813,34.1,34.1,0,0,0,2.964,7.7,4.833,4.833,0,0,0,1.478,1.978c.344.227.735.4,1.1.592,1.176.616,2.37,1.2,3.574,1.757A101.1,101.1,0,0,0,256.789,80.3c3.08.784,5.905.032,8.771-1.211a31.66,31.66,0,0,0,18-35.78c-1.6-6.856-6.088-12.222-11.9-15.974a27.286,27.286,0,0,0-16.99-4.19,2.459,2.459,0,0,0-2.4,2.4,2.419,2.419,0,0,0,2.4,2.4,23.462,23.462,0,0,1,15.708,4.3,21.039,21.039,0,0,1,9.127,16.885,27.251,27.251,0,0,1-13.069,24.112,21.349,21.349,0,0,1-4.562,2.152,6.475,6.475,0,0,1-3.99.235,90.735,90.735,0,0,1-20.929-8.353l.861.861c-6.865-12-5.44-30.068,7.362-37.3a23.837,23.837,0,0,1,9.492-2.883,2.466,2.466,0,0,0,2.4-2.4A2.417,2.417,0,0,0,254.67,23.145Z"/><path class="c" d="M257.173,79.876c.177,1.536-1.2,3.549-2.3,4.545-1.494,1.351-3.335.755-5.1.315a51.948,51.948,0,0,1-8.221-3.054c-2.357-1.036-5.225-2.051-7.191-3.778a3.384,3.384,0,0,1-.918-3.3,8.668,8.668,0,0,1,.619-2.4c.031-.068.289-.491.4-.666-.021.033-.005.037.167-.049,2.764-1.381.336-5.523-2.422-4.145-2.9,1.447-3.787,5.957-3.6,8.883.231,3.67,2.851,5.831,5.894,7.417a94.271,94.271,0,0,0,9.025,4.025c2.985,1.177,6.466,2.578,9.722,2.407a8.267,8.267,0,0,0,6.137-3.553c1.363-1.812,2.869-4.282,2.6-6.642a2.473,2.473,0,0,0-2.4-2.4,2.415,2.415,0,0,0-2.4,2.4Z"/><path class="c" d="M248.52,90.225a4.919,4.919,0,0,1-1.531,3.314c-1,1-2.288.472-3.51.14a37.9,37.9,0,0,1-6.376-2.557c-1.764-.829-4.361-1.8-5.57-3.183a2.935,2.935,0,0,1-.421-2.289,7.92,7.92,0,0,1,.415-1.705q.089-.241,0-.009a4.15,4.15,0,0,1,.222-.41c-.03.086-.21.149-.018.049,2.738-1.433.314-5.577-2.423-4.145-2.417,1.264-3.113,4.88-3.026,7.358.111,3.168,2.155,5.176,4.765,6.641a68.818,68.818,0,0,0,6.825,3.26c2.5,1.056,5.357,2.332,8.12,2.248a6.939,6.939,0,0,0,5.42-3.283c1.047-1.51,2.127-3.535,1.912-5.429a2.473,2.473,0,0,0-2.4-2.4,2.415,2.415,0,0,0-2.4,2.4Z"/><path class="c" d="M271.459,2.4q-.186,3.3-.335,6.594a2.417,2.417,0,0,0,2.4,2.4,2.452,2.452,0,0,0,2.4-2.4q.15-3.3.335-6.594a2.414,2.414,0,0,0-2.4-2.4,2.454,2.454,0,0,0-2.4,2.4Z"/><path class="c" d="M286.654,14.082q2.036-2.415,3.862-5a2.4,2.4,0,0,0-2.71-3.526l-.574.242a2.416,2.416,0,0,0-.861.861q-.822,1.165-1.694,2.3l.375-.486q-.873,1.128-1.792,2.219a2.566,2.566,0,0,0-.7,1.7,2.439,2.439,0,0,0,.7,1.7,2.412,2.412,0,0,0,1.7.7,2.36,2.36,0,0,0,1.7-.7Z"/><path class="c" d="M293.976,24.471c1.591-.789,3.2-1.544,4.837-2.237l-.573.242q.625-.264,1.259-.514a2.61,2.61,0,0,0,1.434-1.1,2.4,2.4,0,0,0-.861-3.284,2.336,2.336,0,0,0-1.849-.242c-2.268.893-4.487,1.911-6.67,2.994a2.424,2.424,0,0,0-1.1,1.434,2.452,2.452,0,0,0,.242,1.849,2.417,2.417,0,0,0,1.434,1.1,2.658,2.658,0,0,0,1.85-.242Z"/><path class="c" d="M258.738,70.976c3.8-1.83,7.426-4.2,9.831-7.744,2.194-3.23,3.137-7.727,1.675-11.44-2.6-6.61-13.078-12.185-18.44-5.334a7.509,7.509,0,0,0,1.443,10.932c3.343,2.221,9.209,1.927,11.4-1.777,1.895-3.208,1.033-7.443-1.38-10.1a13.38,13.38,0,0,0-8.7-3.913,12.008,12.008,0,0,0-11.544,5.666c-2.376,4.108-2.239,9.056-1.14,13.515.739,3,5.369,1.728,4.629-1.276-1.216-4.935-.814-11.633,5.17-12.987,3.389-.768,8.629.795,9.156,4.5a3.379,3.379,0,0,1-.4,2.284c-.633.768-2.2.747-3.076.607a2.689,2.689,0,0,1-1.8-4.514c2.867-3.583,8.821.8,10.127,3.85,1.113,2.595.137,5.73-1.481,7.879-1.983,2.633-4.977,4.307-7.889,5.709a2.422,2.422,0,0,0-.861,3.284,2.451,2.451,0,0,0,3.283.861Z"/><path class="a" d="M216.17,262.9c-1.37,4.379,3.055,12.708,5.328,14.68a17.95,17.95,0,0,0,12.482,4.953c4.889.092,10.7-1.122,14.173-5.14,2.92-3.381,4.351-5.729,5.024-11.86.312-2.842-.842-11.847-3.255-16.249"/><path class="a" d="M212.31,150.74a1.626,1.626,0,0,0-.9-.267c-19.945,0-64.812,14.086-83.72,29.383-17.9-15.277-71.947-28.736-84.856-28.736a1.025,1.025,0,0,0-1.07,1c-.012,1.533-.043,6.576-.05,9.887,18.92,1.494,70.245,11.328,83.914,20.489a4.243,4.243,0,0,0,4.148.138c14.22-8.5,62.415-19.2,83.179-20.639,0-3.6,0-7.225,0-7.225v-2.843A1.4,1.4,0,0,0,212.31,150.74Z"/><path class="a" d="M39.456,262.9c1.37,4.379-3.055,12.708-5.328,14.68a17.947,17.947,0,0,1-12.481,4.953c-4.89.092-10.7-1.122-14.173-5.14-2.92-3.381-4.352-5.729-5.025-11.86-.312-2.842.842-11.847,3.255-16.249"/><path class="c" d="M37.142,263.534a5.492,5.492,0,0,1,.127,2.214,16.21,16.21,0,0,1-.885,3.373,23.454,23.454,0,0,1-2.829,5.466,3.219,3.219,0,0,1-.481.633,8.7,8.7,0,0,1-.643.659,18.06,18.06,0,0,1-3.247,2.325,15.125,15.125,0,0,1-6.93,1.9c-4.847.207-10.009-.837-13.294-4.663A16.67,16.67,0,0,1,4.8,264.416a35.128,35.128,0,0,1,.759-6.809,25.883,25.883,0,0,1,2.218-7.116c1.453-2.725-2.689-5.152-4.144-2.423C1.161,252.7.182,258.52.011,263.725a21.518,21.518,0,0,0,4.762,14.161c3.988,4.978,9.932,7.006,16.186,7.047a21.684,21.684,0,0,0,9.066-1.785,18.88,18.88,0,0,0,6.58-4.7,26.071,26.071,0,0,0,4.177-7.437c1.051-2.713,1.808-5.883.988-8.756-.846-2.966-5.479-1.7-4.628,1.276Z"/><path class="c" d="M213.856,262.258a13.354,13.354,0,0,0,.65,7.829,28.014,28.014,0,0,0,3.42,6.923c3.255,4.677,8.883,7.362,14.464,7.838,6,.512,12.979-.907,17.214-5.487a22.207,22.207,0,0,0,6.011-14.341,35.777,35.777,0,0,0-.789-8.008A30.579,30.579,0,0,0,252,248.068c-1.454-2.726-5.6-.3-4.145,2.423,1.965,3.684,2.723,8.522,2.943,12.731a16.845,16.845,0,0,1-3.158,11.048,13.5,13.5,0,0,1-5.373,4.444,19.158,19.158,0,0,1-6.9,1.405c-4.742.157-9.556-1.261-12.812-4.9a21.32,21.32,0,0,1-3.08-5.482,19.506,19.506,0,0,1-1.039-3.541,5.925,5.925,0,0,1,.05-2.663c.849-2.976-3.781-4.247-4.628-1.276Z"/><path class="e" d="M125.625,182.491c-14.593-9.781-72.1-20.327-87.286-20.675a1.967,1.967,0,0,0-2.015,1.966c-.034,18.082-.338,106.275-.442,123.784a1.988,1.988,0,0,0,1.782,1.961c14.257,1.188,74.379,16.755,87.984,23.05a5.578,5.578,0,0,0,4.147-.015c13.567-6.389,73.282-22.263,88.124-23.053a1.966,1.966,0,0,0,1.825-1.955c-.1-17.544-.407-105.774-.442-123.8a1.929,1.929,0,0,0-1.92-1.93c-17.255-.124-72.25,11.616-87.609,20.8A4.243,4.243,0,0,1,125.625,182.491Z"/><path class="c" d="M44.109,160.982c0-2.727.036-5.453.05-8.18a2.442,2.442,0,0,0,0-.573c.352,1.225-2.017,1.141-.854,1.3.388.052.8.028,1.192.053,1.016.065,2.029.17,3.039.293l.725.092c-.639-.083.252.036.4.058q.959.137,1.915.292,2.067.333,4.122.726c3.145.6,6.274,1.276,9.39,2.006a251,251,0,0,1,43.528,14.008,114.973,114.973,0,0,1,10.429,5.156c1.53.866,3.035,1.78,4.493,2.762a33.924,33.924,0,0,1,3.447,2.581,2.491,2.491,0,0,0,3.395,0,92.207,92.207,0,0,1,16.492-10.045,188.873,188.873,0,0,1,21.046-8.773,220.3,220.3,0,0,1,22.135-6.568,116.283,116.283,0,0,1,18.4-3.137q1.1-.083,2.207-.124c.331-.012.661-.021.992-.026.142,0,.287.007.429-.006.574-.05.082.092-.038-.092-.414-.627-.5-1.214-.5-.341v8.541c0,3.088,4.8,3.094,4.8,0v-6.338c0-.884.046-1.782,0-2.666a4,4,0,0,0-4.152-3.9c-6.234-.133-12.656,1.136-18.727,2.411a211.179,211.179,0,0,0-45.832,15.347,100.516,100.516,0,0,0-20.647,12.327h3.395c-5.1-4.328-11.11-7.5-17.163-10.272a211.7,211.7,0,0,0-22.946-8.794c-13.482-4.375-27.462-8.244-41.559-10-2.75-.342-7.5-1.346-8.27,2.383a26.117,26.117,0,0,0-.111,4.893c-.01,1.537-.025,3.075-.027,4.612,0,3.089,4.8,3.093,4.8,0Z"/><path class="c" d="M126.836,180.419a54.4,54.4,0,0,0-11.853-5.437c-5.5-1.972-11.135-3.58-16.79-5.051-12.488-3.249-25.168-5.83-37.9-7.9-5.193-.845-10.406-1.611-15.639-2.155-1.8-.188-3.613-.351-5.425-.428a4.949,4.949,0,0,0-4.208,1.461,5.42,5.42,0,0,0-1.1,3.856q-.025,12.078-.069,24.156-.057,17.886-.12,35.77-.063,18.016-.132,36.033-.05,12.472-.108,24.946c0,.581-.028,1.167-.01,1.748a4.464,4.464,0,0,0,3.543,4.425c.836.167,1.726.195,2.574.3.405.049-.566-.084.1.014l.544.078q.7.105,1.406.219c4.584.743,9.134,1.706,13.668,2.706,12.074,2.664,24.068,5.712,35.991,8.981,10.112,2.772,20.317,5.557,30.13,9.28q.573.218,1.142.443.285.112.568.228c.109.044.753.314.381.156-.325-.138.5.221.684.3a8.662,8.662,0,0,0,2.764.78,9.064,9.064,0,0,0,4.723-1.01l.437-.191c.087-.039.174-.075.261-.112.285-.124-.462.191-.169.071.387-.157.773-.316,1.161-.47,4.15-1.643,8.406-3.025,12.661-4.366,11.789-3.716,23.728-6.977,35.713-10,10.475-2.638,21.047-5.271,31.741-6.866.206-.03.412-.061.619-.09.237-.034.772-.1.21-.031.423-.055.846-.109,1.27-.157.73-.082,1.462-.129,2.193-.194a4.47,4.47,0,0,0,4.332-4.195c.039-.625.007-1.258,0-1.884q-.027-5.136-.048-10.273-.069-15.9-.125-31.8-.068-18.592-.13-37.186-.052-15.777-.1-31.553-.013-5.03-.026-10.06a6.72,6.72,0,0,0-.545-3.308,4.694,4.694,0,0,0-4.487-2.232c-2,.021-4,.163-6,.346a288.007,288.007,0,0,0-35.918,6.079c-12.218,2.709-24.5,5.759-36.232,10.178-2.19.825-4.365,1.709-6.485,2.7-.863.405-1.717.83-2.552,1.29-.894.492-1.646,1-2.655.4-2.661-1.584-5.078,2.564-2.423,4.144a6.664,6.664,0,0,0,6.005.405c.919-.405,1.775-.966,2.673-1.421a55.418,55.418,0,0,1,5.6-2.46c5.251-2.043,10.645-3.717,16.061-5.261a383.972,383.972,0,0,1,38.139-8.718c5.522-.981,10.681-1.8,16.006-2.357,2.106-.222,4.217-.405,6.333-.485q.64-.025,1.282-.035a4.389,4.389,0,0,0,.562,0c-.024,0,.309,0,.31,0-.056.181-.447-.3-.415-.288-.217-.061.023-.288-.064.025a1.883,1.883,0,0,0,0,.431q0,.468,0,.934.027,12.085.069,24.17.056,17.568.118,35.135.061,17.766.13,35.533.049,12.456.107,24.912,0,.925.01,1.852a2.523,2.523,0,0,0,0,.369c.071.419-.1.069.084-.013.5-.224.214-.166-.262-.129-1.8.14-3.6.395-5.388.669-4.688.72-9.34,1.684-13.972,2.7-11.994,2.624-23.9,5.685-35.721,8.986-9.881,2.759-19.851,5.548-29.425,9.262q-1.35.525-2.682,1.1c-.313.135-.627.269-.937.411-.1.048-.562.219-.181.091a3.488,3.488,0,0,1-1.135.2,3.452,3.452,0,0,1-1.137-.186c.306.1.024,0-.122-.058-.481-.2-.955-.415-1.436-.616q-1.109-.464-2.234-.89c-4.169-1.587-8.429-2.939-12.692-4.249-11.561-3.556-23.255-6.7-34.985-9.647C64.82,292.337,54.46,289.789,43.99,288c-1.775-.3-3.557-.578-5.347-.776-.124-.014-.777-.164-.864-.086.446-.4.45.965.506.021.037-.619.007-1.249.01-1.868q.027-5.152.048-10.3.067-15.659.122-31.315.067-18.374.129-36.745.052-15.577.1-31.155.015-5.082.027-10.164c0-.3.189-1.566,0-1.774.329.369-.916.241.014.393a10.741,10.741,0,0,0,1.151.051c1.862.1,3.719.28,5.573.482q1.688.185,3.372.4l.809.1c.1.012.948.125.546.071q.981.132,1.96.272,4.137.59,8.259,1.28,9.222,1.533,18.374,3.452c11.844,2.476,23.758,5.242,35.155,9.355,1.105.4,2.2.813,3.293,1.251q.411.165.821.335c.384.159-.2-.091.319.136.473.206.946.413,1.414.629a34.172,34.172,0,0,1,4.629,2.518C126.993,186.278,129.4,182.123,126.836,180.419Z"/><path class="c" d="M125.545,191.524c0,12.549-.053,25.1-.089,37.646q-.075,25.826-.142,51.651-.024,10.407-.032,20.815c0,3.088,4.8,3.093,4.8,0q0-21.4.089-42.8.069-25.1.141-50.2.022-8.559.033-17.117c0-3.089-4.8-3.094-4.8,0Z"/><path class="a" d="M12.951,225.091a21.783,21.783,0,0,1,5.2-5.076,20.623,20.623,0,0,1,11.308-3.847,16.813,16.813,0,0,1,8.142,1.667,15.969,15.969,0,0,1,4.591,3.477A8.317,8.317,0,0,1,44.352,225a4.04,4.04,0,0,1-1.13,3.956,3.032,3.032,0,0,1-1.412.628c.85.646,1.478,1.126,1.478,1.126,1.368,1.047,2.941,2.9,3.171,4.448a5.556,5.556,0,0,1-.883,4.35,4.546,4.546,0,0,1-3.163,1.809c1.03.957,1.9,1.765,1.9,1.765a5.567,5.567,0,0,1,.7,6.809,4.882,4.882,0,0,1-3.754,2.2l.492,1.777c.2.728,1.678,5.508-1.21,8.353a11.877,11.877,0,0,1-7.133,3,37.38,37.38,0,0,1-7.878-.029c-2.668-.279-5.45-.383-7.891-1.293a12.8,12.8,0,0,1-5.889-4.442,20.871,20.871,0,0,1-3.33-7.048,49.372,49.372,0,0,1-.9-6.256c-.127-4.41-.371-10.78,3.223-17.476A29.19,29.19,0,0,1,12.951,225.091Z"/><path class="c" d="M23.8,230.776c4.51.242,8.991.864,13.494,1.2,2.123.157,4.582.433,6.536-.568,2.771-1.419,3.609-5.014,2.609-7.792-2.027-5.63-8.426-9.087-14.062-9.729A22.6,22.6,0,0,0,18.734,216.8C9.8,221.905,5.3,231.981,5.072,241.98c-.115,4.959.258,10.29,2.37,14.839,2.157,4.649,5.724,8.435,10.8,9.786a46.307,46.307,0,0,0,10.728,1.2,22.355,22.355,0,0,0,10.209-1.74,9.2,9.2,0,0,0,5.388-7,14.225,14.225,0,0,0-.507-5.838c-.835-2.97-5.467-1.708-4.629,1.276a8.833,8.833,0,0,1,.462,3.334,4.415,4.415,0,0,1-2.614,3.809,14.771,14.771,0,0,1-6.829,1.354,60.169,60.169,0,0,1-8.287-.545,12.793,12.793,0,0,1-6.313-2.218,12.176,12.176,0,0,1-3.306-3.985c-2-3.537-2.582-7.59-2.668-11.612a30.459,30.459,0,0,1,2.082-13.022,23.053,23.053,0,0,1,6.683-9.021c5.91-4.614,15.1-5.951,20.951-.5.887.826,3.647,3.575,2.159,4.948-.516.477-1.719.25-2.369.235-.841-.021-1.681-.083-2.519-.15-4.357-.344-8.7-.931-13.062-1.165-3.087-.166-3.078,4.634,0,4.8Z"/><path class="c" d="M41.59,232.409a6.581,6.581,0,0,1,2.519,3.132,2.82,2.82,0,0,1-1.258,3.195c-1.411.645-3.6.064-5.082-.1-5.122-.551-10.254-1.2-15.4-1.48-3.087-.169-3.077,4.631,0,4.8,4.685.256,9.359.829,14.023,1.332,1.528.165,3.063.385,4.6.478a7.34,7.34,0,0,0,7.57-4.9c1.338-3.755-.646-7.531-3.575-9.858a2.476,2.476,0,0,0-3.395,0,2.418,2.418,0,0,0,0,3.394Z"/><path class="c" d="M42.613,244.781c1.325,1.332,1.088,4.022-.76,4.783a7.106,7.106,0,0,1-3.393.187c-1.312-.133-2.623-.273-3.935-.406-4.576-.463-9.166-1-13.76-1.249-3.087-.166-3.078,4.635,0,4.8,5.6.3,11.2.976,16.771,1.558,3.509.367,7.158.11,9.352-3.059a8.018,8.018,0,0,0-.881-10.008c-2.182-2.193-5.577,1.2-3.394,3.394Z"/><path class="a" d="M242.675,225.091a21.783,21.783,0,0,0-5.2-5.076,20.622,20.622,0,0,0-11.307-3.847,16.815,16.815,0,0,0-8.143,1.667,15.969,15.969,0,0,0-4.591,3.477,8.317,8.317,0,0,0-2.165,3.69,4.04,4.04,0,0,0,1.13,3.956,3.041,3.041,0,0,0,1.412.628c-.85.646-1.477,1.126-1.477,1.126-1.369,1.047-2.942,2.9-3.172,4.448a5.56,5.56,0,0,0,.883,4.35,4.546,4.546,0,0,0,3.163,1.809c-1.03.957-1.9,1.765-1.9,1.765a5.565,5.565,0,0,0-.7,6.809,4.881,4.881,0,0,0,3.753,2.2l-.492,1.777c-.2.728-1.678,5.508,1.21,8.353a11.877,11.877,0,0,0,7.134,3,37.371,37.371,0,0,0,7.877-.029c2.668-.279,5.451-.383,7.891-1.293a12.794,12.794,0,0,0,5.889-4.442,20.871,20.871,0,0,0,3.33-7.048,49.372,49.372,0,0,0,.9-6.256c.127-4.41.371-10.78-3.223-17.476A28.942,28.942,0,0,0,242.675,225.091Z"/><path class="c" d="M231.823,225.976a80.978,80.978,0,0,0-9.64.81c-1.664.172-3.33.352-5,.457-1.051.066-3.21.56-3.562-.72-.536-1.946,1.885-4.06,3.2-5.1a13.427,13.427,0,0,1,6.39-2.729,17.765,17.765,0,0,1,10.921,2.062c7.077,3.883,11.058,11.71,11.556,19.6.46,7.3-.3,17.7-7.963,21.083-2.63,1.161-5.784,1.212-8.605,1.442a25.1,25.1,0,0,1-8.979-.5c-2.005-.589-4-1.747-4.359-3.956a8.16,8.16,0,0,1,.413-3.911c.837-2.979-3.793-4.25-4.628-1.276-1.261,4.486-.656,9.1,3.364,11.942,5.194,3.676,12.6,2.761,18.533,2.086a18.19,18.19,0,0,0,8.735-2.873,17.236,17.236,0,0,0,4.867-5.427c2.652-4.55,3.424-9.748,3.5-14.954a33.718,33.718,0,0,0-3.7-16.718,26.393,26.393,0,0,0-9-9.9,22.882,22.882,0,0,0-13.339-3.608c-5.733.271-12.017,3.275-14.778,8.548-1.577,3.013-1.3,7.363,2.049,9.079,2.044,1.048,4.64.715,6.857.523,4.356-.376,8.792-1.231,13.172-1.154,3.09.053,3.091-4.747,0-4.8Z"/><path class="c" d="M210.642,229.015c-3.349,2.66-5.183,7.043-3.05,11.064,1.672,3.154,4.979,3.878,8.254,3.59,5.579-.491,11.158-1.086,16.752-1.388,3.072-.166,3.092-4.967,0-4.8-5,.27-9.983.777-14.966,1.228-1.41.127-3.527.645-4.857.027a2.818,2.818,0,0,1-1.257-3.195,6.573,6.573,0,0,1,2.518-3.132,2.414,2.414,0,0,0,0-3.394,2.459,2.459,0,0,0-3.394,0Z"/><path class="c" d="M209.62,241.387a8.017,8.017,0,0,0-.882,10.007c2.17,3.118,5.9,3.329,9.367,3.128,5.605-.326,11.157-1.313,16.756-1.626,3.072-.172,3.092-4.973,0-4.8-4.585.256-9.149,1.011-13.725,1.4-1.269.109-2.54.205-3.812.264a8.97,8.97,0,0,1-3.542-.256c-1.854-.7-2.1-3.391-.768-4.726,2.181-2.192-1.211-5.588-3.394-3.394Z"/><path class="c" d="M127.492,137.176a50.075,50.075,0,0,1,1.174,5.369l-.086-.638a3.281,3.281,0,0,1,.02.741l.086-.638a1.82,1.82,0,0,1-.082.333l.242-.573a1.3,1.3,0,0,1-.117.214l.375-.485a1.152,1.152,0,0,1-.176.173l.486-.376a3.452,3.452,0,0,1-.425.225l.573-.242a3.046,3.046,0,0,1-.716.209l.638-.085a2.806,2.806,0,0,1-.673,0l.638.086c-.254-.035-.5-.1-.756-.131a2.657,2.657,0,0,0-1.85.242,2.4,2.4,0,0,0-.861,3.284,2.3,2.3,0,0,0,1.435,1.1c.546.073,1.076.213,1.631.237a5.141,5.141,0,0,0,2.364-.556,3.334,3.334,0,0,0,1.871-2.208,5.678,5.678,0,0,0-.025-2.417c-.293-1.73-.692-3.444-1.137-5.141a2.4,2.4,0,0,0-4.629,1.276Z"/><path class="c" d="M98.922,122.692c-.9,2.913-.312,9.616,5.207,10.186,7.3-.044,7.683-8.147,5.228-11.957C107.346,117.8,101.434,116.505,98.922,122.692Z"/><path class="c" d="M156.09,122.692c.9,2.914.313,9.616-5.207,10.186-7.3-.044-7.684-8.147-5.228-11.957C147.666,117.8,153.578,116.505,156.09,122.692Z"/><path class="c" d="M138.333,160.961a36.738,36.738,0,0,0,1.87-3.214c.75-1.43,1.741-2.97.806-4.569-1.025-1.752-2.925-1.315-4.573-1.194-3.531.259-7.073.392-10.611.517q-2.745.1-5.491.165c-1.844.043-4.389-.369-5.477,1.49-.879,1.5-.008,2.9.9,4.11a38.658,38.658,0,0,0,2.518,3.035,40.265,40.265,0,0,0,5.926,5.405,7.573,7.573,0,0,0,8.542.163,19.8,19.8,0,0,0,5.592-5.908,2.4,2.4,0,1,0-4.144-2.422c-1.4,2.063-4.289,6.172-7.16,4.305a27.818,27.818,0,0,1-4.2-3.731c-.7-.7-1.38-1.422-2.027-2.173-.3-.343-.587-.689-.865-1.047a7.514,7.514,0,0,1-.747-.928v1.276l.052-.235-.617,1.059.159-.179-1.059.617c-.409.122-.053.009.138.009s.389,0,.583-.009q.593-.009,1.185-.021,1.362-.03,2.726-.069,3.168-.09,6.335-.221c1.944-.08,3.888-.169,5.831-.284.761-.044,1.521-.093,2.28-.152.323-.025.645-.051.967-.083.193-.019.966-.031.342-.128l-1.059-.618.184.159-.617-1.059.085.23v-1.276a9.5,9.5,0,0,1-1.1,2.191c-.442.807-.909,1.6-1.416,2.367a2.4,2.4,0,1,0,4.144,2.422Z"/></svg>