<?xml version="1.0" encoding="UTF-8"?>
<svg version="1.1" xmlns="http://www.w3.org/2000/svg" width="512" height="512">
<path d="M0 0 C1.40319423 -0.00576139 2.80638092 -0.01370264 4.20955181 -0.02363622 C8.06534223 -0.04453096 11.92051479 -0.0341829 15.77630758 -0.01870513 C19.93454289 -0.00740612 24.09267092 -0.02484709 28.25088501 -0.03860474 C36.39676667 -0.06085725 44.54241821 -0.05602704 52.68830895 -0.04154153 C59.30763659 -0.03025719 65.92689965 -0.0287149 72.54623413 -0.03416061 C73.48773589 -0.03492678 74.42923765 -0.03569294 75.39926976 -0.03648233 C77.31181345 -0.03808093 79.22435713 -0.03970199 81.13690078 -0.04134528 C99.07783872 -0.05560868 117.01864899 -0.0392008 134.959566 -0.01234345 C150.35925703 0.00999587 165.75875963 0.0061159 181.15844727 -0.01693726 C199.03445063 -0.04368484 216.91034206 -0.05423533 234.78636265 -0.03887594 C236.69193584 -0.03728316 238.59750905 -0.03571131 240.50308228 -0.03416061 C241.44070127 -0.03338924 242.37832026 -0.03261786 243.34435195 -0.03182311 C249.95700208 -0.02750298 256.56958131 -0.03479939 263.18222046 -0.04655838 C271.23905294 -0.06057035 279.29564181 -0.05681097 287.35244632 -0.03015466 C291.46452797 -0.0169988 295.57620322 -0.01189388 299.68828201 -0.02840042 C303.45115579 -0.04327694 307.21324568 -0.03515097 310.97604811 -0.00851266 C312.98526719 -0.00026298 314.99454049 -0.01662616 317.00370312 -0.03379881 C326.72097884 0.07256301 326.72097884 0.07256301 329.83406448 2.99231529 C331.90471917 6.22899957 332.07300482 7.98532878 331.91430664 11.80776978 C331.87907898 13.03384949 331.84385132 14.2599292 331.80755615 15.52316284 C331.77829796 16.17436348 331.74903976 16.82556412 331.71889496 17.49649811 C331.63257556 19.56039554 331.58875713 21.62118465 331.55767822 23.68661499 C331.46714622 29.55498029 331.34541751 35.41962407 331.08959961 41.28335571 C329.78330099 59.23025563 329.78330099 59.23025563 336.22241211 75.27505493 C339.68224505 78.99306319 343.46343442 82.12095381 347.55670166 85.11485291 C351.99776812 88.54516801 355.16840573 93.18287436 358.5246582 97.63491821 C358.93844727 98.17229614 359.35223633 98.70967407 359.77856445 99.26333618 C367.46542409 109.26129611 374.21078965 119.72303669 380.5246582 130.63491821 C380.9189502 131.31215942 381.31324219 131.98940063 381.71948242 132.68716431 C394.90176993 155.60579381 403.50726738 181.18064384 408.8371582 207.00991821 C408.98459473 207.72059448 409.13203125 208.43127075 409.28393555 209.16348267 C412.26929608 224.80600187 412.899468 240.44161428 412.8371582 256.32241821 C412.83442398 257.77350479 412.83442398 257.77350479 412.83163452 259.25390625 C412.78620647 273.58682798 412.27731892 287.53265738 409.5246582 301.63491821 C409.36368652 302.53194458 409.20271484 303.42897095 409.03686523 304.35317993 C397.88483947 365.98392367 362.21163637 424.48276436 311.5246582 461.63491821 C310.67073486 462.27203735 310.67073486 462.27203735 309.79956055 462.92202759 C301.05873999 469.43759837 292.01379492 475.27080369 282.5246582 480.63491821 C281.81744629 481.03710571 281.11023438 481.43929321 280.3815918 481.85366821 C257.24619985 494.87909231 232.07503411 503.62793282 206.0871582 508.94741821 C205.36826416 509.09477417 204.64937012 509.24213013 203.90869141 509.39395142 C188.43019906 512.33591628 173.11863134 513.00729158 157.3996582 512.94741821 C156.40609314 512.9455954 155.41252808 512.94377258 154.38885498 512.94189453 C139.89496621 512.89711799 125.78329723 512.43602034 111.5246582 509.63491821 C110.62908203 509.47394653 109.73350586 509.31297485 108.81079102 509.14712524 C49.03947499 498.33344085 -8.61665343 464.32896523 -45.4753418 415.63491821 C-46.09820068 414.82667603 -46.09820068 414.82667603 -46.73364258 414.00210571 C-54.41871843 404.00562352 -61.1626224 393.54481372 -67.4753418 382.63491821 C-67.86963379 381.957677 -68.26392578 381.28043579 -68.67016602 380.58267212 C-81.85245353 357.66404261 -90.45795097 332.08919258 -95.7878418 306.25991821 C-95.93527832 305.54924194 -96.08271484 304.83856567 -96.23461914 304.10635376 C-99.21997967 288.46383455 -99.85015159 272.82822215 -99.7878418 256.94741821 C-99.78601898 255.98002716 -99.78419617 255.01263611 -99.78231812 254.01593018 C-99.73689006 239.68300844 -99.22800252 225.73717904 -96.4753418 211.63491821 C-96.23388428 210.28937866 -96.23388428 210.28937866 -95.98754883 208.91665649 C-87.2740935 160.76246966 -64.35583997 117.60965851 -31.4440918 81.75210571 C-30.99749207 81.2587674 -30.55089233 80.76542908 -30.09075928 80.25714111 C-28.4753418 78.63491821 -28.4753418 78.63491821 -26.24908447 76.87866211 C-22.49980996 73.72580895 -19.87069338 71.24254716 -18.67797852 66.39257812 C-18.42373505 62.55445196 -18.43732323 58.77144111 -18.5534668 54.93179321 C-18.56052492 53.52175427 -18.56286196 52.11168463 -18.56072998 50.70162964 C-18.56440956 47.01346546 -18.61721479 43.3278909 -18.6852417 39.64041138 C-18.79038174 33.72664416 -18.83934852 27.8131396 -18.85146332 21.89850616 C-18.86573161 19.84071156 -18.91300911 17.78554624 -18.96343994 15.72836304 C-18.97284607 14.47646179 -18.9822522 13.22456055 -18.99194336 11.9347229 C-19.01242737 10.83601868 -19.03291138 9.73731445 -19.05401611 8.60531616 C-18.45532115 5.53215007 -17.68378108 3.83524692 -15.39193892 1.68588686 C-10.82766839 -0.81693711 -5.05569053 -0.04321184 0 0 Z " fill="#FE4F19" transform="translate(99.475341796875,-0.634918212890625)"/>
<path d="M0 0 C0.81923761 -0.00782324 1.63847523 -0.01564648 2.48253822 -0.02370679 C3.83208375 -0.01366855 3.83208375 -0.01366855 5.20889282 -0.00342751 C6.64288957 -0.01044746 6.64288957 -0.01044746 8.10585594 -0.01760924 C11.32344632 -0.02961758 14.54061536 -0.02007914 17.75820923 -0.01066017 C20.05917612 -0.01472327 22.36014107 -0.02006367 24.66110229 -0.02659035 C30.9213054 -0.04030079 37.18136068 -0.03494988 43.44156647 -0.02545309 C49.98250233 -0.0178758 56.52342524 -0.02489672 63.06436157 -0.02961159 C74.75458987 -0.03602562 86.44475579 -0.0260821 98.13497329 -0.01083358 C108.73923641 0.00257011 119.34340101 0.00024217 129.94766235 -0.01358986 C142.25539475 -0.02963629 154.56306431 -0.03562479 166.87080574 -0.02675307 C173.3883717 -0.02206772 179.90586976 -0.02147533 186.4234314 -0.03136253 C192.54982025 -0.04000657 198.67602244 -0.0340572 204.80239105 -0.01667976 C207.05548543 -0.0127012 209.30859542 -0.01387222 211.56168365 -0.02046776 C214.62822059 -0.02861923 217.69415265 -0.01843918 220.76065063 -0.00342751 C222.11019616 -0.01346575 222.11019616 -0.01346575 223.48700523 -0.02370679 C224.71586165 -0.01197193 224.71586165 -0.01197193 225.96954346 0 C227.03165008 0.00073059 227.03165008 0.00073059 228.11521339 0.00147593 C230.68459897 0.51828837 231.50463543 1.21187581 232.98477173 3.37752342 C233.36081922 6.1319418 233.36081922 6.1319418 233.36229515 9.54794884 C233.37011839 10.84789504 233.37794163 12.14784124 233.38600194 13.48717976 C233.37951512 14.93834048 233.37274512 16.38949996 233.36572266 17.84065819 C233.36917708 19.3755384 233.37394019 20.91041614 233.37990439 22.44528866 C233.3924737 26.67417127 233.38621721 30.90285181 233.37694573 35.13173532 C233.37017975 39.68803396 233.38062426 44.24429697 233.3888855 48.80058861 C233.4022513 57.73076018 233.39933245 66.66085626 233.39064758 75.59103084 C233.38388261 82.84637559 233.38294915 90.10169913 233.38621902 97.35704613 C233.38667872 98.38820787 233.38713842 99.41936961 233.38761205 100.48177868 C233.38857119 102.57632089 233.38954383 104.6708631 233.39052983 106.7654053 C233.39909206 126.42305534 233.38923653 146.08066347 233.37312873 165.73830664 C233.35972479 182.61904313 233.36205265 199.49971774 233.37588501 216.38045311 C233.39192612 235.96598232 233.39826801 255.55147476 233.38904822 275.13700962 C233.38809253 277.22400665 233.38714942 279.31100368 233.38621902 281.39800072 C233.3857562 282.42494264 233.38529337 283.45188456 233.38481652 284.50994593 C233.38222222 291.75968815 233.38660709 299.00940712 233.39365768 306.25914574 C233.40205659 315.08970065 233.39982656 323.92017552 233.38381545 332.75072122 C233.37591097 337.25940181 233.37287801 341.76794878 233.38276291 346.27662849 C233.3916655 350.39950192 233.38685079 354.52211715 233.37083025 358.64496696 C233.36746353 360.14088048 233.36921864 361.63681556 233.37645762 363.13271534 C233.38550857 365.15749484 233.37448043 367.18233495 233.36229515 369.20709801 C233.36156457 370.89802149 233.36156457 370.89802149 233.36081922 372.62310505 C232.98477173 375.37752342 232.98477173 375.37752342 231.71212828 377.2395798 C229.62102319 378.61715277 228.4630739 378.75333163 225.96954346 378.75504684 C225.15030584 378.76287009 224.33106823 378.77069333 223.48700523 378.77875364 C222.58730822 378.77206147 221.6876112 378.76536931 220.76065063 378.75847435 C219.80465281 378.76315432 218.84865498 378.76783429 217.86368752 378.77265608 C214.64609714 378.78466443 211.4289281 378.77512598 208.21133423 378.76570702 C205.91036733 378.76977012 203.60940239 378.77511052 201.30844116 378.78163719 C195.04823805 378.79534764 188.78818278 378.78999673 182.52797699 378.78049994 C175.98704113 378.77292264 169.44611822 378.77994356 162.90518188 378.78465843 C151.21495358 378.79107247 139.52478766 378.78112895 127.83457017 378.76588042 C117.23030705 378.75247674 106.62614244 378.75480468 96.0218811 378.7686367 C83.71414871 378.78468314 71.40647915 378.79067164 59.09873772 378.78179991 C52.58117176 378.77711457 46.0636737 378.77652217 39.54611206 378.78640938 C33.41972321 378.79505341 27.29352102 378.78910404 21.1671524 378.77172661 C18.91405803 378.76774804 16.66094804 378.76891906 14.4078598 378.7755146 C11.34132287 378.78366607 8.27539081 378.77348602 5.20889282 378.75847435 C4.3091958 378.76516652 3.40949879 378.77185868 2.48253822 378.77875364 C1.66330061 378.7709304 0.844063 378.76310715 0 378.75504684 C-1.06210662 378.75431626 -1.06210662 378.75431626 -2.14566994 378.75357091 C-4.71505551 378.23675848 -5.53509197 377.54317103 -7.01522827 375.37752342 C-7.39127576 372.62310505 -7.39127576 372.62310505 -7.39275169 369.20709801 C-7.40057494 367.9071518 -7.40839818 366.6072056 -7.41645849 365.26786709 C-7.40997166 363.81670637 -7.40320167 362.36554689 -7.3961792 360.91438866 C-7.39963363 359.37950844 -7.40439674 357.8446307 -7.41036093 356.30975819 C-7.42293025 352.08087558 -7.41667375 347.85219503 -7.40740228 343.62331152 C-7.4006363 339.06701288 -7.4110808 334.51074988 -7.41934204 329.95445824 C-7.43270785 321.02428667 -7.42978899 312.09419058 -7.42110412 303.16401601 C-7.41433916 295.90867126 -7.4134057 288.65334772 -7.41667557 281.39800072 C-7.41713527 280.36683897 -7.41759497 279.33567723 -7.4180686 278.27326816 C-7.41902774 276.17872595 -7.42000037 274.08418375 -7.42098637 271.98964155 C-7.4295486 252.3319915 -7.41969307 232.67438337 -7.40358527 213.0167402 C-7.39018134 196.13600371 -7.3925092 179.25532911 -7.40634155 162.37459373 C-7.42238266 142.78906452 -7.42872455 123.20357209 -7.41950476 103.61803722 C-7.41854908 101.5310402 -7.41760597 99.44404317 -7.41667557 97.35704613 C-7.41621274 96.33010421 -7.41574991 95.30316229 -7.41527306 94.24510092 C-7.41267876 86.9953587 -7.41706363 79.74563973 -7.42411423 72.49590111 C-7.43251313 63.6653462 -7.4302831 54.83487132 -7.414272 46.00432563 C-7.40636752 41.49564504 -7.40333455 36.98709807 -7.41321945 32.47841835 C-7.42212205 28.35554493 -7.41730733 24.2329297 -7.4012868 20.11007988 C-7.39792007 18.61416637 -7.39967518 17.11823129 -7.40691416 15.6223315 C-7.41596511 13.59755201 -7.40493698 11.5727119 -7.39275169 9.54794884 C-7.39226464 8.42066651 -7.39177758 7.29338419 -7.39127576 6.1319418 C-7.01522827 3.37752342 -7.01522827 3.37752342 -5.74258482 1.51546705 C-3.65147973 0.13789407 -2.49353045 0.00171521 0 0 Z " fill="#93D6F4" transform="translate(113.01522827148438,24.62247657775879)"/>
<path d="M0 0 C0.86051468 0.00037766 1.72102936 0.00075531 2.60762024 0.00114441 C3.52238632 0.02695084 4.4371524 0.05275726 5.37963867 0.0793457 C6.32699387 0.08642044 7.27434906 0.09349518 8.25041199 0.1007843 C11.26695764 0.12870361 14.28162582 0.1914378 17.29760742 0.25512695 C19.34640868 0.28021299 21.39523913 0.30302563 23.4440918 0.32348633 C28.45848363 0.37852237 33.47147756 0.4647784 38.48510742 0.56762695 C37.68637207 1.1925 36.88763672 1.81737305 36.06469727 2.46118164 C32.96978128 4.98843274 31.74527404 6.49266547 31.24584961 10.47583008 C31.06471939 12.75665422 30.95109816 15.03148471 30.86010742 17.31762695 C30.82143555 18.11040039 30.78276367 18.90317383 30.74291992 19.7199707 C30.64899942 21.66882112 30.5659792 23.61819146 30.48510742 25.56762695 C25.86510742 25.89762695 21.24510742 26.22762695 16.48510742 26.56762695 C16.43952515 74.17896821 16.40411028 121.7903066 16.38297676 169.40166538 C16.38047522 175.01704454 16.37788659 180.63242365 16.37524414 186.24780273 C16.37445721 187.92475069 16.37445721 187.92475069 16.37365438 189.63557638 C16.36494139 207.75990562 16.34916652 225.88422222 16.33080183 244.00854395 C16.31212761 262.59273676 16.30099596 281.17692293 16.29693043 299.76112473 C16.29418022 311.23726168 16.28548035 322.71336294 16.26927449 334.1894889 C16.25873815 342.04903864 16.25549915 349.90856982 16.25810467 357.76812612 C16.25939121 362.3090459 16.25735891 366.84990313 16.24669647 371.39081192 C16.23701964 375.54206541 16.23643593 379.69321379 16.24330963 383.84447195 C16.24416015 385.35190209 16.24157604 386.85933858 16.23534106 388.36675607 C16.22739705 390.40470049 16.23280156 392.44268424 16.23901176 394.48063469 C16.23825232 395.61599848 16.23749288 396.75136226 16.23671043 397.92113101 C16.21589595 400.72370535 16.21589595 400.72370535 18.48510742 402.56762695 C22.47449655 403.15332674 26.45697198 403.31051193 30.48510742 403.56762695 C30.48510742 411.48762695 30.48510742 419.40762695 30.48510742 427.56762695 C33.24492981 427.56096512 36.0047522 427.55430328 38.84820557 427.54743958 C64.80622968 427.48620748 90.7642443 427.44152307 116.72232437 427.41219044 C130.06890182 427.39670858 143.41542 427.37559388 156.76196289 427.34130859 C168.39213239 427.31144661 180.02226358 427.29206155 191.65247035 427.28536147 C197.81299122 427.28144379 203.97340245 427.2722093 210.13388824 427.25043678 C215.92861904 427.23012224 221.72319467 427.22378297 227.51795769 427.22830391 C229.64808685 427.22747645 231.77822103 427.221481 233.90831947 427.21001053 C236.81043039 427.19514528 239.71195091 427.19865159 242.61407471 427.2068634 C243.46232291 427.19812488 244.31057112 427.18938635 245.18452382 427.18038303 C248.53050536 427.2060788 251.02435362 427.32286033 254.00948334 428.90865326 C256.30569744 431.49017712 255.96471483 433.65994046 255.93920898 437.05859375 C255.93979309 437.71252106 255.9403772 438.36644836 255.940979 439.04019165 C255.9381943 441.19961818 255.90708784 443.35766067 255.87573242 445.5168457 C255.86827131 447.01470689 255.86257776 448.51257784 255.85858154 450.01045227 C255.84331469 453.95133452 255.80402466 457.89162631 255.75976562 461.83227539 C255.71883509 465.85400403 255.70057532 469.87582816 255.68041992 473.89770508 C255.63753068 481.78794989 255.5692675 489.67771496 255.48510742 497.56762695 C251.41592434 498.84892102 247.34340374 500.11928603 243.27026367 501.38793945 C242.13544556 501.7454126 241.00062744 502.10288574 239.8314209 502.47119141 C215.60117679 509.99493429 191.63447514 512.97639669 166.36010742 512.88012695 C165.36654236 512.87830414 164.37297729 512.87648132 163.3493042 512.87460327 C148.85541543 512.82982673 134.74374645 512.36872908 120.48510742 509.56762695 C119.58953125 509.40665527 118.69395508 509.24568359 117.77124023 509.07983398 C57.9999242 498.26614959 0.34379579 464.26167397 -36.51489258 415.56762695 C-37.13775146 414.75938477 -37.13775146 414.75938477 -37.77319336 413.93481445 C-45.45826922 403.93833226 -52.20217319 393.47752246 -58.51489258 382.56762695 C-58.90918457 381.89038574 -59.30347656 381.21314453 -59.7097168 380.51538086 C-72.89200431 357.59675135 -81.49750175 332.02190132 -86.82739258 306.19262695 C-86.9748291 305.48195068 -87.12226562 304.77127441 -87.27416992 304.0390625 C-90.25953045 288.39654329 -90.88970237 272.76093089 -90.82739258 256.88012695 C-90.82556976 255.9127359 -90.82374695 254.94534485 -90.8218689 253.94863892 C-90.77644084 239.61571718 -90.2675533 225.66988778 -87.51489258 211.56762695 C-87.27343506 210.2220874 -87.27343506 210.2220874 -87.02709961 208.84936523 C-78.31364428 160.6951784 -55.39539075 117.54236725 -22.48364258 81.68481445 C-22.03704285 81.19147614 -21.59044312 80.69813782 -21.13031006 80.18984985 C-19.51489258 78.56762695 -19.51489258 78.56762695 -17.28863525 76.81137085 C-13.53936074 73.65851769 -10.91024416 71.1752559 -9.7175293 66.32528687 C-9.46328583 62.4871607 -9.47687401 58.70414985 -9.59301758 54.86450195 C-9.6000757 53.45446301 -9.60241274 52.04439337 -9.60028076 50.63433838 C-9.60396034 46.94617421 -9.65676557 43.26059964 -9.72479248 39.57312012 C-9.82993252 33.65935291 -9.8788993 27.74584834 -9.8910141 21.8312149 C-9.9052824 19.7734203 -9.95255989 17.71825498 -10.00299072 15.66107178 C-10.01239685 14.40917053 -10.02180298 13.15726929 -10.03149414 11.86743164 C-10.05197815 10.76872742 -10.07246216 9.67002319 -10.09356689 8.5380249 C-9.0462156 3.16185727 -5.50855832 -0.08124717 0 0 Z " fill="#E23500" transform="translate(90.514892578125,-0.567626953125)"/>
<path d="M0 0 C10.05272887 8.61662475 18.9179507 17.52073268 27 28 C27.42249023 28.5460791 27.84498047 29.0921582 28.28027344 29.65478516 C35.95642914 39.64388039 42.69302505 50.10003227 49 61 C49.39429199 61.67724121 49.78858398 62.35448242 50.19482422 63.05224609 C63.37711173 85.9708756 71.98260918 111.54572563 77.3125 137.375 C77.45993652 138.08567627 77.60737305 138.79635254 77.75927734 139.52856445 C80.74463787 155.17108366 81.3748098 170.80669606 81.3125 186.6875 C81.31067719 187.65489105 81.30885437 188.6222821 81.30697632 189.61898804 C81.26154826 203.95190977 80.75266072 217.89773917 78 232 C77.83902832 232.89702637 77.67805664 233.79405273 77.51220703 234.71826172 C67.91860071 287.73652988 40.67335894 337.46360432 1 374 C0.67 374 0.34 374 0 374 C0 250.58 0 127.16 0 0 Z " fill="#FFE157" transform="translate(431,69)"/>
<path d="M0 0 C0 123.42 0 246.84 0 374 C-10.05272887 365.38337525 -18.9179507 356.47926732 -27 346 C-27.42249023 345.4539209 -27.84498047 344.9078418 -28.28027344 344.34521484 C-35.95642914 334.35611961 -42.69302505 323.89996773 -49 313 C-49.39429199 312.32275879 -49.78858398 311.64551758 -50.19482422 310.94775391 C-63.37711173 288.0291244 -71.98260918 262.45427437 -77.3125 236.625 C-77.45993652 235.91432373 -77.60737305 235.20364746 -77.75927734 234.47143555 C-80.74463787 218.82891634 -81.3748098 203.19330394 -81.3125 187.3125 C-81.31067719 186.34510895 -81.30885437 185.3777179 -81.30697632 184.38101196 C-81.26154826 170.04809023 -80.75266072 156.10226083 -78 142 C-77.75854248 140.65446045 -77.75854248 140.65446045 -77.51220703 139.28173828 C-73.55747698 117.42625126 -27.76859445 0 0 0 Z " fill="#FFE157" transform="translate(81,69)"/>
<path d="M0 0 C0.81923761 -0.00782324 1.63847523 -0.01564648 2.48253822 -0.02370679 C3.83208375 -0.01366855 3.83208375 -0.01366855 5.20889282 -0.00342751 C6.64288957 -0.01044746 6.64288957 -0.01044746 8.10585594 -0.01760924 C11.32344632 -0.02961758 14.54061536 -0.02007914 17.75820923 -0.01066017 C20.05917612 -0.01472327 22.36014107 -0.02006367 24.66110229 -0.02659035 C30.9213054 -0.04030079 37.18136068 -0.03494988 43.44156647 -0.02545309 C49.98250233 -0.0178758 56.52342524 -0.02489672 63.06436157 -0.02961159 C74.75458987 -0.03602562 86.44475579 -0.0260821 98.13497329 -0.01083358 C108.73923641 0.00257011 119.34340101 0.00024217 129.94766235 -0.01358986 C142.25539475 -0.02963629 154.56306431 -0.03562479 166.87080574 -0.02675307 C173.3883717 -0.02206772 179.90586976 -0.02147533 186.4234314 -0.03136253 C192.54982025 -0.04000657 198.67602244 -0.0340572 204.80239105 -0.01667976 C207.05548543 -0.0127012 209.30859542 -0.01387222 211.56168365 -0.02046776 C214.62822059 -0.02861923 217.69415265 -0.01843918 220.76065063 -0.00342751 C222.11019616 -0.01346575 222.11019616 -0.01346575 223.48700523 -0.02370679 C224.71586165 -0.01197193 224.71586165 -0.01197193 225.96954346 0 C227.03165008 0.00073059 227.03165008 0.00073059 228.11521339 0.00147593 C229.98477173 0.37752342 229.98477173 0.37752342 232.98477173 3.37752342 C232.98477173 29.77752342 232.98477173 56.17752342 232.98477173 83.37752342 C153.78477173 83.37752342 74.58477173 83.37752342 -7.01522827 83.37752342 C-7.01522827 56.97752342 -7.01522827 30.57752342 -7.01522827 3.37752342 C-3.64020882 0.00250397 -3.64020882 0.00250397 0 0 Z " fill="#93D6F4" transform="translate(113.01522827148438,24.62247657775879)"/>
<path d="M0 0 C0.86051468 0.00037766 1.72102936 0.00075531 2.60762024 0.00114441 C3.52238632 0.02695084 4.4371524 0.05275726 5.37963867 0.0793457 C6.32699387 0.08642044 7.27434906 0.09349518 8.25041199 0.1007843 C11.26695764 0.12870361 14.28162582 0.1914378 17.29760742 0.25512695 C19.34640868 0.28021299 21.39523913 0.30302563 23.4440918 0.32348633 C28.45848363 0.37852237 33.47147756 0.4647784 38.48510742 0.56762695 C37.68637207 1.1925 36.88763672 1.81737305 36.06469727 2.46118164 C32.96978128 4.98843274 31.74527404 6.49266547 31.24584961 10.47583008 C31.06471939 12.75665422 30.95109816 15.03148471 30.86010742 17.31762695 C30.82143555 18.11040039 30.78276367 18.90317383 30.74291992 19.7199707 C30.64899942 21.66882112 30.5659792 23.61819146 30.48510742 25.56762695 C25.86510742 25.89762695 21.24510742 26.22762695 16.48510742 26.56762695 C16.43952515 74.17896821 16.40411028 121.7903066 16.38297676 169.40166538 C16.38047522 175.01704454 16.37788659 180.63242365 16.37524414 186.24780273 C16.37445721 187.92475069 16.37445721 187.92475069 16.37365438 189.63557638 C16.36494139 207.75990562 16.34916652 225.88422222 16.33080183 244.00854395 C16.31212761 262.59273676 16.30099596 281.17692293 16.29693043 299.76112473 C16.29418022 311.23726168 16.28548035 322.71336294 16.26927449 334.1894889 C16.25873815 342.04903864 16.25549915 349.90856982 16.25810467 357.76812612 C16.25939121 362.3090459 16.25735891 366.84990313 16.24669647 371.39081192 C16.23701964 375.54206541 16.23643593 379.69321379 16.24330963 383.84447195 C16.24416015 385.35190209 16.24157604 386.85933858 16.23534106 388.36675607 C16.22739705 390.40470049 16.23280156 392.44268424 16.23901176 394.48063469 C16.2378726 396.18368037 16.2378726 396.18368037 16.23671043 397.92113101 C16.21589595 400.72370535 16.21589595 400.72370535 18.48510742 402.56762695 C22.47449655 403.15332674 26.45697198 403.31051193 30.48510742 403.56762695 C30.48510742 411.48762695 30.48510742 419.40762695 30.48510742 427.56762695 C103.41510742 427.56762695 176.34510742 427.56762695 251.48510742 427.56762695 C251.48510742 427.89762695 251.48510742 428.22762695 251.48510742 428.56762695 C135.65510742 429.06262695 135.65510742 429.06262695 17.48510742 429.56762695 C15.98527657 432.56728866 16.24608687 435.68709656 16.16870117 438.98168945 C16.14792007 439.71132904 16.12713898 440.44096863 16.10572815 441.19271851 C16.04028826 443.52592459 15.98137374 445.85924417 15.92260742 448.19262695 C15.87941689 449.77336791 15.83580243 451.35409734 15.79174805 452.93481445 C15.68461261 456.81230199 15.5833296 460.68990381 15.48510742 464.56762695 C9.65330522 460.83487325 4.24556323 456.88953063 -0.95239258 452.31762695 C-1.86794922 451.52485352 -1.86794922 451.52485352 -2.80200195 450.71606445 C-9.48655519 444.90853639 -9.48655519 444.90853639 -9.76904291 441.51010245 C-9.78131138 440.16661359 -9.78232079 438.82299684 -9.7749548 437.47947216 C-9.7806633 436.36646353 -9.7806633 436.36646353 -9.78648713 435.23096988 C-9.79687856 432.71878619 -9.79288297 430.20682531 -9.78904724 427.69462585 C-9.79349557 425.88567358 -9.79880826 424.07672326 -9.80491596 422.26777583 C-9.81915519 417.27664181 -9.82075814 412.28556988 -9.82031906 407.29441845 C-9.82196207 401.91937975 -9.83501888 396.54436703 -9.84651184 391.16934204 C-9.86940112 379.40710356 -9.87728665 367.64488307 -9.88233829 355.88262534 C-9.88559072 348.54330217 -9.89211044 341.20398427 -9.89933968 333.86466408 C-9.91891066 313.55876045 -9.93531197 293.25286172 -9.93821621 272.94694805 C-9.93840378 271.64649476 -9.93859135 270.34604148 -9.9387846 269.00618051 C-9.93915086 266.36964468 -9.93951456 263.73310885 -9.93987571 261.09657302 C-9.94005853 259.78772638 -9.94024134 258.47887975 -9.94042969 257.13037109 C-9.94061024 255.81993376 -9.94079079 254.50949643 -9.94097681 253.15934888 C-9.94451979 231.91703571 -9.97154771 210.67482383 -10.00892758 189.4325458 C-10.04696577 167.64242377 -10.06637336 145.85235206 -10.06667572 124.06219608 C-10.0672613 111.82013239 -10.07581797 99.57818953 -10.10467339 87.33615685 C-10.12912731 76.91324627 -10.13651078 66.49050057 -10.12142586 56.0675691 C-10.11423239 50.74643996 -10.11521892 45.42563676 -10.13783646 40.10454369 C-10.15832878 35.23693766 -10.15591786 30.36991017 -10.13496161 25.50231109 C-10.13144795 23.73782094 -10.13645545 21.97328987 -10.15066605 20.20885345 C-10.16869934 17.81629476 -10.15613245 15.42579933 -10.13571835 13.03330517 C-10.14828172 12.34270428 -10.16084509 11.6521034 -10.17378917 10.94057521 C-10.10372315 7.12389604 -9.56967309 5.63450504 -7.1156984 2.6386016 C-4.38453447 0.46382515 -3.40718735 -0.0502535 0 0 Z " fill="#F1420D" transform="translate(90.514892578125,-0.567626953125)"/>
<path d="M0 0 C0.74330566 -0.00428513 1.48661133 -0.00857025 2.25244141 -0.01298523 C3.82258079 -0.01872326 5.39274675 -0.01923266 6.96289062 -0.01489258 C9.36634549 -0.01173014 11.7685721 -0.03520492 14.171875 -0.06054688 C15.69791511 -0.06281968 17.22395854 -0.06352345 18.75 -0.0625 C19.46881348 -0.07170975 20.18762695 -0.08091949 20.92822266 -0.09040833 C25.90569655 -0.04418914 25.90569655 -0.04418914 28.0670929 1.54458618 C29.72973402 3.77710112 29.73882129 5.00604763 29.71557617 7.7722168 C29.71523628 9.12327766 29.71523628 9.12327766 29.71488953 10.50163269 C29.69940567 11.4704689 29.68392181 12.43930511 29.66796875 13.4375 C29.66372391 14.43207718 29.65947906 15.42665436 29.65510559 16.45137024 C29.63830153 19.630615 29.60064576 22.80922781 29.5625 25.98828125 C29.54745541 28.14256898 29.53376662 30.29686663 29.52148438 32.45117188 C29.48839227 37.7346188 29.43659771 43.01759285 29.375 48.30078125 C34.325 48.30078125 39.275 48.30078125 44.375 48.30078125 C44.36452637 46.91777832 44.35405273 45.53477539 44.34326172 44.10986328 C44.30713775 38.99237646 44.28412728 33.87490096 44.26513672 28.75732422 C44.25506175 26.53985704 44.24140141 24.3224032 44.22412109 22.10498047 C44.19993837 18.92281813 44.18853203 15.74083101 44.1796875 12.55859375 C44.16936493 11.56272247 44.15904236 10.5668512 44.14840698 9.540802 C44.14825592 8.61999847 44.14810486 7.69919495 44.14794922 6.75048828 C44.143508 5.93774445 44.13906677 5.12500061 44.13449097 4.28762817 C44.375 2.30078125 44.375 2.30078125 46.375 0.30078125 C48.9209607 0.10115714 51.35575936 0.02091577 53.90234375 0.03515625 C55.01942467 0.03228607 55.01942467 0.03228607 56.15907288 0.02935791 C57.73520241 0.02799611 59.31134315 0.03169222 60.88745117 0.04003906 C63.29957334 0.05072399 65.71094818 0.04015179 68.12304688 0.02734375 C69.65364748 0.02866564 71.18424762 0.03122865 72.71484375 0.03515625 C73.43679428 0.03110779 74.15874481 0.02705933 74.90257263 0.02288818 C78.61017669 0.05756639 80.20716348 0.18889024 83.375 2.30078125 C83.73576355 4.28762817 83.73576355 4.28762817 83.71557617 6.75048828 C83.71534958 7.67129181 83.71512299 8.59209534 83.71488953 9.540802 C83.69940567 10.53667328 83.68392181 11.53254456 83.66796875 12.55859375 C83.66372391 13.57678192 83.65947906 14.59497009 83.65510559 15.64401245 C83.63827579 18.90486798 83.60061546 22.16511166 83.5625 25.42578125 C83.54745874 27.63280359 83.53376937 29.83983559 83.52148438 32.046875 C83.48835814 37.46508049 83.43654614 42.88282704 83.375 48.30078125 C88.655 48.30078125 93.935 48.30078125 99.375 48.30078125 C99.36452637 46.91777832 99.35405273 45.53477539 99.34326172 44.10986328 C99.30713775 38.99237646 99.28412728 33.87490096 99.26513672 28.75732422 C99.25506175 26.53985704 99.24140141 24.3224032 99.22412109 22.10498047 C99.19993837 18.92281813 99.18853203 15.74083101 99.1796875 12.55859375 C99.16936493 11.56272247 99.15904236 10.5668512 99.14840698 9.540802 C99.14825592 8.61999847 99.14810486 7.69919495 99.14794922 6.75048828 C99.143508 5.93774445 99.13906677 5.12500061 99.13449097 4.28762817 C99.375 2.30078125 99.375 2.30078125 101.375 0.30078125 C103.9209607 0.10115714 106.35575936 0.02091577 108.90234375 0.03515625 C110.01942467 0.03228607 110.01942467 0.03228607 111.15907288 0.02935791 C112.73520241 0.02799611 114.31134315 0.03169222 115.88745117 0.04003906 C118.29957334 0.05072399 120.71094818 0.04015179 123.12304688 0.02734375 C124.65364748 0.02866564 126.18424762 0.03122865 127.71484375 0.03515625 C128.43679428 0.03110779 129.15874481 0.02705933 129.90257263 0.02288818 C133.61017669 0.05756639 135.20716348 0.18889024 138.375 2.30078125 C138.73576355 4.28762817 138.73576355 4.28762817 138.71557617 6.75048828 C138.71534958 7.67129181 138.71512299 8.59209534 138.71488953 9.540802 C138.69940567 10.53667328 138.68392181 11.53254456 138.66796875 12.55859375 C138.66372391 13.57678192 138.65947906 14.59497009 138.65510559 15.64401245 C138.63827579 18.90486798 138.60061546 22.16511166 138.5625 25.42578125 C138.54745874 27.63280359 138.53376937 29.83983559 138.52148438 32.046875 C138.48835814 37.46508049 138.43654614 42.88282704 138.375 48.30078125 C143.325 48.30078125 148.275 48.30078125 153.375 48.30078125 C153.35143433 46.27957153 153.35143433 46.27957153 153.32739258 44.2175293 C153.27314986 39.22491417 153.23867043 34.23232516 153.21020508 29.23950195 C153.19510556 27.07734804 153.17462429 24.91522482 153.14868164 22.75317383 C153.11234983 19.64787225 153.09528538 16.54297511 153.08203125 13.4375 C153.06654739 12.46866379 153.05106354 11.49982758 153.03511047 10.50163269 C153.03477058 9.15057182 153.03477058 9.15057182 153.03442383 7.7722168 C153.02443108 6.5830793 153.02443108 6.5830793 153.01423645 5.36991882 C153.47257675 2.7411357 154.24235855 1.86966979 156.375 0.30078125 C158.99753458 0.00259547 161.37793966 -0.11980799 164 -0.09765625 C165.1149585 -0.10196152 165.1149585 -0.10196152 166.25244141 -0.10635376 C167.8225989 -0.10839351 169.39278186 -0.10286975 170.96289062 -0.09033203 C173.36646332 -0.07427578 175.76835461 -0.09018227 178.171875 -0.109375 C179.69792038 -0.10739255 181.22396471 -0.10354884 182.75 -0.09765625 C183.46881348 -0.10372894 184.18762695 -0.10980164 184.92822266 -0.11605835 C189.90372213 -0.04591671 189.90372213 -0.04591671 192.0670929 1.545578 C193.73015383 3.77739549 193.73881858 5.00637037 193.71557617 7.7722168 C193.71534958 8.67292404 193.71512299 9.57363129 193.71488953 10.50163269 C193.69940567 11.4704689 193.68392181 12.43930511 193.66796875 13.4375 C193.66372391 14.43207718 193.65947906 15.42665436 193.65510559 16.45137024 C193.63830153 19.630615 193.60064576 22.80922781 193.5625 25.98828125 C193.54745541 28.14256898 193.53376662 30.29686663 193.52148438 32.45117188 C193.48839227 37.7346188 193.43659771 43.01759285 193.375 48.30078125 C199.315 48.30078125 205.255 48.30078125 211.375 48.30078125 C211.375 53.25078125 211.375 58.20078125 211.375 63.30078125 C132.175 63.30078125 52.975 63.30078125 -28.625 63.30078125 C-28.625 58.35078125 -28.625 53.40078125 -28.625 48.30078125 C-22.685 48.30078125 -16.745 48.30078125 -10.625 48.30078125 C-10.64071045 46.91777832 -10.6564209 45.53477539 -10.67260742 44.10986328 C-10.72679303 38.99240921 -10.76130863 33.87498061 -10.78979492 28.75732422 C-10.80490753 26.53983297 -10.82539826 24.32237172 -10.85131836 22.10498047 C-10.88759293 18.92277636 -10.90470139 15.74096643 -10.91796875 12.55859375 C-10.93345261 11.56272247 -10.94893646 10.5668512 -10.96488953 9.540802 C-10.96511612 8.61999847 -10.96534271 7.69919495 -10.96557617 6.75048828 C-10.97223801 5.93774445 -10.97889984 5.12500061 -10.98576355 4.28762817 C-10.86671158 3.63196869 -10.74765961 2.9763092 -10.625 2.30078125 C-6.97442297 -0.13293677 -4.22260582 -0.00535398 0 0 Z " fill="#93D6F4" transform="translate(134.625,227.69921875)"/>
<path d="M0 0 C79.2 0 158.4 0 240 0 C240 25.41 240 50.82 240 77 C234.06 77 228.12 77 222 77 C221.97494385 75.61176025 221.9498877 74.22352051 221.92407227 72.79321289 C221.83018916 67.66257847 221.72992257 62.53208553 221.62768555 57.40161133 C221.58426412 55.17736104 221.54259455 52.95307585 221.50268555 50.72875977 C221.44515694 47.53911805 221.38141316 44.3496532 221.31640625 41.16015625 C221.29133751 39.65860741 221.29133751 39.65860741 221.26576233 38.12672424 C221.24581711 37.20584518 221.22587189 36.28496613 221.20532227 35.33618164 C221.18977798 34.52121719 221.1742337 33.70625275 221.15821838 32.86659241 C221.20086137 30.98590881 221.20086137 30.98590881 220 30 C217.41810554 29.89908525 214.863535 29.86028501 212.28125 29.8671875 C211.50817505 29.86623077 210.7351001 29.86527405 209.93859863 29.86428833 C208.30102456 29.86360659 206.66344781 29.86546043 205.02587891 29.86962891 C202.51068079 29.87497729 199.99566127 29.86968374 197.48046875 29.86328125 C195.89322877 29.86394203 194.3059889 29.8652232 192.71875 29.8671875 C191.5828241 29.86415115 191.5828241 29.86415115 190.4239502 29.86105347 C186.91984437 29.55546316 186.91984437 29.55546316 184 31 C183.87778475 32.44184293 183.82227242 33.88943144 183.79467773 35.33618164 C183.77473251 36.2570607 183.75478729 37.17793976 183.73423767 38.12672424 C183.71752518 39.12775681 183.70081268 40.12878937 183.68359375 41.16015625 C183.6524221 42.68956093 183.6524221 42.68956093 183.62062073 44.24986267 C183.55501148 47.52067048 183.49618766 50.79156137 183.4375 54.0625 C183.39432558 56.27409728 183.35071166 58.48568603 183.30664062 60.69726562 C183.19931855 66.13142436 183.09808355 71.56566698 183 77 C177.72 77 172.44 77 167 77 C166.97494385 75.61176025 166.9498877 74.22352051 166.92407227 72.79321289 C166.83018916 67.66257847 166.72992257 62.53208553 166.62768555 57.40161133 C166.58426412 55.17736104 166.54259455 52.95307585 166.50268555 50.72875977 C166.44515694 47.53911805 166.38141316 44.3496532 166.31640625 41.16015625 C166.29133751 39.65860741 166.29133751 39.65860741 166.26576233 38.12672424 C166.24581711 37.20584518 166.22587189 36.28496613 166.20532227 35.33618164 C166.18977798 34.52121719 166.1742337 33.70625275 166.15821838 32.86659241 C166.20086137 30.98590881 166.20086137 30.98590881 165 30 C162.41810554 29.89908525 159.863535 29.86028501 157.28125 29.8671875 C156.50817505 29.86623077 155.7351001 29.86527405 154.93859863 29.86428833 C153.30102456 29.86360659 151.66344781 29.86546043 150.02587891 29.86962891 C147.51068079 29.87497729 144.99566127 29.86968374 142.48046875 29.86328125 C140.89322877 29.86394203 139.3059889 29.8652232 137.71875 29.8671875 C136.5828241 29.86415115 136.5828241 29.86415115 135.4239502 29.86105347 C131.91984437 29.55546316 131.91984437 29.55546316 129 31 C128.87778475 32.44184293 128.82227242 33.88943144 128.79467773 35.33618164 C128.77473251 36.2570607 128.75478729 37.17793976 128.73423767 38.12672424 C128.71752518 39.12775681 128.70081268 40.12878937 128.68359375 41.16015625 C128.6524221 42.68956093 128.6524221 42.68956093 128.62062073 44.24986267 C128.55501148 47.52067048 128.49618766 50.79156137 128.4375 54.0625 C128.39432558 56.27409728 128.35071166 58.48568603 128.30664062 60.69726562 C128.19931855 66.13142436 128.09808355 71.56566698 128 77 C122.72 77 117.44 77 112 77 C111.97494385 75.61176025 111.9498877 74.22352051 111.92407227 72.79321289 C111.83018916 67.66257847 111.72992257 62.53208553 111.62768555 57.40161133 C111.58426412 55.17736104 111.54259455 52.95307585 111.50268555 50.72875977 C111.44515694 47.53911805 111.38141316 44.3496532 111.31640625 41.16015625 C111.29969376 40.15912369 111.28298126 39.15809113 111.26576233 38.12672424 C111.2358445 36.74540565 111.2358445 36.74540565 111.20532227 35.33618164 C111.18200584 34.11373497 111.18200584 34.11373497 111.15821838 32.86659241 C111.20086137 30.98590881 111.20086137 30.98590881 110 30 C107.41810554 29.89908525 104.863535 29.86028501 102.28125 29.8671875 C101.50817505 29.86623077 100.7351001 29.86527405 99.93859863 29.86428833 C98.30102456 29.86360659 96.66344781 29.86546043 95.02587891 29.86962891 C92.51068079 29.87497729 89.99566127 29.86968374 87.48046875 29.86328125 C85.89322877 29.86394203 84.3059889 29.8652232 82.71875 29.8671875 C81.96146606 29.86516327 81.20418213 29.86313904 80.4239502 29.86105347 C76.91984437 29.55546316 76.91984437 29.55546316 74 31 C73.87778475 32.44184293 73.82227242 33.88943144 73.79467773 35.33618164 C73.77473251 36.2570607 73.75478729 37.17793976 73.73423767 38.12672424 C73.71752518 39.12775681 73.70081268 40.12878937 73.68359375 41.16015625 C73.6524221 42.68956093 73.6524221 42.68956093 73.62062073 44.24986267 C73.55501148 47.52067048 73.49618766 50.79156137 73.4375 54.0625 C73.39432558 56.27409728 73.35071166 58.48568603 73.30664062 60.69726562 C73.19931855 66.13142436 73.09808355 71.56566698 73 77 C67.72 77 62.44 77 57 77 C56.97494385 75.61176025 56.9498877 74.22352051 56.92407227 72.79321289 C56.83018916 67.66257847 56.72992257 62.53208553 56.62768555 57.40161133 C56.58426412 55.17736104 56.54259455 52.95307585 56.50268555 50.72875977 C56.44515694 47.53911805 56.38141316 44.3496532 56.31640625 41.16015625 C56.29969376 40.15912369 56.28298126 39.15809113 56.26576233 38.12672424 C56.2358445 36.74540565 56.2358445 36.74540565 56.20532227 35.33618164 C56.18200584 34.11373497 56.18200584 34.11373497 56.15821838 32.86659241 C56.20086137 30.98590881 56.20086137 30.98590881 55 30 C52.41810554 29.89908525 49.863535 29.86028501 47.28125 29.8671875 C46.50817505 29.86623077 45.7351001 29.86527405 44.93859863 29.86428833 C43.30102456 29.86360659 41.66344781 29.86546043 40.02587891 29.86962891 C37.51068079 29.87497729 34.99566127 29.86968374 32.48046875 29.86328125 C30.89322877 29.86394203 29.3059889 29.8652232 27.71875 29.8671875 C26.96146606 29.86516327 26.20418213 29.86313904 25.4239502 29.86105347 C21.91984437 29.55546316 21.91984437 29.55546316 19 31 C18.87778475 32.44184293 18.82227242 33.88943144 18.79467773 35.33618164 C18.77473251 36.2570607 18.75478729 37.17793976 18.73423767 38.12672424 C18.70916893 39.62827309 18.70916893 39.62827309 18.68359375 41.16015625 C18.66281265 42.17975937 18.64203156 43.19936249 18.62062073 44.24986267 C18.55501148 47.52067048 18.49618766 50.79156137 18.4375 54.0625 C18.39432558 56.27409728 18.35071166 58.48568603 18.30664062 60.69726562 C18.19931855 66.13142436 18.09808355 71.56566698 18 77 C12.06 77 6.12 77 0 77 C0 51.59 0 26.18 0 0 Z " fill="#D8EFF9" transform="translate(106,291)"/>
<path d="M0 0 C79.2 0 158.4 0 240 0 C240 25.41 240 50.82 240 77 C234.06 77 228.12 77 222 77 C221.97494385 75.61176025 221.9498877 74.22352051 221.92407227 72.79321289 C221.83018916 67.66257847 221.72992257 62.53208553 221.62768555 57.40161133 C221.58426412 55.17736104 221.54259455 52.95307585 221.50268555 50.72875977 C221.44515694 47.53911805 221.38141316 44.3496532 221.31640625 41.16015625 C221.29133751 39.65860741 221.29133751 39.65860741 221.26576233 38.12672424 C221.24581711 37.20584518 221.22587189 36.28496613 221.20532227 35.33618164 C221.18977798 34.52121719 221.1742337 33.70625275 221.15821838 32.86659241 C221.20086137 30.98590881 221.20086137 30.98590881 220 30 C217.41810554 29.89908525 214.863535 29.86028501 212.28125 29.8671875 C211.50817505 29.86623077 210.7351001 29.86527405 209.93859863 29.86428833 C208.30102456 29.86360659 206.66344781 29.86546043 205.02587891 29.86962891 C202.51068079 29.87497729 199.99566127 29.86968374 197.48046875 29.86328125 C195.89322877 29.86394203 194.3059889 29.8652232 192.71875 29.8671875 C191.5828241 29.86415115 191.5828241 29.86415115 190.4239502 29.86105347 C186.91984437 29.55546316 186.91984437 29.55546316 184 31 C183.87778475 32.44184293 183.82227242 33.88943144 183.79467773 35.33618164 C183.77473251 36.2570607 183.75478729 37.17793976 183.73423767 38.12672424 C183.71752518 39.12775681 183.70081268 40.12878937 183.68359375 41.16015625 C183.6524221 42.68956093 183.6524221 42.68956093 183.62062073 44.24986267 C183.55501148 47.52067048 183.49618766 50.79156137 183.4375 54.0625 C183.39432558 56.27409728 183.35071166 58.48568603 183.30664062 60.69726562 C183.19931855 66.13142436 183.09808355 71.56566698 183 77 C177.72 77 172.44 77 167 77 C166.97494385 75.61176025 166.9498877 74.22352051 166.92407227 72.79321289 C166.83018916 67.66257847 166.72992257 62.53208553 166.62768555 57.40161133 C166.58426412 55.17736104 166.54259455 52.95307585 166.50268555 50.72875977 C166.44515694 47.53911805 166.38141316 44.3496532 166.31640625 41.16015625 C166.29133751 39.65860741 166.29133751 39.65860741 166.26576233 38.12672424 C166.24581711 37.20584518 166.22587189 36.28496613 166.20532227 35.33618164 C166.18977798 34.52121719 166.1742337 33.70625275 166.15821838 32.86659241 C166.20086137 30.98590881 166.20086137 30.98590881 165 30 C162.41810554 29.89908525 159.863535 29.86028501 157.28125 29.8671875 C156.50817505 29.86623077 155.7351001 29.86527405 154.93859863 29.86428833 C153.30102456 29.86360659 151.66344781 29.86546043 150.02587891 29.86962891 C147.51068079 29.87497729 144.99566127 29.86968374 142.48046875 29.86328125 C140.89322877 29.86394203 139.3059889 29.8652232 137.71875 29.8671875 C136.5828241 29.86415115 136.5828241 29.86415115 135.4239502 29.86105347 C131.91984437 29.55546316 131.91984437 29.55546316 129 31 C128.87778475 32.44184293 128.82227242 33.88943144 128.79467773 35.33618164 C128.77473251 36.2570607 128.75478729 37.17793976 128.73423767 38.12672424 C128.71752518 39.12775681 128.70081268 40.12878937 128.68359375 41.16015625 C128.6524221 42.68956093 128.6524221 42.68956093 128.62062073 44.24986267 C128.55501148 47.52067048 128.49618766 50.79156137 128.4375 54.0625 C128.39432558 56.27409728 128.35071166 58.48568603 128.30664062 60.69726562 C128.19931855 66.13142436 128.09808355 71.56566698 128 77 C122.72 77 117.44 77 112 77 C111.97494385 75.61176025 111.9498877 74.22352051 111.92407227 72.79321289 C111.83018916 67.66257847 111.72992257 62.53208553 111.62768555 57.40161133 C111.58426412 55.17736104 111.54259455 52.95307585 111.50268555 50.72875977 C111.44515694 47.53911805 111.38141316 44.3496532 111.31640625 41.16015625 C111.29969376 40.15912369 111.28298126 39.15809113 111.26576233 38.12672424 C111.2358445 36.74540565 111.2358445 36.74540565 111.20532227 35.33618164 C111.18200584 34.11373497 111.18200584 34.11373497 111.15821838 32.86659241 C111.20086137 30.98590881 111.20086137 30.98590881 110 30 C107.41810554 29.89908525 104.863535 29.86028501 102.28125 29.8671875 C101.50817505 29.86623077 100.7351001 29.86527405 99.93859863 29.86428833 C98.30102456 29.86360659 96.66344781 29.86546043 95.02587891 29.86962891 C92.51068079 29.87497729 89.99566127 29.86968374 87.48046875 29.86328125 C85.89322877 29.86394203 84.3059889 29.8652232 82.71875 29.8671875 C81.96146606 29.86516327 81.20418213 29.86313904 80.4239502 29.86105347 C76.91984437 29.55546316 76.91984437 29.55546316 74 31 C73.87778475 32.44184293 73.82227242 33.88943144 73.79467773 35.33618164 C73.77473251 36.2570607 73.75478729 37.17793976 73.73423767 38.12672424 C73.71752518 39.12775681 73.70081268 40.12878937 73.68359375 41.16015625 C73.6524221 42.68956093 73.6524221 42.68956093 73.62062073 44.24986267 C73.55501148 47.52067048 73.49618766 50.79156137 73.4375 54.0625 C73.39432558 56.27409728 73.35071166 58.48568603 73.30664062 60.69726562 C73.19931855 66.13142436 73.09808355 71.56566698 73 77 C67.72 77 62.44 77 57 77 C56.97494385 75.61176025 56.9498877 74.22352051 56.92407227 72.79321289 C56.83018916 67.66257847 56.72992257 62.53208553 56.62768555 57.40161133 C56.58426412 55.17736104 56.54259455 52.95307585 56.50268555 50.72875977 C56.44515694 47.53911805 56.38141316 44.3496532 56.31640625 41.16015625 C56.29969376 40.15912369 56.28298126 39.15809113 56.26576233 38.12672424 C56.2358445 36.74540565 56.2358445 36.74540565 56.20532227 35.33618164 C56.18200584 34.11373497 56.18200584 34.11373497 56.15821838 32.86659241 C56.20086137 30.98590881 56.20086137 30.98590881 55 30 C52.41810554 29.89908525 49.863535 29.86028501 47.28125 29.8671875 C46.50817505 29.86623077 45.7351001 29.86527405 44.93859863 29.86428833 C43.30102456 29.86360659 41.66344781 29.86546043 40.02587891 29.86962891 C37.51068079 29.87497729 34.99566127 29.86968374 32.48046875 29.86328125 C30.89322877 29.86394203 29.3059889 29.8652232 27.71875 29.8671875 C26.96146606 29.86516327 26.20418213 29.86313904 25.4239502 29.86105347 C21.91984437 29.55546316 21.91984437 29.55546316 19 31 C18.87778475 32.44184293 18.82227242 33.88943144 18.79467773 35.33618164 C18.77473251 36.2570607 18.75478729 37.17793976 18.73423767 38.12672424 C18.70916893 39.62827309 18.70916893 39.62827309 18.68359375 41.16015625 C18.66281265 42.17975937 18.64203156 43.19936249 18.62062073 44.24986267 C18.55501148 47.52067048 18.49618766 50.79156137 18.4375 54.0625 C18.39432558 56.27409728 18.35071166 58.48568603 18.30664062 60.69726562 C18.19931855 66.13142436 18.09808355 71.56566698 18 77 C12.06 77 6.12 77 0 77 C0 51.59 0 26.18 0 0 Z " fill="#D8EFF9" transform="translate(106,108)"/>
<path d="M0 0 C0.81923761 -0.00782324 1.63847523 -0.01564648 2.48253822 -0.02370679 C3.83208375 -0.01366855 3.83208375 -0.01366855 5.20889282 -0.00342751 C6.64288957 -0.01044746 6.64288957 -0.01044746 8.10585594 -0.01760924 C11.32344632 -0.02961758 14.54061536 -0.02007914 17.75820923 -0.01066017 C20.05917612 -0.01472327 22.36014107 -0.02006367 24.66110229 -0.02659035 C30.9213054 -0.04030079 37.18136068 -0.03494988 43.44156647 -0.02545309 C49.98250233 -0.0178758 56.52342524 -0.02489672 63.06436157 -0.02961159 C74.75458987 -0.03602562 86.44475579 -0.0260821 98.13497329 -0.01083358 C108.73923641 0.00257011 119.34340101 0.00024217 129.94766235 -0.01358986 C142.25539475 -0.02963629 154.56306431 -0.03562479 166.87080574 -0.02675307 C173.3883717 -0.02206772 179.90586976 -0.02147533 186.4234314 -0.03136253 C192.54982025 -0.04000657 198.67602244 -0.0340572 204.80239105 -0.01667976 C207.05548543 -0.0127012 209.30859542 -0.01387222 211.56168365 -0.02046776 C214.62822059 -0.02861923 217.69415265 -0.01843918 220.76065063 -0.00342751 C222.11019616 -0.01346575 222.11019616 -0.01346575 223.48700523 -0.02370679 C224.71586165 -0.01197193 224.71586165 -0.01197193 225.96954346 0 C227.03165008 0.00073059 227.03165008 0.00073059 228.11521339 0.00147593 C230.57632657 0.4965102 231.46967939 1.40777711 232.98477173 3.37752342 C233.34553528 6.20593834 233.34553528 6.20593834 233.3253479 9.68489647 C233.32512131 10.98601875 233.32489471 12.28714104 233.32466125 13.62769127 C233.30934125 15.04821173 233.29369326 16.46872868 233.27774048 17.88924217 C233.27214448 19.34226608 233.2678744 20.79529566 233.26487732 22.24832726 C233.25342868 26.07072672 233.22396172 29.89278362 233.19076538 33.71504784 C233.16006468 37.61616443 233.14637201 41.51733644 233.1312561 45.41853905 C233.09909164 53.07170801 233.046324 60.72452406 232.98477173 68.37752342 C227.04477173 68.37752342 221.10477173 68.37752342 214.98477173 68.37752342 C214.65477173 53.19752342 214.32477173 38.01752342 213.98477173 22.37752342 C210.93948954 20.85488233 207.76331926 21.21466805 204.42227173 21.20955467 C203.67517944 21.20622627 202.92808716 21.20289787 202.15835571 21.19946861 C200.57803972 21.19440376 198.99771302 21.19206015 197.41738892 21.19222069 C194.9943593 21.19003208 192.57178337 21.17186641 190.14883423 21.15291405 C188.61498162 21.1499805 187.08112685 21.14799545 185.54727173 21.14705467 C184.82015991 21.13986916 184.0930481 21.13268364 183.34390259 21.12528038 C179.21004142 21.01282501 179.21004142 21.01282501 175.98477173 23.37752342 C175.65499567 25.39586285 175.65499567 25.39586285 175.66592407 27.73543358 C175.64605438 28.63621635 175.62618469 29.53699913 175.60571289 30.46507835 C175.59416168 31.43907585 175.58261047 32.41307335 175.57070923 33.41658592 C175.55134308 34.41257805 175.53197693 35.40857018 175.51202393 36.43474388 C175.45212207 39.62391592 175.40580035 42.81312385 175.35977173 46.00252342 C175.32160171 48.16139355 175.28255057 50.3202483 175.24258423 52.47908592 C175.14641182 57.77844049 175.06242007 63.07786636 174.98477173 68.37752342 C170.03477173 68.37752342 165.08477173 68.37752342 159.98477173 68.37752342 C159.65477173 53.19752342 159.32477173 38.01752342 158.98477173 22.37752342 C155.92914026 20.84970769 152.73853291 21.23542088 149.38711548 21.24471092 C148.63765152 21.2437542 147.88818756 21.24279747 147.11601257 21.24181175 C145.53149329 21.24113101 143.94697121 21.24297791 142.36245728 21.24715233 C139.92855618 21.25250959 137.494839 21.24719995 135.0609436 21.24080467 C133.52383382 21.24146533 131.98672415 21.24274622 130.44961548 21.24471092 C129.71734238 21.24268669 128.98506927 21.24066246 128.23060608 21.23857689 C124.8201293 20.94932916 124.8201293 20.94932916 121.98477173 22.37752342 C121.86255648 23.81936635 121.80704415 25.26695486 121.77944946 26.71370506 C121.75950424 27.63458412 121.73955902 28.55546318 121.7190094 29.50424767 C121.70229691 30.50528023 121.68558441 31.50631279 121.66836548 32.53767967 C121.63719383 34.06708435 121.63719383 34.06708435 121.60539246 35.62738609 C121.53978321 38.8981939 121.48095939 42.16908479 121.42227173 45.44002342 C121.37909731 47.6516207 121.33548339 49.86320945 121.29141235 52.07478905 C121.18409027 57.50894778 121.08285527 62.94319041 120.98477173 68.37752342 C115.70477173 68.37752342 110.42477173 68.37752342 104.98477173 68.37752342 C104.65477173 53.19752342 104.32477173 38.01752342 103.98477173 22.37752342 C100.92914026 20.84970769 97.73853291 21.23542088 94.38711548 21.24471092 C93.63765152 21.2437542 92.88818756 21.24279747 92.11601257 21.24181175 C90.53149329 21.24113101 88.94697121 21.24297791 87.36245728 21.24715233 C84.92855618 21.25250959 82.494839 21.24719995 80.0609436 21.24080467 C78.52383382 21.24146533 76.98672415 21.24274622 75.44961548 21.24471092 C74.71734238 21.24268669 73.98506927 21.24066246 73.23060608 21.23857689 C69.8201293 20.94932916 69.8201293 20.94932916 66.98477173 22.37752342 C66.86255648 23.81936635 66.80704415 25.26695486 66.77944946 26.71370506 C66.75950424 27.63458412 66.73955902 28.55546318 66.7190094 29.50424767 C66.70229691 30.50528023 66.68558441 31.50631279 66.66836548 32.53767967 C66.63719383 34.06708435 66.63719383 34.06708435 66.60539246 35.62738609 C66.53978321 38.8981939 66.48095939 42.16908479 66.42227173 45.44002342 C66.37909731 47.6516207 66.33548339 49.86320945 66.29141235 52.07478905 C66.18409027 57.50894778 66.08285527 62.94319041 65.98477173 68.37752342 C61.03477173 68.37752342 56.08477173 68.37752342 50.98477173 68.37752342 C50.95504272 66.34845848 50.95504272 66.34845848 50.92471313 64.27840233 C50.84879544 59.27251227 50.76005719 54.26691819 50.66738892 49.26131248 C50.62904182 47.09242649 50.59419918 44.92347565 50.56289673 42.75447655 C50.51737035 39.6416101 50.459356 36.52919236 50.39883423 33.41658592 C50.38728302 32.44258842 50.37573181 31.46859093 50.36383057 30.46507835 C50.34396088 29.56429558 50.32409119 28.6635128 50.30361938 27.73543358 C50.29029572 26.94045464 50.27697205 26.14547569 50.26324463 25.32640648 C50.15010164 23.14286971 50.15010164 23.14286971 47.98477173 21.37752342 C45.3436106 21.19014693 42.80923193 21.12182476 40.16836548 21.14705467 C39.39670547 21.14751289 38.62504547 21.14797112 37.83000183 21.14844322 C36.19838931 21.15146555 34.56677967 21.15935129 32.93521118 21.17171288 C30.42884173 21.18997555 27.9228414 21.19222254 25.41641235 21.19197655 C23.83372685 21.19689144 22.25104386 21.20271963 20.66836548 21.20955467 C19.9142186 21.2106675 19.16007172 21.21178032 18.3830719 21.21292686 C14.89185004 20.92856347 14.89185004 20.92856347 11.98477173 22.37752342 C11.86255648 23.81936635 11.80704415 25.26695486 11.77944946 26.71370506 C11.75950424 27.63458412 11.73955902 28.55546318 11.7190094 29.50424767 C11.69394066 31.00579651 11.69394066 31.00579651 11.66836548 32.53767967 C11.64758438 33.55728279 11.62680328 34.57688591 11.60539246 35.62738609 C11.53978321 38.8981939 11.48095939 42.16908479 11.42227173 45.44002342 C11.37909731 47.6516207 11.33548339 49.86320945 11.29141235 52.07478905 C11.18409027 57.50894778 11.08285527 62.94319041 10.98477173 68.37752342 C5.04477173 68.37752342 -0.89522827 68.37752342 -7.01522827 68.37752342 C-7.0829747 59.9543839 -7.13802706 51.53145578 -7.17066479 43.1081171 C-7.18632836 39.19692116 -7.2075789 35.28592108 -7.24154663 31.37483788 C-7.27411596 27.60120084 -7.29207608 23.82775233 -7.29986 20.0539856 C-7.30540793 18.61344306 -7.31624163 17.17291097 -7.33241844 15.73244858 C-7.35415786 13.71670003 -7.35545338 11.70076221 -7.35580444 9.68489647 C-7.36246628 8.53684029 -7.36912811 7.3887841 -7.37599182 6.20593834 C-6.78176764 1.54717348 -4.57425822 0.00314647 0 0 Z " fill="#D9EFF9" transform="translate(113.01522827148438,24.62247657775879)"/>
<path d="M0 0 C66 0 132 0 200 0 C200 25.08 200 50.16 200 76 C194.06 76 188.12 76 182 76 C181.67 60.49 181.34 44.98 181 29 C172.151875 28.938125 172.151875 28.938125 163.125 28.875 C161.26375488 28.85679199 159.40250977 28.83858398 157.48486328 28.81982422 C156.01334929 28.81398425 154.54183208 28.80888752 153.0703125 28.8046875 C152.30323975 28.79445557 151.53616699 28.78422363 150.74584961 28.77368164 C148.82908138 28.77304758 146.91281954 28.87702736 145 29 C142.57994862 31.42005138 142.73670762 32.04311221 142.68115234 35.35791016 C142.66128265 36.25869293 142.64141296 37.15947571 142.62094116 38.08755493 C142.60938995 39.06155243 142.59783875 40.03554993 142.5859375 41.0390625 C142.56657135 42.03505463 142.5472052 43.03104675 142.5272522 44.05722046 C142.46735035 47.2463925 142.42102862 50.43560043 142.375 53.625 C142.33682999 55.78387013 142.29777884 57.94272488 142.2578125 60.1015625 C142.16164009 65.40091707 142.07764834 70.70034294 142 76 C137.05 76 132.1 76 127 76 C126.67 60.82 126.34 45.64 126 30 C122.94436853 28.47218426 119.75376118 28.85789746 116.40234375 28.8671875 C115.65287979 28.86623077 114.90341583 28.86527405 114.13124084 28.86428833 C112.54672156 28.86360759 110.96219948 28.86545449 109.37768555 28.86962891 C106.94378445 28.87498617 104.51006727 28.86967653 102.07617188 28.86328125 C100.53906209 28.8639419 99.00195242 28.8652228 97.46484375 28.8671875 C96.73257065 28.86516327 96.00029755 28.86313904 95.24583435 28.86105347 C91.83535757 28.57180574 91.83535757 28.57180574 89 30 C88.87778475 31.44184293 88.82227242 32.88943144 88.79467773 34.33618164 C88.77473251 35.2570607 88.75478729 36.17793976 88.73423767 37.12672424 C88.71752518 38.12775681 88.70081268 39.12878937 88.68359375 40.16015625 C88.6524221 41.68956093 88.6524221 41.68956093 88.62062073 43.24986267 C88.55501148 46.52067048 88.49618766 49.79156137 88.4375 53.0625 C88.39432558 55.27409728 88.35071166 57.48568603 88.30664062 59.69726562 C88.19931855 65.13142436 88.09808355 70.56566698 88 76 C82.72 76 77.44 76 72 76 C71.67 60.82 71.34 45.64 71 30 C67.94436853 28.47218426 64.75376118 28.85789746 61.40234375 28.8671875 C60.65287979 28.86623077 59.90341583 28.86527405 59.13124084 28.86428833 C57.54672156 28.86360759 55.96219948 28.86545449 54.37768555 28.86962891 C51.94378445 28.87498617 49.51006727 28.86967653 47.07617188 28.86328125 C45.53906209 28.8639419 44.00195242 28.8652228 42.46484375 28.8671875 C41.73257065 28.86516327 41.00029755 28.86313904 40.24583435 28.86105347 C36.83535757 28.57180574 36.83535757 28.57180574 34 30 C33.87778475 31.44184293 33.82227242 32.88943144 33.79467773 34.33618164 C33.77473251 35.2570607 33.75478729 36.17793976 33.73423767 37.12672424 C33.70916893 38.62827309 33.70916893 38.62827309 33.68359375 40.16015625 C33.66281265 41.17975937 33.64203156 42.19936249 33.62062073 43.24986267 C33.55501148 46.52067048 33.49618766 49.79156137 33.4375 53.0625 C33.39432558 55.27409728 33.35071166 57.48568603 33.30664062 59.69726562 C33.19931855 65.13142436 33.09808355 70.56566698 33 76 C28.05 76 23.1 76 18 76 C17.98018066 74.64729004 17.96036133 73.29458008 17.93994141 71.90087891 C17.86402371 66.89498885 17.77528546 61.88939477 17.68261719 56.88378906 C17.64427009 54.71490307 17.60942745 52.54595223 17.578125 50.37695312 C17.53259862 47.26408668 17.47458427 44.15166894 17.4140625 41.0390625 C17.40251129 40.065065 17.39096008 39.0910675 17.37905884 38.08755493 C17.35918915 37.18677216 17.33931946 36.28598938 17.31884766 35.35791016 C17.30552399 34.56293121 17.29220032 33.76795227 17.2784729 32.94888306 C17.16532992 30.76534628 17.16532992 30.76534628 15 29 C12.42314322 28.69309346 9.95896697 28.48985507 7.375 28.375 C3.724375 28.189375 3.724375 28.189375 0 28 C0 18.76 0 9.52 0 0 Z " fill="#D9EFF9" transform="translate(146,200)"/>
<path d="M0 0 C0.97110718 -0.00945648 1.94221436 -0.01891296 2.94274902 -0.02865601 C4.51312927 -0.01954697 4.51312927 -0.01954697 6.11523438 -0.01025391 C7.72960388 -0.01455917 7.72960388 -0.01455917 9.37658691 -0.01895142 C11.65291876 -0.02099365 13.92926809 -0.0154527 16.20556641 -0.00292969 C19.69538511 0.01312105 23.18404557 -0.00277368 26.67382812 -0.02197266 C28.88346611 -0.01999025 31.09310336 -0.01614664 33.30273438 -0.01025391 C34.34965454 -0.0163266 35.39657471 -0.02239929 36.47521973 -0.02865601 C37.93188049 -0.01447128 37.93188049 -0.01447128 39.41796875 0 C40.27273804 0.00238678 41.12750732 0.00477356 42.00817871 0.00723267 C44.20898438 0.38818359 44.20898438 0.38818359 45.98416138 1.39498901 C47.95685894 4.60522436 47.62499149 8.0111793 47.59716797 11.66748047 C47.60242493 12.51166031 47.60768188 13.35584015 47.61309814 14.2256012 C47.62631557 17.01956618 47.61755396 19.81296269 47.60742188 22.60693359 C47.60944211 24.54602162 47.61235313 26.48510891 47.61611938 28.42419434 C47.6205451 32.48957549 47.6141037 36.55475899 47.60009766 40.62011719 C47.58300566 45.83592205 47.59284552 51.05126383 47.61081505 56.2670517 C47.62164619 60.27158102 47.61820962 64.27600023 47.61043167 68.28053284 C47.60842781 70.20390375 47.61089544 72.12728461 47.61787033 74.05064392 C47.62547379 76.73699496 47.61389632 79.42259196 47.59716797 82.10888672 C47.60627701 83.30590965 47.60627701 83.30590965 47.61557007 84.52711487 C47.55431511 89.82621558 47.55431511 89.82621558 45.98416138 92.38137817 C43.67006755 93.69383445 42.07784649 93.76893999 39.41796875 93.77636719 C38.44686157 93.78582367 37.47575439 93.79528015 36.47521973 93.80502319 C35.42829956 93.7989505 34.38137939 93.79287781 33.30273438 93.78662109 C32.22648804 93.78949127 31.1502417 93.79236145 30.04138184 93.7953186 C27.76504999 93.79736084 25.48870066 93.79181989 23.21240234 93.77929688 C19.72258364 93.76324614 16.23392318 93.77914087 12.74414062 93.79833984 C10.53450264 93.79635744 8.32486539 93.79251383 6.11523438 93.78662109 C5.06831421 93.79269379 4.02139404 93.79876648 2.94274902 93.80502319 C1.48608826 93.79083847 1.48608826 93.79083847 0 93.77636719 C-1.28215393 93.77278702 -1.28215393 93.77278702 -2.59020996 93.76913452 C-4.79101562 93.38818359 -4.79101562 93.38818359 -6.56619263 92.38137817 C-8.53889019 89.17114282 -8.20702274 85.76518788 -8.17919922 82.10888672 C-8.18445618 81.26470688 -8.18971313 80.42052704 -8.19512939 79.55076599 C-8.20834682 76.75680101 -8.19958521 73.9634045 -8.18945312 71.16943359 C-8.19147336 69.23034556 -8.19438438 67.29125828 -8.19815063 65.35217285 C-8.20257635 61.2867917 -8.19613495 57.22160819 -8.18212891 53.15625 C-8.16503691 47.94044514 -8.17487677 42.72510336 -8.1928463 37.50931549 C-8.20367744 33.50478617 -8.20024087 29.50036696 -8.19246292 25.49583435 C-8.19045906 23.57246343 -8.19292669 21.64908258 -8.19990158 19.72572327 C-8.20750504 17.03937223 -8.19592757 14.35377523 -8.17919922 11.66748047 C-8.18527191 10.86946518 -8.1913446 10.07144989 -8.19760132 9.24925232 C-8.13634636 3.95015161 -8.13634636 3.95015161 -6.56619263 1.39498901 C-4.2520988 0.08253273 -2.65987774 0.0074272 0 0 Z " fill="#142F3A" transform="translate(368.791015625,110.61181640625)"/>
<path d="M0 0 C66 0 132 0 200 0 C200 5.61 200 11.22 200 17 C196.7447611 20.2552389 195.9217506 20.35091729 191.5491581 20.40123022 C190.80509901 20.39453805 190.06103992 20.38784589 189.29443359 20.38095093 C188.50177786 20.3856309 187.70912212 20.39031087 186.89244652 20.39513266 C184.2276083 20.4071303 181.56327983 20.39760698 178.8984375 20.38818359 C176.99155374 20.39224718 175.08467233 20.39758786 173.17779541 20.40411377 C167.99192814 20.41781849 162.80623944 20.4124757 157.62036896 20.40297651 C152.20052092 20.39539625 146.78068846 20.40242097 141.36083984 20.40713501 C132.25811001 20.41259733 123.15545314 20.40538845 114.05273438 20.39111328 C103.51955761 20.37478588 92.98655503 20.38007405 82.45338249 20.3965925 C73.41978906 20.41019379 64.38624815 20.41213367 55.35264778 20.40427649 C49.95290394 20.3995925 44.55324204 20.39899501 39.15350342 20.40888596 C34.07769339 20.41753361 29.00210856 20.41157406 23.92632294 20.39420319 C22.06024297 20.39022655 20.19414414 20.3913924 18.32807159 20.39799118 C15.78697813 20.40615045 13.24661305 20.39595369 10.70556641 20.38095093 C9.96150732 20.38764309 9.21744823 20.39433526 8.4508419 20.40123022 C4.0782494 20.35091729 3.2552389 20.2552389 0 17 C0 11.39 0 5.78 0 0 Z " fill="#DAEDF6" transform="translate(146,383)"/>
<path d="M0 0 C7.35432413 4.30203928 12.73190068 10.69570204 15.4375 18.8125 C16.58887976 28.12555907 14.64898683 35.04138911 9.4375 42.8125 C4.69160602 48.4397743 -1.97707368 52.16311882 -9.265625 53.1953125 C-17.94047226 53.55878375 -24.18416446 50.95714046 -30.875 45.5625 C-35.79464783 41.01525579 -39.18264799 34.95973666 -39.80078125 28.2109375 C-40.01797889 19.36299174 -38.31698233 13.7911967 -33.3125 6.5625 C-24.37158984 -2.37841016 -11.83929327 -5.68785324 0 0 Z " fill="#D9EEF8" transform="translate(400.5625,311.1875)"/>
<path d="M0 0 C7.35432413 4.30203928 12.73190068 10.69570204 15.4375 18.8125 C16.58887976 28.12555907 14.64898683 35.04138911 9.4375 42.8125 C4.69160602 48.4397743 -1.97707368 52.16311882 -9.265625 53.1953125 C-17.94047226 53.55878375 -24.18416446 50.95714046 -30.875 45.5625 C-35.79464783 41.01525579 -39.18264799 34.95973666 -39.80078125 28.2109375 C-40.01797889 19.36299174 -38.31698233 13.7911967 -33.3125 6.5625 C-24.37158984 -2.37841016 -11.83929327 -5.68785324 0 0 Z " fill="#D9EEF8" transform="translate(400.5625,231.1875)"/>
<path d="M0 0 C79.2 0 158.4 0 240 0 C240 0.33 240 0.66 240 1 C174 1 108 1 40 1 C40 10.24 40 19.48 40 29 C30.625 29.4375 30.625 29.4375 27.67431641 29.56811523 C26.52455322 29.6252771 26.52455322 29.6252771 25.3515625 29.68359375 C24.17327881 29.73858032 24.17327881 29.73858032 22.97119141 29.79467773 C20.92476504 29.890891 20.92476504 29.890891 19 31 C18.67 46.18 18.34 61.36 18 77 C12.06 77 6.12 77 0 77 C0 51.59 0 26.18 0 0 Z " fill="#B5E3F7" transform="translate(106,199)"/>
<path d="M0 0 C0.89267578 0.00966797 1.78535156 0.01933594 2.70507812 0.02929688 C4.09823242 0.06700195 4.09823242 0.06700195 5.51953125 0.10546875 C6.45990234 0.11900391 7.40027344 0.13253906 8.36914062 0.14648438 C10.69068163 0.18183779 13.01106778 0.23118201 15.33203125 0.29296875 C14.34203125 1.77796875 14.34203125 1.77796875 13.33203125 3.29296875 C12.93815337 5.61684822 12.5971704 7.95090624 12.33203125 10.29296875 C7.87703125 10.78796875 7.87703125 10.78796875 3.33203125 11.29296875 C3.33203125 17.56296875 3.33203125 23.83296875 3.33203125 30.29296875 C6.30203125 30.62296875 9.27203125 30.95296875 12.33203125 31.29296875 C12.82703125 39.21296875 12.82703125 39.21296875 13.33203125 47.29296875 C14.32203125 46.30296875 15.31203125 45.31296875 16.33203125 44.29296875 C20.15215027 43.80677178 22.36394892 43.57878134 25.52148438 45.90820312 C27.90213994 49.04388861 27.84817615 50.9744983 27.86328125 54.88671875 C27.87101562 56.80291016 27.87101562 56.80291016 27.87890625 58.7578125 C27.86633789 59.75143799 27.86633789 59.75143799 27.85351562 60.76513672 C27.83209075 62.78735323 27.85332864 64.80601836 27.87890625 66.828125 C27.87375 68.10558594 27.86859375 69.38304687 27.86328125 70.69921875 C27.85876953 71.86775391 27.85425781 73.03628906 27.84960938 74.24023438 C27.22740361 77.91007443 26.29980708 79.10353912 23.33203125 81.29296875 C19.76953125 81.73046875 19.76953125 81.73046875 16.33203125 81.29296875 C14.6171875 79.765625 14.6171875 79.765625 13.33203125 78.29296875 C13.27797003 80.23016253 13.239211 82.16778796 13.20703125 84.10546875 C13.18382812 85.18441406 13.160625 86.26335937 13.13671875 87.375 C13.10179408 90.48699743 13.10179408 90.48699743 15.33203125 93.29296875 C12.06136559 93.38003767 8.7909976 93.43338116 5.51953125 93.48046875 C4.59076172 93.50560547 3.66199219 93.53074219 2.70507812 93.55664062 C1.81240234 93.56630859 0.91972656 93.57597656 0 93.5859375 C-0.82218018 93.60164795 -1.64436035 93.6173584 -2.49145508 93.63354492 C-4.66796875 93.29296875 -4.66796875 93.29296875 -6.27973938 92.28913879 C-8.47873251 89.12715107 -8.08443603 85.73044344 -8.05615234 82.01367188 C-8.0614093 81.16949203 -8.06666626 80.32531219 -8.07208252 79.45555115 C-8.08529995 76.66158616 -8.07653834 73.86818966 -8.06640625 71.07421875 C-8.06842649 69.13513072 -8.0713375 67.19604343 -8.07510376 65.25695801 C-8.07952947 61.19157686 -8.07308808 57.12639335 -8.05908203 53.06103516 C-8.04199004 47.84523029 -8.05182989 42.62988851 -8.06979942 37.41410065 C-8.08063056 33.40957132 -8.077194 29.40515212 -8.06941605 25.40061951 C-8.06741219 23.47724859 -8.06987981 21.55386774 -8.07685471 19.63050842 C-8.08445816 16.94415738 -8.0728807 14.25856038 -8.05615234 11.57226562 C-8.06222504 10.77425034 -8.06829773 9.97623505 -8.07455444 9.15403748 C-8.01253062 3.78842296 -8.01253062 3.78842296 -6.27973938 1.29679871 C-4.08996873 -0.06701655 -2.56934912 -0.04909584 0 0 Z " fill="#0A181E" transform="translate(368.66796875,110.70703125)"/>
<path d="M0 0 C13.2 0 26.4 0 40 0 C40 9.24 40 18.48 40 28 C44.62 28 49.24 28 54 28 C54 28.33 54 28.66 54 29 C52.46291382 29.03758423 52.46291382 29.03758423 50.89477539 29.07592773 C47.10590324 29.16984484 43.31722119 29.27010317 39.52856445 29.37231445 C37.88635697 29.41572297 36.24410261 29.45739358 34.60180664 29.49731445 C32.24611255 29.5548744 29.89065572 29.61860892 27.53515625 29.68359375 C26.79660904 29.70030624 26.05806183 29.71701874 25.2971344 29.73423767 C21.85699373 29.53548013 21.85699373 29.53548013 19 31 C18.87778475 32.44184293 18.82227242 33.88943144 18.79467773 35.33618164 C18.77473251 36.2570607 18.75478729 37.17793976 18.73423767 38.12672424 C18.70916893 39.62827309 18.70916893 39.62827309 18.68359375 41.16015625 C18.66281265 42.17975937 18.64203156 43.19936249 18.62062073 44.24986267 C18.55501148 47.52067048 18.49618766 50.79156137 18.4375 54.0625 C18.39432558 56.27409728 18.35071166 58.48568603 18.30664062 60.69726562 C18.19931855 66.13142436 18.09808355 71.56566698 18 77 C12.06 77 6.12 77 0 77 C0 51.59 0 26.18 0 0 Z " fill="#B6E3F7" transform="translate(106,108)"/>
<path d="M0 0 C13.2 0 26.4 0 40 0 C40 9.24 40 18.48 40 28 C44.29 28 48.58 28 53 28 C53 28.33 53 28.66 53 29 C52.00556885 29.02505615 51.0111377 29.0501123 49.98657227 29.07592773 C46.30951253 29.16984882 42.6326485 29.27010619 38.95581055 29.37231445 C37.362107 29.41572146 35.7683552 29.45739219 34.17456055 29.49731445 C31.88836092 29.55487807 29.60240551 29.61861149 27.31640625 29.68359375 C26.2413961 29.70866249 26.2413961 29.70866249 25.14466858 29.73423767 C21.78472618 29.55018654 21.78472618 29.55018654 19 31 C18.87778475 32.44184293 18.82227242 33.88943144 18.79467773 35.33618164 C18.77473251 36.2570607 18.75478729 37.17793976 18.73423767 38.12672424 C18.70916893 39.62827309 18.70916893 39.62827309 18.68359375 41.16015625 C18.66281265 42.17975937 18.64203156 43.19936249 18.62062073 44.24986267 C18.55501148 47.52067048 18.49618766 50.79156137 18.4375 54.0625 C18.39432558 56.27409728 18.35071166 58.48568603 18.30664062 60.69726562 C18.19931855 66.13142436 18.09808355 71.56566698 18 77 C12.06 77 6.12 77 0 77 C0 51.59 0 26.18 0 0 Z " fill="#B6E3F7" transform="translate(106,291)"/>
<path d="M0 0 C0.94785873 -0.00945648 1.89571747 -0.01891296 2.87229919 -0.02865601 C3.89420853 -0.02258331 4.91611786 -0.01651062 5.96899414 -0.01025391 C7.54651207 -0.01455917 7.54651207 -0.01455917 9.15589905 -0.01895142 C11.3809564 -0.02099371 13.60603164 -0.01545237 15.83105469 -0.00292969 C19.23746946 0.01310507 22.64269477 -0.00276515 26.04907227 -0.02197266 C28.20988218 -0.01998994 30.37069135 -0.01614568 32.53149414 -0.01025391 C33.55137924 -0.0163266 34.57126434 -0.02239929 35.62205505 -0.02865601 C36.57306595 -0.01919952 37.52407684 -0.00974304 38.50390625 0 C39.33869003 0.00238678 40.17347382 0.00477356 41.03355408 0.00723267 C43.86602473 0.47985063 45.24974161 1.41873922 47.31665039 3.38818359 C47.81835938 6.15966797 47.81835938 6.15966797 47.81274414 9.48193359 C47.81338867 10.67689453 47.8140332 11.87185547 47.81469727 13.10302734 C47.7947168 14.35212891 47.77473633 15.60123047 47.75415039 16.88818359 C47.76124023 18.13728516 47.76833008 19.38638672 47.77563477 20.67333984 C47.71123745 29.85738824 47.71123745 29.85738824 46.09083557 32.03713989 C43.77852358 33.79796767 42.415601 33.76829751 39.52563477 33.77636719 C38.55452759 33.78582367 37.58342041 33.79528015 36.58288574 33.80502319 C35.53596558 33.7989505 34.48904541 33.79287781 33.41040039 33.78662109 C31.79603088 33.79092636 31.79603088 33.79092636 30.14904785 33.7953186 C27.87271601 33.79736084 25.59636667 33.79181989 23.32006836 33.77929688 C19.83024966 33.76324614 16.3415892 33.77914087 12.85180664 33.79833984 C10.64216866 33.79635744 8.4325314 33.79251383 6.22290039 33.78662109 C4.65252014 33.79573013 4.65252014 33.79573013 3.05041504 33.80502319 C1.59375427 33.79083847 1.59375427 33.79083847 0.10766602 33.77636719 C-1.17448792 33.77278702 -1.17448792 33.77278702 -2.48254395 33.76913452 C-5.17849653 33.30247558 -6.06660812 32.56477242 -7.68334961 30.38818359 C-8.0715332 27.61669922 -8.0715332 27.61669922 -8.08178711 24.29443359 C-8.0856543 23.09947266 -8.08952148 21.90451172 -8.09350586 20.67333984 C-8.0819043 19.42423828 -8.07030273 18.17513672 -8.05834961 16.88818359 C-8.06995117 15.63908203 -8.08155273 14.38998047 -8.09350586 13.10302734 C-8.08963867 11.90806641 -8.08577148 10.71310547 -8.08178711 9.48193359 C-8.07840332 8.38558594 -8.07501953 7.28923828 -8.0715332 6.15966797 C-7.36435991 1.11071753 -4.82383205 0.01380526 0 0 Z " fill="#DAECF5" transform="translate(368.683349609375,52.61181640625)"/>
<path d="M0 0 C0.80060349 0.00022659 1.60120697 0.00045319 2.42607117 0.00068665 C3.28553848 0.0161705 4.1450058 0.03165436 5.03051758 0.04760742 C6.35591301 0.05397469 6.35591301 0.05397469 7.70808411 0.06047058 C10.53071544 0.07726574 13.35263324 0.11491921 16.17504883 0.15307617 C18.08844998 0.16812194 20.00186231 0.18181053 21.9152832 0.1940918 C26.60631342 0.22717199 31.29681014 0.27895987 35.98754883 0.34057617 C35.32754883 1.33057617 34.66754883 2.32057617 33.98754883 3.34057617 C33.62493713 5.26801986 33.62493713 5.26801986 33.57348633 7.35229492 C33.53481445 8.10961914 33.49614258 8.86694336 33.45629883 9.6472168 C33.40989258 10.82574219 33.40989258 10.82574219 33.36254883 12.02807617 C33.32387695 12.82536133 33.28520508 13.62264648 33.24536133 14.4440918 C33.15122389 16.40921092 33.06830251 18.37486158 32.98754883 20.34057617 C32.38692627 20.36563232 31.78630371 20.39068848 31.16748047 20.41650391 C28.46143445 20.53212897 25.755766 20.65500553 23.05004883 20.77807617 C22.10452148 20.81739258 21.15899414 20.85670898 20.18481445 20.8972168 C19.28569336 20.93911133 18.38657227 20.98100586 17.46020508 21.02416992 C16.62755127 21.06082764 15.79489746 21.09748535 14.93701172 21.13525391 C12.98416025 21.13424721 12.98416025 21.13424721 11.98754883 22.34057617 C11.86533358 23.7824191 11.80982125 25.23000761 11.78222656 26.67675781 C11.76228134 27.59763687 11.74233612 28.51851593 11.7217865 29.46730042 C11.69671776 30.96884926 11.69671776 30.96884926 11.67114258 32.50073242 C11.65036148 33.52033554 11.62958038 34.53993866 11.60816956 35.59043884 C11.54256031 38.86124665 11.48373649 42.13213754 11.42504883 45.40307617 C11.38187441 47.61467345 11.33826049 49.8262622 11.29418945 52.0378418 C11.18686737 57.47200053 11.08563237 62.90624316 10.98754883 68.34057617 C5.04754883 68.34057617 -0.89245117 68.34057617 -7.01245117 68.34057617 C-7.0801976 59.91743665 -7.13524996 51.49450853 -7.16788769 43.07116985 C-7.18355126 39.15997391 -7.2048018 35.24897383 -7.23876953 31.33789062 C-7.27133886 27.56425359 -7.28929898 23.79080508 -7.2970829 20.01703835 C-7.30263083 18.57649581 -7.31346453 17.13596372 -7.32964134 15.69550133 C-7.35138076 13.67975278 -7.35267628 11.66381496 -7.35302734 9.64794922 C-7.35968918 8.49989304 -7.36635101 7.35183685 -7.37321472 6.16899109 C-7.01245117 3.34057617 -7.01245117 3.34057617 -5.74194336 1.46765137 C-3.64670121 0.1022243 -2.48936015 -0.02355861 0 0 Z " fill="#B6E3F7" transform="translate(113.012451171875,24.659423828125)"/>
<path d="M0 0 C1.2375 -0.01417969 2.475 -0.02835937 3.75 -0.04296875 C7 0.1875 7 0.1875 10 2.1875 C9.41992188 2.50460937 8.83984375 2.82171875 8.2421875 3.1484375 C0.89881713 7.53507129 -3.29063411 13.05940232 -6 21.1875 C-6.7535562 30.02729393 -5.88420859 37.90451272 -0.25 45 C2.7795069 48.27308534 6.0282638 50.2016319 10 52.1875 C9.505 53.1775 9.505 53.1775 9 54.1875 C2.92055439 56.21398187 -3.7394146 56.04561214 -9.6875 53.625 C-18.78994415 48.97590218 -23.81111668 42.75414996 -27 33.1875 C-27.89130024 23.45625478 -26.26515337 16.90383265 -20.75 8.9375 C-14.55667908 2.74417908 -8.76894759 0.0456716 0 0 Z " fill="#B8E2F5" transform="translate(388,308.8125)"/>
<path d="M0 0 C1.2375 -0.01417969 2.475 -0.02835938 3.75 -0.04296875 C7 0.1875 7 0.1875 10 2.1875 C9.41992188 2.50460938 8.83984375 2.82171875 8.2421875 3.1484375 C0.89881713 7.53507129 -3.29063411 13.05940232 -6 21.1875 C-6.7535562 30.02729393 -5.88420859 37.90451272 -0.25 45 C2.7795069 48.27308534 6.0282638 50.2016319 10 52.1875 C9.505 53.1775 9.505 53.1775 9 54.1875 C2.92055439 56.21398187 -3.7394146 56.04561214 -9.6875 53.625 C-18.78994415 48.97590218 -23.81111668 42.75414996 -27 33.1875 C-27.89130024 23.45625478 -26.26515337 16.90383265 -20.75 8.9375 C-14.55667908 2.74417908 -8.76894759 0.0456716 0 0 Z " fill="#B8E2F5" transform="translate(388,228.8125)"/>
<path d="M0 0 C79.2 0 158.4 0 240 0 C240 0.33 240 0.66 240 1 C174 1 108 1 40 1 C39.46092022 16.23833725 39.46092022 16.23833725 43 21 C37.35834639 21.07410727 31.71697553 21.12858167 26.07495117 21.16479492 C24.15530462 21.1798898 22.2356926 21.20036773 20.31616211 21.22631836 C17.55834436 21.26267109 14.8009822 21.27971912 12.04296875 21.29296875 C11.18350143 21.30845261 10.32403412 21.32393646 9.43852234 21.33988953 C8.63791885 21.34011612 7.83731537 21.34034271 7.01245117 21.34057617 C5.95655037 21.35056892 5.95655037 21.35056892 4.87931824 21.36076355 C3 21 3 21 0 18 C0 12.06 0 6.12 0 0 Z " fill="#B4E2F6" transform="translate(106,382)"/>
<path d="M0 0 C0.71353638 0.00202423 1.42707275 0.00404846 2.16223145 0.00613403 C2.89091431 0.00517731 3.61959717 0.00422058 4.37036133 0.00323486 C5.91377855 0.00255318 7.45719861 0.00440666 9.00061035 0.00857544 C11.37095544 0.01392391 13.74111104 0.00863011 16.1114502 0.00222778 C17.60754437 0.00288857 19.10363842 0.00416973 20.59973145 0.00613403 C21.31326782 0.0041098 22.0268042 0.00208557 22.76196289 0 C27.76602953 0.02399462 27.76602953 0.02399462 28.88098145 1.13894653 C28.97958276 2.54243389 29.01177081 3.9507513 29.01379395 5.35769653 C29.01572754 6.63193481 29.01572754 6.63193481 29.0177002 7.93191528 C29.01383301 8.8252356 29.00996582 9.71855591 29.00598145 10.63894653 C29.01178223 11.978927 29.01178223 11.978927 29.0177002 13.34597778 C29.01641113 14.19546997 29.01512207 15.04496216 29.01379395 15.92019653 C29.01266602 16.70459106 29.01153809 17.4889856 29.01037598 18.29714966 C28.88098145 20.13894653 28.88098145 20.13894653 27.88098145 21.13894653 C25.44437699 21.23977417 23.03673444 21.27867257 20.59973145 21.27175903 C19.87104858 21.27271576 19.14236572 21.27367249 18.39160156 21.2746582 C16.84818435 21.27533989 15.30476428 21.27348641 13.76135254 21.26931763 C11.39100745 21.26396916 9.02085185 21.26926295 6.6505127 21.27566528 C5.15441852 21.2750045 3.65832447 21.27372333 2.16223145 21.27175903 C1.09192688 21.27479538 1.09192688 21.27479538 0 21.27789307 C-5.00406664 21.25389845 -5.00406664 21.25389845 -6.11901855 20.13894653 C-6.21761987 18.73545918 -6.24980792 17.32714176 -6.25183105 15.92019653 C-6.25312012 15.07070435 -6.25440918 14.22121216 -6.2557373 13.34597778 C-6.25187012 12.45265747 -6.24800293 11.55933716 -6.24401855 10.63894653 C-6.24788574 9.74562622 -6.25175293 8.85230591 -6.2557373 7.93191528 C-6.25444824 7.0824231 -6.25315918 6.23293091 -6.25183105 5.35769653 C-6.25070312 4.573302 -6.2495752 3.78890747 -6.24841309 2.98074341 C-5.97427478 -0.92133094 -3.28629246 0.01575785 0 0 Z " fill="#D9EFF9" transform="translate(377.1190185546875,120.86105346679688)"/>
<path d="M0 0 C0.82741699 0.01047363 1.65483398 0.02094727 2.50732422 0.03173828 C3.40322266 0.03818359 4.29912109 0.04462891 5.22216797 0.05126953 C6.62789063 0.07640625 6.62789063 0.07640625 8.06201172 0.10205078 C9.00689453 0.11107422 9.95177734 0.12009766 10.92529297 0.12939453 C13.26278464 0.15300556 15.59977295 0.18593562 17.93701172 0.22705078 C17.60701172 0.88705078 17.27701172 1.54705078 16.93701172 2.22705078 C16.85142053 4.4053004 16.8298776 6.58620333 16.83935547 8.76611328 C16.84418945 10.71904297 16.84418945 10.71904297 16.84912109 12.71142578 C16.85747706 14.09163477 16.86594201 15.4718431 16.87451172 16.85205078 C16.87952671 18.24007004 16.88408962 19.628091 16.88818359 21.01611328 C16.90000196 24.4198021 16.91647738 27.82340517 16.93701172 31.22705078 C17.59701172 31.55705078 18.25701172 31.88705078 18.93701172 32.22705078 C15.66634606 32.3141197 12.39597807 32.36746319 9.12451172 32.41455078 C7.73135742 32.45225586 7.73135742 32.45225586 6.31005859 32.49072266 C4.97104492 32.50522461 4.97104492 32.50522461 3.60498047 32.52001953 C2.78280029 32.53572998 1.96062012 32.55144043 1.11352539 32.56762695 C-1.06298828 32.22705078 -1.06298828 32.22705078 -2.83203125 31.09179688 C-4.61057493 28.39752543 -4.4349437 26.30688352 -4.42626953 23.09814453 C-4.425625 21.89867188 -4.42498047 20.69919922 -4.42431641 19.46337891 C-4.40820312 18.20976563 -4.39208984 16.95615234 -4.37548828 15.66455078 C-4.37871094 14.40707031 -4.38193359 13.14958984 -4.38525391 11.85400391 C-4.31792387 0.47522712 -4.31792387 0.47522712 0 0 Z " fill="#B7E3F7" transform="translate(365.06298828125,53.77294921875)"/>
<path d="M0 0 C1.39456867 0.00574201 2.78910972 0.01875397 4.18359375 0.03515625 C6.63796875 0.05578125 9.09234375 0.07640625 11.62109375 0.09765625 C11.62109375 7.02765625 11.62109375 13.95765625 11.62109375 21.09765625 C9.16671875 21.11828125 6.71234375 21.13890625 4.18359375 21.16015625 C3.40959229 21.16926025 2.63559082 21.17836426 1.83813477 21.18774414 C0.09887658 21.19490538 -1.64035929 21.14790327 -3.37890625 21.09765625 C-4.93497376 19.54158874 -4.50861394 18.03808254 -4.51171875 15.87890625 C-4.51300781 15.02941406 -4.51429688 14.17992187 -4.515625 13.3046875 C-4.51175781 12.41136719 -4.50789063 11.51804688 -4.50390625 10.59765625 C-4.50777344 9.70433594 -4.51164062 8.81101563 -4.515625 7.890625 C-4.51433594 7.04113281 -4.51304687 6.19164063 -4.51171875 5.31640625 C-4.51059082 4.53201172 -4.50946289 3.74761719 -4.50830078 2.93945312 C-4.27431542 -0.39108575 -3.43182237 0.09918562 0 0 Z " fill="#B7E3F7" transform="translate(375.37890625,120.90234375)"/>
</svg>
