<svg width="512" height="512" viewBox="150 20 250 150" fill="none" xmlns="http://www.w3.org/2000/svg">
  <g transform="translate(-213, 0)">
    <path d="M552.128 67.3409C552.128 108.258 527.638 134.688 489.749 134.688C451.86 134.688 427.376 108.246 427.376 67.3409C427.376 26.4361 451.86 0.00012207 489.749 0.00012207C527.638 0.00012207 552.128 26.4234 552.128 67.3409ZM520.766 67.3409C520.766 43.7757 510.032 31.3184 489.749 31.3184C469.465 31.3184 458.737 43.7694 458.737 67.3409C458.737 90.9124 469.465 103.37 489.749 103.37C510.032 103.37 520.766 90.906 520.766 67.3409Z" fill="url(#paint0_linear_5_15)"/>
    
    <path d="M422.346 137.317C425.788 139.074 429.874 141.741 433.648 143.587C440.003 146.687 446.441 149.291 452.988 151.538C487.906 163.549 522.761 159.526 555.544 142.931C556.233 142.581 559.375 140.099 560 140.729C559.949 141.041 559.853 141.512 559.649 142.059C559.433 142.53 559.184 143.014 558.904 143.498C557.297 146.28 555.194 148.189 553.396 149.469C532.099 164.6 507.342 168.642 507.342 168.642C501.949 169.45 471.32 174.04 461.344 165.65C461.344 165.65 455.467 160.71 451.177 161.659C450.4 161.831 448.315 162.919 447.837 163.409C447.786 163.46 447.378 163.899 446.773 164.415C446.76 164.428 446.747 164.434 446.747 164.441C441.418 168.986 438.371 178.871 438.371 178.871C436.172 186.242 438.237 193.977 434.47 200.641C433.508 202.341 431.627 205.167 428.096 206.79C423.003 209.133 416.488 207.917 412.498 204.492C411.848 203.932 411.421 203.448 410.981 202.946C407.392 198.865 406.175 194.409 405.983 192.525C405.276 185.479 407.347 175.905 412.766 168.775C417.782 162.168 424.845 157.98 432.156 153.645C433.31 152.957 434.285 152.416 434.955 152.047C433.75 150.997 432.832 150.105 432.265 149.545C428.759 146.076 427.401 143.88 422.869 138.877C422.257 138.202 421.753 137.661 421.473 137.362C421.549 137.024 422.098 137.19 422.353 137.317H422.346ZM422.525 174.867C422.448 175.778 422.416 176.707 422.416 176.707C422.378 177.834 422.404 178.788 422.442 179.533H423.411C423.5 179.38 423.627 179.145 423.742 178.846C423.882 178.47 423.94 178.184 423.946 178.139C423.997 177.897 426.024 168.903 432.749 163.008C436 160.157 437.632 158.731 439.238 158.342C439.595 158.26 441.055 157.96 441.405 156.98C441.507 156.7 441.488 156.452 441.469 156.293C441.348 154.994 439.939 154.23 439.621 154.071C438.696 153.606 437.836 153.638 437.377 153.664C436.516 153.708 435.866 153.957 435.261 154.224C434.19 154.695 432.756 155.331 431.245 156.547C427.325 159.717 424.928 165.217 424.73 165.682C424.73 165.682 422.965 169.826 422.525 174.861V174.867Z" fill="url(#paint1_linear_5_15)"/>
    
    <path d="M391.909 150.774C392.304 151.035 392.553 151.321 392.801 151.639C394.764 154.115 395.141 156.184 396.345 158.075C396.894 158.934 397.856 160.131 399.596 161.251L402.191 162.658C400.208 163.142 397.04 163.575 393.464 162.601C392.731 162.397 386.599 160.723 385.496 156.904C385.311 156.261 385.286 155.611 385.279 155.471C385.248 154.631 385.165 152.155 387.064 150.831C388.562 149.787 390.634 149.927 391.902 150.78L391.909 150.774Z" fill="#FF5200"/>
    
    <path d="M391.081 174.001C391.291 173.861 391.425 173.708 391.559 173.537C392.617 172.206 392.814 171.092 393.465 170.08C393.758 169.615 394.274 168.973 395.211 168.374L396.607 167.617C395.543 167.356 393.841 167.12 391.916 167.649C391.52 167.757 388.225 168.661 387.632 170.71C387.53 171.054 387.517 171.404 387.517 171.481C387.505 171.933 387.454 173.263 388.473 173.976C389.277 174.536 390.392 174.46 391.074 174.001H391.081Z" fill="#FF5200"/>
  </g>

  <defs>
    <linearGradient id="paint0_linear_5_15" x1="537.934" y1="8.8093" x2="445.734" y2="25.6901" gradientUnits="userSpaceOnUse">
      <stop stop-color="#8FEF3B"/>
      <stop offset="0.364398" stop-color="#FFD448"/>
      <stop offset="1" stop-color="#FF5200"/>
    </linearGradient>
    <linearGradient id="paint1_linear_5_15" x1="536.309" y1="145.221" x2="398.913" y2="166.046" gradientUnits="userSpaceOnUse">
      <stop stop-color="#8FEF3B"/>
      <stop offset="0.529716" stop-color="#FFD448"/>
      <stop offset="1" stop-color="#D8420D"/>
    </linearGradient>
  </defs>
</svg>
